<svg width="133" height="44" viewBox="0 0 133 44" fill="none" xmlns="http://www.w3.org/2000/svg">
<path d="M27.5685 12.7306C26.0239 12.7227 24.4941 13.034 23.0744 13.6449C21.6547 14.2558 20.3755 15.1533 19.3164 16.2816C19.9074 16.1945 20.5039 16.1504 21.1013 16.1498C23.8136 16.1262 26.456 17.0125 28.6089 18.668C30.7619 20.3235 32.302 22.6532 32.9847 25.2873C33.6673 27.9214 33.4535 30.7089 32.377 33.2071C31.3006 35.7053 29.4232 37.7711 27.0431 39.0763C29.7601 38.14 32.2126 36.5614 34.1935 34.4738C36.1745 32.3862 37.6257 29.8509 38.4246 27.082C38.4497 27.0005 38.4703 26.9176 38.4864 26.8339C38.9132 25.1643 38.9536 23.4188 38.6044 21.7312C38.2553 20.0435 37.5259 18.4584 36.4722 17.0972C35.4184 15.736 34.0682 14.6348 32.5249 13.8779C30.9817 13.1211 29.2863 12.7286 27.5685 12.7306Z" fill="url(#paint0_radial)"/>
<path d="M31.0384 30.0449C31.0411 27.476 30.0525 25.0058 28.2799 23.1522C27.4975 24.5572 26.4428 25.7907 25.1777 26.7801C23.9127 27.7696 22.4631 28.4948 20.9143 28.9132C19.3655 29.3315 17.749 29.4344 16.1599 29.2159C14.5708 28.9974 13.0415 28.4618 11.662 27.6408C10.2825 26.8197 9.08073 25.7299 8.12764 24.4354C7.17455 23.141 6.48939 21.6681 6.11256 20.1038C5.73573 18.5394 5.67485 16.9151 5.93352 15.3268C6.19219 13.7384 6.76517 12.2181 7.61868 10.8555C5.4452 13.4348 4.05152 16.5837 3.60175 19.9312C3.15197 23.2787 3.66485 26.6855 5.07997 29.7503C6.4951 32.8152 8.75353 35.4104 11.5893 37.2305C14.4251 39.0505 17.7201 40.0195 21.0863 40.0234H21.604C24.152 39.8921 26.5523 38.7831 28.3083 36.9258C30.0643 35.0685 31.0417 32.605 31.0384 30.0449Z" fill="url(#paint1_radial)"/>
<path d="M15.3675 26.0605C15.2897 25.4771 15.251 24.8891 15.2516 24.3005C15.2452 21.6936 15.997 19.1414 17.4147 16.9568C18.8324 14.7723 20.8545 13.0502 23.2331 12.0017C25.6117 10.9531 28.2434 10.6237 30.8058 11.0537C33.3682 11.4838 35.7499 12.6546 37.659 14.4228C36.5794 12.14 35.0307 10.1123 33.1145 8.47288C31.1983 6.83347 28.9582 5.61945 26.5412 4.91061C24.1242 4.20176 21.585 4.01412 19.0906 4.36002C16.5962 4.70592 14.203 5.57752 12.0681 6.91757C10.3266 8.03564 8.95268 9.64471 8.11872 11.5431C7.28475 13.4414 7.02783 15.5446 7.38017 17.5889C7.7325 19.6331 8.67841 21.5275 10.0993 23.0346C11.5202 24.5416 13.3528 25.5943 15.3675 26.0605Z" fill="url(#paint2_radial)"/>
<path d="M57.5181 14.8416C56.4673 13.8879 54.8138 13.3684 52.5576 13.3684C51.0533 13.3545 49.5508 13.4765 48.0684 13.7328V31.3871H50.3864V24.1068C51.0252 24.2301 51.6756 24.2822 52.3258 24.2618C54.5588 24.2618 56.5214 23.6105 57.7345 22.3157C58.2099 21.8111 58.5782 21.2148 58.8173 20.5631C59.0563 19.9115 59.1611 19.2179 59.1253 18.5244C59.148 17.8349 59.0217 17.1488 58.7549 16.513C58.4881 15.8772 58.0873 15.307 57.58 14.8416H57.5181ZM52.4108 22.4165C51.7416 22.435 51.0726 22.3752 50.4173 22.2382V15.3688C51.1604 15.2248 51.9169 15.1624 52.6735 15.1827C55.1924 15.1827 56.8459 16.3147 56.8459 18.6562C56.8459 20.9977 55.1692 22.4165 52.4108 22.4165ZM65.6235 18.4236C62.1387 18.4236 59.3416 20.9201 59.3416 25.1845C59.3416 29.2007 62.0074 31.7283 65.4149 31.7283C68.4283 31.7283 71.7044 29.6736 71.7044 24.9441C71.7044 21.0675 69.2396 18.4236 65.6003 18.4236H65.6235ZM65.4998 29.9915C63.2745 29.9915 61.6983 27.8904 61.6983 25.1069C61.6983 22.6879 62.8805 20.1603 65.5617 20.1603C68.2428 20.1603 69.3632 22.874 69.3632 25.0294C69.3632 27.9136 67.7097 29.9915 65.4998 29.9915ZM73.7056 31.3949H76.0236V13.0195H73.7056V31.3949ZM78.7589 31.3949H81.0769V18.7647H78.7589V31.3949ZM79.9024 13.7794C79.713 13.7729 79.5242 13.8055 79.3479 13.8753C79.1715 13.9451 79.0113 14.0505 78.8773 14.185C78.7432 14.3195 78.6382 14.4803 78.5686 14.6572C78.4991 14.8342 78.4665 15.0236 78.473 15.2137C78.4667 15.3981 78.4978 15.5819 78.5643 15.7539C78.6308 15.9259 78.7313 16.0826 78.8599 16.2145C78.9885 16.3464 79.1423 16.4507 79.3122 16.5213C79.4821 16.5918 79.6645 16.627 79.8484 16.6248C80.2063 16.5983 80.541 16.4369 80.7853 16.173C81.0296 15.9091 81.1653 15.5623 81.1653 15.2021C81.1653 14.8419 81.0296 14.4951 80.7853 14.2312C80.541 13.9673 80.2063 13.8059 79.8484 13.7794H79.9024ZM97.5348 18.4779C96.545 18.4468 95.576 18.7682 94.7996 19.385C94.2064 19.8207 93.7158 20.3819 93.3624 21.0287H93.316C93.0659 20.2876 92.5893 19.6444 91.954 19.1907C91.3187 18.7369 90.557 18.4956 89.7772 18.5011C88.9633 18.4754 88.1586 18.6799 87.455 19.0912C86.7514 19.5025 86.1772 20.104 85.7979 20.8271H85.7207L85.6125 18.7957H83.6113C83.6654 19.8347 83.7194 20.8814 83.7194 22.2149V31.3949H85.9525V23.7734C85.9467 23.3911 86.0069 23.0108 86.1302 22.6491C86.3051 22.0133 86.6728 21.4479 87.1822 21.0311C87.6917 20.6143 88.3178 20.3669 88.9736 20.3231C90.7121 20.3231 91.6007 21.7575 91.6007 23.7656V31.3638H93.8337V23.564C93.8389 23.1744 93.9014 22.7878 94.0192 22.4165C94.2106 21.8351 94.5743 21.3261 95.0617 20.9575C95.549 20.589 96.1369 20.3785 96.7467 20.3542C98.5625 20.3542 99.4742 21.7885 99.4742 24.2308V31.3794H101.715V23.9362C101.715 19.5556 99.2424 18.4623 97.5503 18.4623L97.5348 18.4779ZM113.282 23.626C113.282 21.0985 112.347 18.4623 108.476 18.4623C107.014 18.4512 105.575 18.8341 104.311 19.5711L104.829 21.1217C105.826 20.4794 106.99 20.1451 108.175 20.1603C110.748 20.1603 111.033 22.0444 111.033 23.0833V23.3469C106.173 23.3469 103.461 24.9906 103.461 28.0454C103.457 28.5443 103.555 29.0386 103.751 29.4971C103.947 29.9556 104.236 30.3682 104.599 30.7087C104.962 31.0492 105.392 31.3101 105.861 31.475C106.331 31.6398 106.829 31.705 107.325 31.6662C108.072 31.6891 108.813 31.5304 109.486 31.2037C110.158 30.877 110.742 30.392 111.188 29.7899H111.265L111.466 31.3871H113.529C113.394 30.3824 113.332 29.3692 113.344 28.3556L113.282 23.626ZM111.041 27.1383C111.046 27.385 111.012 27.6311 110.941 27.8671C110.715 28.5028 110.294 29.0503 109.739 29.4307C109.184 29.8111 108.522 30.0048 107.85 29.9838C107.561 30.003 107.271 29.959 107 29.8547C106.729 29.7503 106.484 29.5882 106.282 29.3795C106.08 29.1708 105.926 28.9205 105.829 28.646C105.733 28.3715 105.698 28.0793 105.725 27.7896C105.725 25.3395 108.553 24.8976 111.049 24.9441L111.041 27.1383ZM121.503 29.5883C121.072 29.7146 120.623 29.7696 120.174 29.7512C118.899 29.7512 118.459 28.8595 118.459 27.2934V20.5092H121.588V18.7647H118.459V15.7332L116.226 16.4387V18.7647H114.279V20.5092H116.226V27.3709C116.118 28.5469 116.43 29.723 117.107 30.6893C117.429 31.0132 117.816 31.266 118.242 31.4316C118.668 31.5971 119.123 31.6718 119.579 31.6507C120.269 31.6585 120.955 31.5537 121.611 31.3406L121.503 29.5883Z" fill="#414040"/>
<path d="M123.126 12.6059H123.899C124.316 12.6059 124.741 12.699 124.741 13.1874C124.741 13.6759 124.301 13.8232 123.798 13.8232H123.095L123.126 12.6059ZM123.126 14.3116H123.806L124.826 16.0019H125.491L124.401 14.2884C124.538 14.2875 124.673 14.2588 124.799 14.2039C124.925 14.1491 125.038 14.0692 125.132 13.9692C125.226 13.8691 125.298 13.751 125.345 13.622C125.392 13.4929 125.413 13.3557 125.406 13.2184C125.406 12.4431 124.95 12.1175 124.03 12.1175H122.562V15.9941H123.142L123.126 14.3116ZM121.102 14.048C121.082 13.6758 121.138 13.3035 121.266 12.9538C121.395 12.604 121.593 12.2842 121.848 12.0137C122.104 11.7432 122.412 11.5278 122.753 11.3806C123.094 11.2335 123.462 11.1575 123.833 11.1575C124.205 11.1575 124.572 11.2335 124.913 11.3806C125.255 11.5278 125.563 11.7432 125.818 12.0137C126.074 12.2842 126.272 12.604 126.4 12.9538C126.528 13.3035 126.584 13.6758 126.565 14.048C126.584 14.4202 126.528 14.7925 126.4 15.1423C126.272 15.4921 126.074 15.8119 125.818 16.0824C125.563 16.3528 125.255 16.5682 124.913 16.7154C124.572 16.8626 124.205 16.9385 123.833 16.9385C123.462 16.9385 123.094 16.8626 122.753 16.7154C122.412 16.5682 122.104 16.3528 121.848 16.0824C121.593 15.8119 121.395 15.4921 121.266 15.1423C121.138 14.7925 121.082 14.4202 121.102 14.048ZM123.845 17.4362C124.508 17.4255 125.154 17.2184 125.701 16.8409C126.247 16.4633 126.671 15.9322 126.918 15.3141C127.165 14.6959 127.224 14.0184 127.089 13.3665C126.953 12.7146 126.629 12.1173 126.157 11.6496C125.684 11.182 125.085 10.8648 124.433 10.7378C123.782 10.6108 123.107 10.6798 122.495 10.936C121.882 11.1921 121.359 11.6242 120.99 12.1778C120.621 12.7315 120.424 13.3821 120.422 14.048C120.42 14.4975 120.507 14.9429 120.679 15.358C120.851 15.7731 121.104 16.1495 121.423 16.4652C121.741 16.7808 122.12 17.0293 122.536 17.1961C122.952 17.3629 123.397 17.4445 123.845 17.4362Z" fill="#414040"/>
<defs>
<radialGradient id="paint0_radial" cx="0" cy="0" r="1" gradientUnits="userSpaceOnUse" gradientTransform="translate(19.9268 25.1637) rotate(180) scale(14.2521 14.3011)">
<stop stop-color="#CEE5F5"/>
<stop offset="1" stop-color="#44A1D0"/>
</radialGradient>
<radialGradient id="paint1_radial" cx="0" cy="0" r="1" gradientUnits="userSpaceOnUse" gradientTransform="translate(17.2307 25.4239) scale(14.1785 14.2273)">
<stop stop-color="#F8DD83"/>
<stop offset="1" stop-color="#DE9222"/>
</radialGradient>
<radialGradient id="paint2_radial" cx="0" cy="0" r="1" gradientUnits="userSpaceOnUse" gradientTransform="translate(25.9214 20.4091) rotate(180) scale(16.0578 16.1131)">
<stop stop-color="#DAEA73"/>
<stop offset="1" stop-color="#68B336"/>
</radialGradient>
</defs>
</svg>
