<svg width="22" height="22" viewBox="0 0 22 22" fill="none" xmlns="http://www.w3.org/2000/svg">
<g clip-path="url(#clip0)">
<path d="M18.1743 11.7731C18.1743 11.4109 17.8806 11.1172 17.5182 11.1172C17.1558 11.1172 16.8621 11.4109 16.8621 11.7731C16.8621 14.9824 14.2514 17.5931 11.0421 17.5931C7.83308 17.5931 5.22238 14.9824 5.22238 11.7731C5.22238 11.4109 4.92865 11.1172 4.56627 11.1172C4.20389 11.1172 3.91016 11.4109 3.91016 11.7731C3.91016 15.4847 6.75986 18.5424 10.386 18.8747V20.641H7.95124C7.58886 20.641 7.29513 20.9347 7.29513 21.2971C7.29513 21.6595 7.58886 21.9532 7.95124 21.9532H14.1332C14.4954 21.9532 14.7892 21.6595 14.7892 21.2971C14.7892 20.9347 14.4954 20.641 14.1332 20.641H11.6983V18.8747C15.3246 18.5426 18.1743 15.4847 18.1743 11.7731Z" fill="#0019FF"/>
<path d="M11.0446 15.978C13.3611 15.978 15.2457 14.0934 15.2457 11.777V4.15791C15.2457 1.84162 13.3611 -0.0429688 11.0446 -0.0429688C8.72834 -0.0429688 6.84375 1.84162 6.84375 4.15791V11.777C6.84375 14.0934 8.72834 15.978 11.0446 15.978ZM8.15581 4.15791C8.15581 2.56504 9.45176 1.26926 11.0446 1.26926C12.6375 1.26926 13.9334 2.56504 13.9334 4.15791V11.777C13.9334 13.3699 12.6375 14.6658 11.0446 14.6658C9.45176 14.6658 8.15581 13.3699 8.15581 11.777V4.15791Z" fill="#0019FF"/>
</g>
<defs>
<clipPath id="clip0">
<rect width="22" height="22" fill="white"/>
</clipPath>
</defs>
</svg>
