<svg width="230" height="230" viewBox="0 0 230 230" fill="none" xmlns="http://www.w3.org/2000/svg">
<path d="M150.484 192.05C150.415 192.051 150.346 192.04 150.281 192.018L14.5169 149.96C14.3757 149.916 14.2522 149.828 14.1645 149.709C14.0768 149.589 14.0294 149.445 14.0293 149.297V144.739C14.0293 144.605 14.068 144.475 14.1407 144.363C14.2133 144.251 14.3168 144.163 14.4387 144.109L72.3573 118.436C72.8173 115.543 76.0741 96.1307 79.9611 76.7371C88.5309 34.0399 91.8061 33.0233 93.0389 32.6599C96.5027 31.5927 125.368 34.8219 151.266 38.5663C163.994 40.4063 206.217 46.7773 215.146 51.6211C216.236 52.2145 216.83 52.7757 216.986 53.3921C219.038 60.5635 202.993 139.035 202.307 142.374C202.271 142.554 202.164 142.711 202.012 142.812C201.859 142.913 201.672 142.949 201.493 142.913C201.314 142.876 201.156 142.77 201.055 142.617C200.954 142.464 200.918 142.278 200.955 142.098C206.728 113.942 217.225 59.2525 215.675 53.7785C215.675 53.7463 215.546 53.4197 214.484 52.8585C208.596 49.6385 184.887 44.8361 151.068 39.9785C122.672 35.8753 96.2819 33.1521 93.4391 33.9985C92.3213 34.3435 88.8989 39.2287 81.3135 77.0407C77.1183 97.9385 73.6867 118.855 73.6545 119.066C73.6357 119.18 73.5888 119.287 73.5181 119.378C73.4474 119.468 73.3552 119.54 73.2497 119.586L15.4093 145.203V148.805L150.318 190.587L196.419 150.015V146.335C188.848 153.235 155.783 182.951 149.996 182.951C143.878 182.951 94.6305 166.883 92.5375 166.198C92.419 166.159 92.3131 166.089 92.2311 165.995C92.1492 165.902 92.0942 165.787 92.072 165.664C92.0498 165.542 92.0613 165.415 92.1052 165.299C92.1491 165.182 92.2238 165.079 92.3213 165.002L96.0657 162.007L71.7593 154.022C71.6454 153.984 71.5431 153.918 71.4626 153.829C71.3821 153.741 71.3261 153.632 71.3001 153.515C71.2741 153.399 71.279 153.277 71.3144 153.162C71.3497 153.048 71.4143 152.944 71.5017 152.862L80.6189 144.251C80.7094 144.167 80.8204 144.109 80.9407 144.081C81.061 144.054 81.1864 144.059 81.3043 144.095L108.141 152.72C108.258 152.758 108.363 152.827 108.444 152.921C108.525 153.014 108.579 153.127 108.601 153.249C108.623 153.372 108.612 153.499 108.568 153.617C108.525 153.734 108.45 153.837 108.352 153.916L98.8993 161.46L102.731 162.716L115.11 153.309C115.199 153.241 115.304 153.196 115.414 153.178C115.525 153.159 115.638 153.168 115.745 153.203L154.886 166.253L159.486 162.302L59.1093 133.763C58.9815 133.728 58.8669 133.656 58.7794 133.556C58.692 133.456 58.6356 133.333 58.6171 133.202C58.5972 133.07 58.6162 132.935 58.6717 132.813C58.7272 132.691 58.8169 132.588 58.9299 132.517L78.1993 120.359C78.2787 120.309 78.3674 120.276 78.4599 120.262C78.5524 120.248 78.6469 120.253 78.7375 120.276L179.547 145.604C179.67 145.634 179.782 145.698 179.872 145.789C179.961 145.879 180.024 145.992 180.053 146.116C180.082 146.24 180.076 146.369 180.036 146.489C179.996 146.61 179.924 146.717 179.827 146.8L162.379 161.694L166.036 162.734L186.299 145.935L186.759 138.202L80.9593 114.02C80.782 113.978 80.6282 113.869 80.531 113.715C80.4337 113.561 80.4009 113.375 80.4395 113.197L96.5993 39.2333C96.638 39.0619 96.7402 38.9116 96.8853 38.8126C97.0304 38.7136 97.2076 38.6732 97.3813 38.6997L209.336 55.9267C209.428 55.9404 209.516 55.9727 209.595 56.0217C209.674 56.0706 209.743 56.1351 209.796 56.2113C209.85 56.2874 209.887 56.3737 209.906 56.4647C209.925 56.5558 209.925 56.6497 209.907 56.7409L195.743 127.664C195.727 127.757 195.691 127.846 195.639 127.925C195.587 128.004 195.519 128.072 195.44 128.124C195.363 128.174 195.277 128.208 195.187 128.223C195.097 128.239 195.004 128.237 194.915 128.216L124.498 112.497C124.331 112.461 124.184 112.363 124.085 112.224C123.987 112.084 123.944 111.913 123.965 111.743L124.655 106.126C119.414 105.105 114.623 102.473 110.951 98.5963C110.845 98.4645 110.79 98.2985 110.797 98.1293C110.804 97.9601 110.872 97.7991 110.988 97.6763L114.015 94.6541L109.157 88.2647L104.001 89.1847C103.821 89.2168 103.635 89.1763 103.485 89.0719C103.335 88.9676 103.233 88.8079 103.2 88.6281C102.705 84.8669 103.056 81.0427 104.225 77.4339C105.395 73.8252 107.355 70.5227 109.962 67.7671C118.679 58.5395 129.742 58.4337 130.202 58.4337C130.297 58.4331 130.392 58.4524 130.479 58.4905C130.566 58.5285 130.644 58.5844 130.708 58.6545C130.774 58.7243 130.824 58.807 130.855 58.8973C130.887 58.9876 130.9 59.0835 130.892 59.1789L129.48 76.5853L134.72 73.4389L139.177 60.4163C139.215 60.3056 139.281 60.2064 139.368 60.1282C139.455 60.0499 139.561 59.9951 139.675 59.9689C139.789 59.9426 139.908 59.9459 140.02 59.9783C140.133 60.0107 140.235 60.0712 140.318 60.1541L146.9 66.7413C146.975 66.815 147.031 66.9048 147.065 67.0038C147.1 67.1028 147.111 67.2083 147.098 67.3122C147.085 67.4161 147.048 67.5157 146.991 67.6034C146.934 67.691 146.857 67.7643 146.767 67.8177L135.883 74.3819L134.503 78.3931L146.082 71.7139C146.186 71.6533 146.305 71.6214 146.427 71.6214C146.548 71.6214 146.667 71.6534 146.772 71.714C146.877 71.7746 146.964 71.8617 147.024 71.9667C147.085 72.0717 147.117 72.1907 147.117 72.3119V80.0905L160.213 70.7387C160.292 70.6805 160.382 70.6404 160.479 70.6213C160.575 70.6022 160.674 70.6046 160.769 70.6283C160.866 70.6501 160.957 70.6922 161.036 70.7516C161.115 70.8111 161.181 70.8866 161.229 70.9733C161.418 71.3413 165.894 80.0215 160.728 90.3531C155.705 100.399 153.557 101.692 153.327 101.802C153.213 101.86 153.086 101.885 152.959 101.874C152.832 101.864 152.711 101.818 152.609 101.743L146.316 97.1197C144.963 99.3574 143.165 101.293 141.032 102.806C138.899 104.319 136.478 105.377 133.919 105.915C131.329 106.5 128.658 106.64 126.021 106.329L125.409 111.288L194.529 126.702L208.43 57.1779L97.8275 40.1579L81.9023 112.838L187.62 136.988C187.778 137.025 187.919 137.116 188.017 137.247C188.114 137.377 188.163 137.538 188.153 137.701L187.647 146.312C187.643 146.407 187.618 146.5 187.575 146.585C187.533 146.669 187.472 146.744 187.399 146.804L166.63 164.027C166.544 164.099 166.441 164.149 166.331 164.173C166.221 164.196 166.107 164.192 166 164.16L161.11 162.78L155.479 167.569C155.389 167.646 155.28 167.698 155.163 167.721C155.046 167.743 154.925 167.735 154.812 167.697L115.643 154.643L103.269 164.045C103.181 164.113 103.078 164.159 102.968 164.178C102.858 164.197 102.745 164.189 102.639 164.155L97.6021 162.504L94.1521 165.264C101.94 167.794 144.577 181.553 149.964 181.553C154.228 181.553 180.195 159.243 196.613 144.247C196.711 144.155 196.834 144.095 196.966 144.073C197.099 144.051 197.235 144.068 197.358 144.122C197.48 144.177 197.583 144.265 197.656 144.377C197.728 144.489 197.767 144.619 197.767 144.753V150.328C197.768 150.426 197.747 150.522 197.707 150.611C197.666 150.7 197.607 150.779 197.533 150.843L150.939 191.88C150.813 191.99 150.651 192.05 150.484 192.05ZM60.9723 132.862L160.792 161.239L177.913 146.616L78.6593 121.684L60.9723 132.862ZM73.2819 153.069L97.3353 160.958L106.499 153.64L81.2583 145.544L73.2819 153.069ZM126.182 104.958C128.664 105.249 131.178 105.117 133.616 104.567C136.013 104.06 138.281 103.063 140.275 101.638C142.269 100.213 143.947 98.3915 145.203 96.2871L128.73 84.1845L126.182 104.958ZM112.437 98.1639C115.829 101.527 120.136 103.818 124.82 104.751L127.507 82.8781C127.52 82.7662 127.559 82.6591 127.622 82.5653L127.659 82.5239C127.758 82.3987 127.898 82.3124 128.054 82.2801H128.123C128.204 82.2667 128.286 82.2667 128.367 82.2801L149.118 87.3401C149.28 87.3802 149.423 87.4777 149.519 87.6147C149.615 87.7516 149.659 87.9187 149.642 88.0853C149.221 90.8251 148.328 93.4711 147.002 95.9053L152.982 100.307C153.685 99.6221 155.709 97.2393 159.472 89.7275C160.832 87.0535 161.609 84.1218 161.753 81.1255C161.898 78.1292 161.406 75.1363 160.309 72.3441L146.813 82.0041C146.71 82.0788 146.588 82.1235 146.461 82.1333C146.334 82.143 146.207 82.1174 146.093 82.0593C145.98 82.0012 145.885 81.9129 145.819 81.8041C145.752 81.6953 145.718 81.5702 145.718 81.4429V73.5079L133.606 80.4999C133.484 80.5706 133.344 80.6024 133.203 80.5909C133.063 80.5794 132.929 80.5251 132.821 80.4355C132.712 80.3458 132.633 80.225 132.595 80.0893C132.557 79.9536 132.562 79.8096 132.608 79.6765L134.048 75.4721L129.057 78.4667C128.948 78.5324 128.823 78.5668 128.696 78.566C128.569 78.5652 128.444 78.5292 128.336 78.4621C128.228 78.395 128.141 78.2993 128.084 78.1857C128.027 78.072 128.002 77.9448 128.013 77.8181L129.471 59.8781C126.863 60.0759 117.994 61.2995 110.965 68.7423C103.936 76.1851 104.222 85.2011 104.47 87.7219L109.328 86.8387C109.453 86.8157 109.582 86.828 109.701 86.8743C109.819 86.9206 109.923 86.9991 109.999 87.1009L114.999 93.6513L124.163 84.4881C124.28 84.3719 124.435 84.3016 124.599 84.29C124.764 84.2783 124.927 84.3261 125.06 84.4246C125.192 84.5231 125.285 84.6658 125.321 84.8268C125.358 84.9879 125.335 85.1565 125.257 85.3023L118.164 98.4767C118.109 98.5775 118.03 98.663 117.933 98.7256C117.837 98.7882 117.727 98.826 117.612 98.8355C117.497 98.846 117.381 98.8266 117.275 98.779C117.17 98.7315 117.078 98.6574 117.01 98.5641L114.857 95.7443L112.437 98.1639ZM115.841 94.7599L117.456 96.8759L121.812 88.7799L115.841 94.7599ZM131.385 84.4375L145.898 95.1003C146.99 93.0402 147.765 90.8273 148.198 88.5361L131.385 84.4375ZM140.125 61.9297L136.555 72.3533L145.295 67.1093L140.125 61.9297Z" fill="#0019FF"/>
<path d="M167.205 107.957H167.099C166.92 107.93 166.759 107.833 166.65 107.688C166.542 107.542 166.495 107.36 166.52 107.18L167.371 101.577L165.434 102.355C165.35 102.388 165.26 102.405 165.169 102.404C165.078 102.403 164.989 102.385 164.905 102.349C164.822 102.313 164.746 102.261 164.682 102.196C164.619 102.132 164.569 102.055 164.535 101.971C164.501 101.886 164.484 101.796 164.485 101.705C164.486 101.615 164.505 101.525 164.541 101.441C164.576 101.358 164.628 101.282 164.693 101.219C164.758 101.155 164.835 101.105 164.919 101.071L167.61 99.9948L168.015 97.313L163.378 95.22C163.248 95.1618 163.138 95.0647 163.065 94.942C162.992 94.8194 162.958 94.6771 162.969 94.5346C162.979 94.3922 163.034 94.2566 163.126 94.1469C163.217 94.0372 163.341 93.9589 163.479 93.9228C163.516 93.9228 165.54 93.3754 168.719 92.6486L171.58 73.7288C171.587 73.6832 171.6 73.6384 171.617 73.5954C171.699 73.3654 173.705 67.9742 178.149 66.4194C180.508 65.5914 183.084 66.0146 185.794 67.6706C189.883 70.1684 191.7 74.8926 190.647 80.3022C189.497 86.227 185.32 90.9282 180.485 91.7378C176.525 92.3956 172.831 93.1592 169.938 93.8032L169.533 96.462L173.052 98.026C173.176 98.0791 173.282 98.1675 173.357 98.2804C173.432 98.3932 173.471 98.5255 173.471 98.6608C173.471 98.7961 173.432 98.9284 173.357 99.0413C173.282 99.1542 173.176 99.2426 173.052 99.2956L168.875 100.965L167.9 107.369C167.876 107.535 167.793 107.687 167.664 107.795C167.536 107.904 167.373 107.961 167.205 107.957ZM169.326 97.8742L169.096 99.383L171 98.6194L169.326 97.8742ZM165.761 94.783L168.231 95.8778L168.493 94.1298C167.44 94.3782 166.52 94.599 165.761 94.783ZM172.96 74.0094L170.2 92.3404C173.033 91.7148 176.543 91.0018 180.297 90.3762C184.575 89.6632 188.292 85.4128 189.336 80.04C190.256 75.2192 188.692 71.0332 185.118 68.8482C182.776 67.4176 180.596 67.0358 178.645 67.7212C175.002 69 173.162 73.439 172.96 74.0094Z" fill="#0019FF"/>
</svg>
