<svg width="230" height="230" viewBox="0 0 230 230" fill="none" xmlns="http://www.w3.org/2000/svg">
<path d="M77.9888 184.68C73.2462 184.68 69.5064 184.22 67.3444 183.153C58.701 178.834 53.7008 171.759 52.1644 169.353C50.0208 171.621 42.8402 178.36 34.7212 176.552C25.006 174.395 23.9388 169.956 23.9388 161.032C23.9388 159.242 23.8744 157.614 23.8008 156.133C23.0975 156.352 22.3753 156.506 21.6434 156.593C21.4604 156.615 21.276 156.564 21.1306 156.451C20.9852 156.337 20.8909 156.171 20.8683 155.988C20.8458 155.805 20.8968 155.62 21.0103 155.475C21.1237 155.329 21.2902 155.235 21.4732 155.213C22.2423 155.122 22.9994 154.949 23.7318 154.697C23.5386 150.99 23.442 148.529 24.615 147.291C24.8867 147.026 25.2107 146.82 25.5663 146.687C25.9219 146.554 26.3014 146.497 26.6804 146.519C28.2444 146.519 29.3668 147.687 29.4726 149.426C29.6152 151.657 28.1432 154.191 25.1578 155.608C25.2406 157.223 25.3188 159.021 25.3188 161.032C25.3188 169.574 26.1974 173.245 35.0202 175.204C43.728 177.136 51.6722 167.844 51.7504 167.757C51.8222 167.671 51.9137 167.604 52.0171 167.561C52.1205 167.519 52.2327 167.502 52.344 167.512C52.4554 167.523 52.5625 167.56 52.6562 167.621C52.75 167.682 52.8275 167.765 52.882 167.863C52.9326 167.955 58.0294 176.961 67.947 181.92C76.6364 186.263 114.826 179.381 135.346 175.683C138.621 175.089 141.455 174.579 143.806 174.174C160.527 171.308 161.713 158.313 161.152 148.786C160.931 144.968 155.223 131.504 147.279 116.034C144.261 110.169 141.358 104.866 138.792 100.486L129.454 106.466C130.452 108.633 131.726 111.204 133.157 114.093C136.634 121.108 141.4 130.718 146.096 142.342C146.989 144.454 147.667 146.65 148.12 148.897C148.21 149.046 148.241 149.223 148.208 149.394C148.778 152.931 148.383 155.834 147.021 158.221C143.06 165.08 131.501 166.754 116.84 168.87C112.599 169.486 108.211 170.117 103.602 170.926C74.6722 175.986 70.8496 169.956 61.6174 155.341L60.9136 154.233C53.0936 141.845 44.9654 114.852 40.4482 97.6527C37.334 97.8919 34.3532 98.1127 31.5656 98.352L53.1856 161.068C53.2418 161.229 53.2363 161.406 53.1703 161.563C53.1042 161.72 52.9822 161.847 52.8278 161.92C52.6735 161.993 52.4977 162.005 52.3344 161.956C52.1711 161.907 52.0319 161.799 51.9436 161.653C51.8654 161.524 43.9948 148.685 35.5446 143.713C33.5938 142.593 31.4326 141.888 29.1966 141.643C24.293 140.87 22.0988 139.913 21.3766 125.23L21.2662 122.98C20.3186 103.734 20.0334 97.9242 26.616 97.3768L29.6704 97.1237L26.2756 87.2798C26.1238 86.7922 22.6278 75.6831 24.776 71.3867C26.2204 68.5393 29.5232 65.8667 32.6604 65.0387C34.4084 64.5787 35.931 64.7259 37.0672 65.4987C38.4748 66.4187 39.7674 69.5467 41.2072 73.3601C42.4797 72.6043 43.8559 72.0387 45.292 71.6811C45.752 71.5477 46.143 71.4327 46.4282 71.3177C47.661 70.8255 54.8094 68.5578 56.7 70.3242C56.9384 70.5589 57.1006 70.8599 57.1654 71.1881C57.2302 71.5163 57.1947 71.8564 57.0634 72.1642C56.3688 74.2571 57.2842 77.9924 58.5078 79.6898C58.862 80.1819 59.2254 80.4717 59.483 80.4717C61.1022 80.4717 62.6294 77.8222 66.0058 69.1373C66.4922 67.9436 66.8021 66.6853 66.9258 65.4021C66.1576 65.5309 65.4676 65.6551 64.8512 65.7655C61.4472 66.3773 59.8924 66.6579 59.3312 64.9973C59.2346 64.7167 59.1472 64.3671 59.046 63.9577C58.4618 61.6117 57.7856 59.5279 56.0008 59.8177C55.0256 59.9833 53.5628 61.2897 52.1506 62.5501C49.6298 64.8087 46.4926 67.6101 44.1374 65.2595C43.0748 64.1969 42.8816 62.6789 43.6038 61.0873C45.0942 57.7983 50.2324 54.4817 55.9364 54.8635C61.1942 55.2177 65.1364 57.0623 67.0546 60.0707C67.7571 61.1804 68.1831 62.4424 68.2966 63.7507L69.6168 63.5575C74.6492 62.8353 76.1166 60.3375 77.676 57.7155C78.1877 56.7962 78.7722 55.9194 79.424 55.0935C82.23 51.7263 89.7832 49.6149 95.2296 53.9711C98.1874 56.3355 99.4892 59.6153 100.004 62.6007C103.882 62.1407 107.778 61.8326 110.713 62.0166C119.334 62.5548 126.657 68.5255 127.733 72.2423C128.98 76.617 122.172 78.8848 119.605 79.7404C118.455 80.1268 117.728 80.1452 117.167 79.8048C116.449 79.3447 116.316 78.4892 116.164 77.4818C116.063 76.7112 115.895 75.9509 115.663 75.2093C114.816 72.6701 110.216 72.6104 99.204 72.6104C97.8792 75.8304 95.3124 79.1975 92.1568 78.7467C91.7235 78.7077 91.3067 78.561 90.9444 78.32C90.5822 78.079 90.2858 77.7513 90.0822 77.3667C89.544 76.341 89.6222 74.8138 90.2616 72.8036C80.8638 73.2635 72.7816 74.4871 70.546 75.5957C69.626 76.0557 69.3592 77.0816 68.9544 78.8618C68.3932 81.3503 67.6204 84.7635 63.4344 87.3395C57.1324 91.2174 51.5342 91.3783 46.787 87.7995C44.4502 86.0469 42.4952 80.7431 40.6046 75.6187L40.577 75.5543C38.8152 77.3943 37.794 80.6143 39.1694 86.5943C39.7536 89.1381 40.5494 92.4088 41.5292 96.1394C63.9496 94.4144 103.211 91.6819 108.33 93.2551C109.393 93.5863 110.534 94.4098 111.725 95.638C120.865 88.1354 125.7 84.483 130.424 86.6311C131.215 86.99 132.264 88.0847 133.492 89.6533C133.867 88.3892 133.996 87.0653 133.874 85.7525C133.805 83.7791 133.732 81.7413 135.742 79.1562C139.422 74.4135 159.11 57.8903 170.182 49.8403C171.521 48.8651 172.942 47.8163 174.377 46.7353C185.698 38.3265 198.559 28.7401 205.289 34.0393C206.507 34.9517 207.486 36.1445 208.143 37.5164C208.801 38.8883 209.117 40.3987 209.066 41.9191C208.914 49.0215 201.927 57.8857 189.392 66.8833C176.765 75.9499 155.177 89.9754 139.965 99.7504C143.76 106.236 147.352 113.146 148.516 115.39C155.301 128.597 162.27 144.012 162.546 148.69C163.135 158.745 161.865 172.467 144.054 175.522C141.708 175.926 138.879 176.442 135.604 177.026C118.736 180.08 93.2056 184.68 77.9888 184.68ZM41.8604 97.5424C43.567 104.015 45.7382 111.71 48.1486 119.356C53.1396 135.17 57.9604 146.956 62.0912 153.497L62.7904 154.605C71.9352 169.072 75.3576 174.482 103.372 169.569C108.004 168.755 112.401 168.12 116.652 167.504C130.912 165.443 142.209 163.824 145.816 157.536C147.035 155.415 147.371 152.752 146.814 149.476C145.922 148.377 141.464 143.119 137.154 142.254C133.014 141.426 131.634 137.59 129.996 133.142C129.394 131.5 128.773 129.802 127.959 128.04C127.669 127.415 127.315 126.624 126.896 125.708C125.456 122.516 123.064 117.226 120.341 111.908C117.057 113.146 112.848 113.661 110.285 111.954C108.326 110.648 105.649 110.353 104.913 111.034C104.554 111.37 104.83 112.051 105.124 112.561C105.419 113.072 105.667 113.481 105.952 113.905C107.088 115.666 108.252 117.493 107.567 119.392C106.904 121.182 104.701 122.585 100.625 123.804C98.2656 124.512 96.2876 125.152 94.696 125.644C89.1254 127.429 87.037 128.1 85.9882 125.993C84.8014 123.62 86.7334 115.791 102.548 103.131C105.336 100.9 107.843 98.8396 110.055 97.018L110.64 96.558C109.886 95.7045 108.94 95.0423 107.88 94.626C103.473 93.2598 68.4024 95.5092 41.8604 97.5424ZM30.1534 98.4624C28.9804 98.5544 27.8534 98.651 26.7494 98.743C21.6894 99.1662 21.6894 103.343 22.6646 122.907L22.775 125.156C23.4604 139.338 25.4568 139.651 29.4404 140.299C31.8482 140.571 34.1746 141.333 36.276 142.54C41.8604 145.819 47.0584 152.2 50.1726 156.519L30.1534 98.4624ZM26.6804 147.899C26.4878 147.876 26.2927 147.897 26.109 147.959C25.9253 148.021 25.7576 148.123 25.6178 148.257C24.891 149.021 24.937 151.243 25.0796 154.109C27.3796 152.83 28.18 150.838 28.0972 149.509C28.088 149.131 27.9178 147.899 26.6804 147.899ZM121.597 111.361C123.805 115.708 126.013 120.45 128.133 125.161C128.547 126.081 128.902 126.863 129.191 127.488C130.024 129.296 130.686 131.099 131.266 132.691C132.871 137.079 134.026 140.249 137.402 140.925C140.779 141.601 144.137 144.559 146.142 146.666C145.766 145.384 145.324 144.121 144.818 142.885C140.139 131.306 135.388 121.725 131.938 114.728C130.502 111.825 129.27 109.341 128.294 107.244C125.626 108.946 123.869 110.073 123.331 110.432C122.781 110.783 122.206 111.094 121.611 111.361H121.597ZM111.555 97.5608L110.916 98.0806C108.703 99.9206 106.191 101.972 103.395 104.212C87.5108 116.918 86.577 124.14 87.198 125.372C87.6994 126.38 89.0748 125.984 94.2498 124.324C95.846 123.813 97.8332 123.174 100.23 122.461C103.753 121.403 105.787 120.202 106.27 118.896C106.753 117.589 105.81 116.177 104.793 114.627C104.499 114.167 104.195 113.707 103.924 113.224C102.893 111.421 103.51 110.432 103.974 110.004C105.428 108.624 108.869 109.323 111.049 110.777C113.096 112.157 116.767 111.697 119.702 110.639C117.057 105.592 114.168 100.634 111.569 97.5792L111.555 97.5608ZM112.618 96.6868C115.244 99.755 118.096 104.562 120.967 110.114C121.515 109.862 122.044 109.57 122.549 109.24C123.106 108.872 124.932 107.704 127.701 105.933C126.358 102.906 125.668 100.799 125.829 99.4928C126.137 97.0363 127.31 96.2957 128.672 95.4401C130.303 94.5184 131.654 93.172 132.582 91.5439C132.664 91.4059 132.743 91.268 132.816 91.13C131.496 89.3359 130.466 88.2182 129.812 87.91C125.861 86.1297 121.289 89.5935 112.631 96.7051L112.618 96.6868ZM133.695 92.3582C132.661 94.1238 131.183 95.5878 129.408 96.604C128.17 97.3813 127.425 97.8506 127.2 99.663C127.075 100.661 127.719 102.561 128.879 105.183L138.079 99.2858C136.469 96.5534 134.983 94.212 133.709 92.3766L133.695 92.3582ZM134.417 90.9781C135.921 93.0757 137.591 95.7253 139.252 98.5175C154.459 88.7794 176.001 74.7953 188.6 65.7793C200.777 57.0393 207.557 48.5615 207.704 41.9053C207.755 40.5978 207.485 39.2976 206.919 38.1181C206.352 36.9387 205.505 35.9158 204.452 35.1387C198.55 30.5019 185.592 40.1573 175.187 47.9129C173.733 48.9939 172.326 50.0473 170.978 51.0225C159.975 59.0265 140.448 75.4025 136.814 80.0716C135.116 82.2612 135.171 83.8895 135.24 85.7756C135.277 87.2659 135.342 88.9542 134.431 91.0104L134.417 90.9781ZM34.5096 66.1381C33.9968 66.145 33.4868 66.2161 32.9916 66.3498C30.2316 67.0765 27.2554 69.4961 26.0134 71.9801C24.4402 75.1357 26.6206 83.7654 27.5912 86.8243L31.0964 96.9857C33.4608 96.7925 36.5382 96.5488 40.0894 96.2727C39.1188 92.5467 38.3368 89.3405 37.7894 86.9301C36.1702 79.8967 37.748 76.2259 40.0296 74.1927C38.714 70.6599 37.3892 67.3479 36.2898 66.6166C35.7599 66.291 35.1449 66.1309 34.5234 66.1566L34.5096 66.1381ZM41.658 74.6436L41.8558 75.1817C43.5946 79.8922 45.5358 85.2281 47.5736 86.7369C51.8792 89.9569 56.8196 89.7867 62.6662 86.1895C66.3462 83.9171 67.0316 80.9548 67.5698 78.5766C67.9654 76.8194 68.3426 75.1541 69.8698 74.3813C72.5102 73.0657 81.3238 71.8698 90.7262 71.4235C90.97 70.8393 91.2506 70.2229 91.5772 69.5835C92.1967 68.1007 92.5097 66.5078 92.4972 64.9007C87.8604 65.4251 85.1004 65.5631 84.1022 64.8133C83.516 64.3405 83.1044 63.6855 82.9327 62.9522C82.7611 62.2189 82.8392 61.4492 83.1546 60.7653C83.4766 60.0247 84.875 57.6695 89.245 58.4653C90.0713 58.583 90.8561 58.9017 91.5306 59.3933C92.2051 59.8849 92.7487 60.5345 93.1136 61.2851C93.4302 61.9425 93.6472 62.6432 93.7576 63.3643L95.8414 63.1113L98.6014 62.7801C98.1184 60.0845 96.9454 57.1635 94.3326 55.0751C89.5992 51.2893 82.8326 53.1247 80.4452 55.9951C79.8421 56.7655 79.3006 57.5822 78.826 58.4377C77.2482 61.1057 75.4634 64.1279 69.7732 64.9421L68.2828 65.1629C68.1754 66.6971 67.8261 68.2045 67.2478 69.6295C63.6828 78.7927 62.0544 81.8425 59.4278 81.8425C58.6872 81.8425 57.9834 81.3825 57.3348 80.4855C55.8628 78.4478 54.8508 74.2617 55.7018 71.7179C55.803 71.4051 55.7294 71.3361 55.7018 71.3039C54.8094 70.4621 49.5792 71.5017 46.8882 72.5781C46.5386 72.7161 46.1154 72.8404 45.6232 72.9829C44.2239 73.3251 42.8894 73.8922 41.6718 74.6619L41.658 74.6436ZM99.6548 71.2395C111.339 71.2395 115.792 71.3638 116.932 74.7816C117.189 75.5964 117.374 76.4322 117.484 77.2793C117.576 77.8635 117.678 78.5305 117.848 78.6593C117.889 78.6593 118.147 78.7927 119.131 78.4661C122.618 77.3023 127.158 75.4347 126.362 72.6517C125.396 69.2753 118.354 63.9117 110.603 63.4241C107.774 63.2493 103.97 63.5713 100.165 63.9991C100.35 65.8259 100.316 67.6682 100.064 69.4869C99.9769 70.0863 99.8446 70.6783 99.6686 71.2579L99.6548 71.2395ZM91.706 72.7621C91.0344 74.6021 90.8688 76.0051 91.246 76.7504C91.3511 76.9381 91.5029 77.0956 91.6866 77.2076C91.8703 77.3196 92.0798 77.3824 92.2948 77.3898C94.0842 77.6427 95.6206 75.9131 96.375 74.8551C96.8692 74.1517 97.2958 73.4032 97.6492 72.6195C95.6804 72.6471 93.6748 72.6793 91.7198 72.7805L91.706 72.7621ZM93.8956 64.7259C93.9426 66.6036 93.5784 68.4687 92.8284 70.1907C92.6306 70.5909 92.442 70.9819 92.2764 71.3591C94.259 71.2809 96.2554 71.2395 98.2104 71.2395C98.4334 70.5997 98.5966 69.9407 98.698 69.2707C98.9352 67.5681 98.9692 65.8432 98.7992 64.1325L96.0392 64.4683L93.8956 64.7259ZM56.3642 58.4193C59.069 58.4193 59.9062 61.7727 60.3708 63.6311C60.4674 64.0083 60.5502 64.3349 60.6238 64.5511C60.7848 65.0111 61.5668 64.9421 64.5844 64.3993C65.2652 64.2751 66.038 64.1371 66.912 63.9945C66.8363 62.8634 66.4789 61.7691 65.8724 60.8113C64.2302 58.2215 60.5686 56.5563 55.8306 56.2435C50.881 55.9123 46.1706 58.7781 44.8458 61.6577C44.51 62.4029 44.28 63.4609 45.0988 64.2797C46.4328 65.6138 48.4752 63.9807 51.2168 61.5197C52.8498 60.0615 54.3908 58.6815 55.7616 58.4515C55.9614 58.4256 56.1628 58.4149 56.3642 58.4193ZM87.6442 59.6981C86.071 59.6981 84.921 60.2685 84.461 61.3265C84.268 61.7253 84.2135 62.1769 84.3059 62.6101C84.3984 63.0434 84.6327 63.4334 84.9716 63.7185C85.6064 64.1785 88.9138 63.9301 92.4282 63.5345C92.3393 62.971 92.1672 62.4238 91.9176 61.9107C91.6476 61.3526 91.2431 60.8704 90.7404 60.5075C90.2378 60.1445 89.6527 59.9123 89.038 59.8315C88.5756 59.7423 88.106 59.6961 87.635 59.6935L87.6442 59.6981Z" fill="#0019FF"/>
<path d="M197.621 57.2425C196.074 57.2645 194.549 56.8773 193.2 56.1201C192.207 55.4531 192.11 54.1605 192.28 52.9921C191.591 53.4281 190.795 53.6653 189.98 53.6775C189.422 53.7062 188.866 53.595 188.363 53.354C187.859 53.113 187.424 52.7498 187.096 52.2975C186.588 52.4632 186.052 52.5269 185.519 52.4851C184.986 52.4432 184.467 52.2967 183.991 52.0537C182.68 51.2717 182.091 49.2063 182.183 45.7471C182.232 44.1914 182.386 42.6408 182.643 41.1057C182.654 41.0126 182.684 40.9227 182.731 40.8416C182.779 40.7605 182.842 40.6898 182.917 40.6339C182.992 40.578 183.078 40.5381 183.17 40.5165C183.261 40.495 183.356 40.4922 183.448 40.5085C183.54 40.5248 183.628 40.5598 183.707 40.6112C183.785 40.6627 183.852 40.7296 183.904 40.8079C183.956 40.8862 183.991 40.9742 184.007 41.0665C184.024 41.1589 184.021 41.2536 184 41.3449C183.398 44.7627 183.218 49.9837 184.699 50.8715C185.259 51.1371 185.897 51.191 186.493 51.0233C186.299 50.3336 186.206 49.6192 186.217 48.9027C186.217 46.9799 187.211 45.1813 188.517 44.7167C189.115 44.5097 190.298 44.3855 191.521 45.9127C192.414 47.0259 192.23 48.5117 191.029 49.8825C190.309 50.6808 189.439 51.3282 188.467 51.7869C188.878 52.1492 189.414 52.3372 189.962 52.3113C191.632 52.3113 192.979 50.5541 192.993 50.5357C193.094 50.4003 193.241 50.3067 193.407 50.2726C193.573 50.2385 193.745 50.2664 193.891 50.3509C194.038 50.4354 194.148 50.5707 194.201 50.7311C194.254 50.8915 194.247 51.0659 194.18 51.2211C193.651 52.4585 193.209 54.5055 193.927 54.9839C195.105 55.7705 199.737 56.9297 201.894 53.8799C202.001 53.735 202.161 53.6379 202.339 53.6093C202.517 53.5807 202.699 53.6229 202.847 53.7269C202.994 53.8309 203.095 53.9884 203.127 54.1658C203.16 54.3431 203.122 54.5261 203.021 54.6757C201.706 56.6169 199.585 57.2425 197.621 57.2425ZM189.286 46.0001C189.198 46.0004 189.111 46.0144 189.028 46.0415C188.274 46.3083 187.648 47.6285 187.648 48.9257C187.635 49.4952 187.704 50.0636 187.85 50.6139C188.69 50.2337 189.442 49.684 190.058 48.9993C190.587 48.3921 191.093 47.5227 190.518 46.7959C190.38 46.5841 190.199 46.4037 189.987 46.2666C189.774 46.1295 189.535 46.0387 189.286 46.0001Z" fill="#0019FF"/>
</svg>
