<svg width="230" height="230" viewBox="0 0 230 230" fill="none" xmlns="http://www.w3.org/2000/svg">
<path d="M42.9647 190.373C35.0665 190.373 30.3975 189.742 28.8703 188.491C23.3503 183.983 20.1303 169.631 22.0577 163.274C23.9575 157.101 26.0551 157.105 39.6757 157.133H42.9601H48.5169C63.5497 157.179 82.2579 157.234 85.8459 154.447C88.6611 152.257 90.2665 134.354 90.7127 121.994C85.5791 124.068 65.0493 125.991 58.6047 126.557C44.5057 127.785 29.0313 128.636 26.7359 127.868C25.8803 127.583 23.2767 126.713 25.3835 110.296C26.4737 101.804 28.6035 91.6381 30.5309 85.5707C34.5421 73.0403 56.0931 67.1385 74.9255 65.7907C89.5811 64.7465 104.168 66.8165 112.006 67.9251C114.83 68.3253 116.873 68.6151 117.816 68.6151C118.021 68.6309 118.228 68.6025 118.421 68.5319C118.615 68.4613 118.791 68.3501 118.938 68.2057C119.923 67.1799 119.785 64.1439 119.624 60.6295C119.555 59.1207 119.476 57.4095 119.476 55.6523C119.476 54.0423 119.131 52.9659 118.386 52.2713C116.233 50.2611 110.106 50.6797 98.9421 51.4433C95.9245 51.6503 92.5021 51.9033 88.6657 52.1057C64.7227 53.4857 54.7545 60.3857 54.6579 60.4501C54.5569 60.5222 54.4385 60.5657 54.3149 60.5762C54.1913 60.5866 54.0672 60.5635 53.9557 60.5094C53.8441 60.4552 53.7492 60.372 53.6809 60.2685C53.6126 60.165 53.5735 60.045 53.5677 59.9211C53.5677 59.4611 53.1077 48.7201 57.1005 45.2471C60.7345 42.0685 112.76 39.0325 126.008 40.0767C128.768 40.2929 129.619 40.6241 129.997 40.9645C138.921 45.6013 212.93 83.8963 215.281 86.2515C216.812 87.7833 216.927 101.662 215.699 137.459C215.575 141.139 215.483 143.825 215.483 144.644C215.483 149.492 211.214 150.026 199.811 151.452C188.61 152.832 132.057 154.732 131.487 154.75C131.394 154.754 131.301 154.739 131.214 154.706C131.127 154.672 131.048 154.622 130.981 154.557C130.914 154.493 130.862 154.415 130.826 154.33C130.79 154.245 130.773 154.153 130.774 154.06C130.958 110.793 130.65 45.3943 129.035 41.9765C127.793 41.1071 114.991 40.8265 93.6475 42.0823C71.9493 43.3611 59.2947 45.1689 58.0021 46.3005C55.2421 48.7201 54.9339 55.8179 54.9247 58.6699C58.0895 56.8299 68.3613 51.9079 88.5829 50.7395C92.4147 50.5187 95.8325 50.2795 98.8455 50.0817C110.755 49.2675 116.735 48.8581 119.325 51.2777C120.369 52.2529 120.852 53.6467 120.852 55.6661C120.852 57.3957 120.93 59.0885 120.999 60.5835C121.188 64.7235 121.321 67.7181 119.932 69.1763C119.656 69.4555 119.325 69.6737 118.96 69.8171C118.594 69.9605 118.203 70.0259 117.811 70.0089C115.8 69.8755 113.796 69.6406 111.808 69.3051C110.479 69.1165 108.956 68.9003 107.273 68.6795L107.397 68.7669C107.654 68.927 107.862 69.1554 107.997 69.4268C108.132 69.6981 108.188 70.0016 108.16 70.3033C107.967 71.9225 105.212 73.2105 100.695 75.1425C98.8823 75.9199 96.2189 77.0607 95.6071 77.6955C96.7801 78.2797 101.127 78.0957 105.364 77.9163C113.92 77.5575 122.77 77.1803 124.109 80.8511C125.116 83.6111 125.889 100.208 126.183 114.431C126.326 121.442 126.68 144.506 125.194 147.146C125.132 147.278 125.04 147.394 124.926 147.485C124.812 147.576 124.679 147.639 124.536 147.671C123.89 147.748 123.235 147.726 122.595 147.606C119.578 147.238 115.019 146.686 112.839 157.956C112.029 162.138 112.084 166.094 112.135 169.585C112.254 178.132 112.351 184.885 99.0525 186.288C73.1867 189.016 54.5843 190.373 42.9647 190.373ZM37.5919 158.508C25.8941 158.508 24.8545 158.872 23.3733 163.679C21.6161 169.392 24.7855 183.367 29.7443 187.424C32.0995 189.351 46.0007 190.488 98.9007 184.922C110.948 183.657 110.861 178.371 110.75 169.613C110.7 166.057 110.64 162.027 111.477 157.703C113.906 145.159 119.665 145.868 122.756 146.249C123.186 146.314 123.619 146.348 124.053 146.351C125.714 142.284 124.684 86.4861 122.807 81.3295C121.818 78.6063 111.946 79.0295 105.414 79.3009C99.7655 79.5401 96.2143 79.6505 94.8665 78.8685C94.643 78.7683 94.4541 78.6045 94.3232 78.3975C94.1923 78.1905 94.1253 77.9496 94.1305 77.7047C94.1995 76.4811 96.2419 75.5519 100.147 73.8821C102.447 72.9023 106.675 71.0853 106.785 70.1423C106.785 70.0871 106.707 69.9813 106.564 69.8755C105.879 69.3649 104.885 69.2867 103.602 69.6455C99.4619 70.8047 93.8729 76.1591 92.5619 79.4665C91.3797 82.4197 91.7753 98.3265 92.0375 108.907C92.1893 115.002 92.2997 119.431 92.1387 120.701C92.1387 122.219 92.4055 123.797 92.7045 124.197C93.3945 123.663 95.7359 120.085 97.4655 117.449C99.0111 115.089 100.147 113.382 100.998 112.209C100.555 111.31 100.424 110.289 100.626 109.307C100.74 108.71 101.065 108.174 101.541 107.797C102.017 107.419 102.613 107.225 103.22 107.251C103.761 107.214 104.303 107.322 104.788 107.565C105.273 107.808 105.685 108.176 105.98 108.631C106.269 109.14 106.437 109.709 106.471 110.294C106.504 110.879 106.403 111.463 106.173 112.002C105.805 112.734 96.2695 126.262 94.6411 127.334C94.2271 127.61 94.2455 128.346 94.3145 129.275C94.3835 130.205 94.4571 131.198 93.6245 131.617C93.2953 131.752 92.9423 131.819 92.5867 131.814C92.231 131.809 91.8799 131.733 91.5545 131.589C90.8737 141.047 89.4661 153.379 86.6785 155.551C82.7133 158.637 64.5295 158.582 48.4985 158.531H42.9463H37.5919V158.508ZM130.641 42.8597C131.179 46.5397 131.85 58.3433 132.108 98.8555C132.264 123.847 132.186 148.839 132.168 153.347C138.796 153.126 189.208 151.388 199.654 150.081C211.357 148.618 214.117 148.14 214.117 144.644C214.117 143.802 214.209 141.12 214.333 137.408C214.742 125.559 215.98 89.4899 214.305 87.2083C212.521 85.5155 163.82 60.0315 130.641 42.8597ZM91.6741 130.126C92.0614 130.362 92.5175 130.457 92.9667 130.398C93.0079 130.059 93.0079 129.716 92.9667 129.377C92.8931 128.342 92.7873 126.925 93.8867 126.18C94.8067 125.572 100.327 118.056 103.238 113.939C102.959 113.924 102.686 113.849 102.438 113.718C102.233 113.617 102.041 113.491 101.868 113.341C100.879 114.721 99.6367 116.625 98.6155 118.189C95.3403 123.18 93.9235 125.246 93.0955 125.526C92.9084 125.593 92.7078 125.613 92.5113 125.584C92.3149 125.555 92.1285 125.478 91.9685 125.361C91.8765 126.75 91.7891 128.374 91.6741 130.126ZM83.3159 66.8993C80.5835 66.8993 77.7959 66.9821 75.0359 67.1845C56.6359 68.4955 35.6599 74.1305 31.8603 86.0077C29.9421 91.9877 27.8491 102.066 26.7681 110.484C25.2179 122.559 26.3081 126.276 27.1821 126.584C29.0221 127.201 43.5765 126.538 59.6029 125.108C79.5485 123.328 89.6869 121.46 90.7909 120.448C90.9289 119.192 90.7909 114.427 90.6713 108.948C90.3079 94.3107 90.1055 81.9505 91.2923 78.9789C92.7689 75.2989 98.5787 69.6501 103.252 68.3391L103.629 68.2425C96.8903 67.3987 90.1075 66.9502 83.3159 66.8993ZM102.696 112.242C102.802 112.349 102.925 112.439 103.059 112.508C103.321 112.642 103.363 112.577 103.404 112.508C103.487 112.342 103.532 112.159 103.536 111.973C103.54 111.787 103.503 111.602 103.427 111.432C103.151 111.671 102.906 111.943 102.696 112.242ZM103.455 110.043C103.678 110.044 103.897 110.103 104.092 110.212C104.287 110.321 104.45 110.478 104.568 110.668C104.732 110.933 104.84 111.229 104.885 111.538C104.913 111.483 104.94 111.441 104.959 111.404C105.082 111.076 105.134 110.725 105.111 110.376C105.088 110.026 104.991 109.685 104.825 109.376C104.65 109.119 104.407 108.915 104.125 108.784C103.842 108.654 103.53 108.602 103.22 108.635C102.924 108.609 102.629 108.697 102.396 108.882C102.163 109.067 102.01 109.334 101.969 109.629C101.878 110.061 101.891 110.509 102.006 110.935C102.266 110.584 102.609 110.302 103.004 110.116C103.148 110.06 103.3 110.027 103.455 110.02V110.043Z" fill="#0019FF"/>
<path d="M42.9585 158.516C42.8409 158.517 42.7251 158.487 42.6227 158.429C42.467 158.341 42.3517 158.196 42.301 158.024C42.2504 157.852 42.2684 157.668 42.3513 157.509C42.3881 157.445 45.7461 151.239 42.1351 149.096C40.7229 148.258 38.8645 147.743 37.0751 147.256C33.5607 146.276 29.9267 145.259 29.5725 141.763C29.5266 141.349 29.5697 140.929 29.699 140.532C29.8283 140.136 30.0408 139.771 30.3223 139.463C32.9121 136.533 42.0293 136.331 54.6471 136.05L57.0805 135.995C60.0889 135.926 62.8811 135.829 65.3605 135.742C74.7123 135.411 79.8643 135.231 81.6215 136.924C81.8335 137.124 82.0014 137.366 82.1147 137.634C82.2279 137.903 82.284 138.192 82.2793 138.483C82.2793 143.263 77.3711 144.992 73.4289 146.382C71.1979 147.168 68.8887 147.978 68.6035 149.068C68.0837 151.06 70.0893 155.614 70.9035 157.196C70.9877 157.359 71.0037 157.549 70.9481 157.723C70.8925 157.898 70.7697 158.044 70.6068 158.128C70.444 158.212 70.2543 158.228 70.0796 158.172C69.9049 158.117 69.7595 157.994 69.6753 157.831C69.3533 157.196 66.5197 151.575 67.2695 148.718C67.7295 146.92 70.1629 146.069 72.9689 145.08C76.6857 143.769 80.8993 142.283 80.8993 138.483C80.9032 138.377 80.8838 138.272 80.8424 138.174C80.8011 138.076 80.7389 137.989 80.6601 137.918C79.3261 136.63 73.4887 136.837 65.4111 137.122C62.9409 137.209 60.1395 137.306 57.1311 137.375L54.7023 137.43C43.3633 137.683 33.5699 137.89 31.3803 140.374C31.2224 140.542 31.1038 140.743 31.033 140.963C30.9622 141.182 30.941 141.415 30.9709 141.644C31.2285 144.201 34.1219 145.011 37.4707 145.945C39.3567 146.469 41.3071 147.012 42.8757 147.941C44.8859 149.132 45.6357 151.327 45.0239 154.284C44.7287 155.651 44.2489 156.971 43.5979 158.208C43.5296 158.313 43.4339 158.397 43.3212 158.452C43.2085 158.506 43.0831 158.528 42.9585 158.516Z" fill="#0019FF"/>
<path d="M30.2776 180.32C27.559 180.32 25.1164 180.09 24.1458 179.989C24.0552 179.979 23.9673 179.952 23.8872 179.909C23.8071 179.865 23.7362 179.807 23.6788 179.736C23.6213 179.665 23.5784 179.584 23.5523 179.497C23.5263 179.409 23.5177 179.318 23.5271 179.227C23.5365 179.137 23.5636 179.049 23.6069 178.969C23.6502 178.889 23.7089 178.818 23.7796 178.76C23.8503 178.703 23.9316 178.66 24.0189 178.634C24.1062 178.608 24.1978 178.599 24.2884 178.609C30.2684 179.239 38.9026 179.004 39.4684 176.497C39.7306 175.324 39.4684 173.788 38.8566 172.228C36.559 173.054 34.1443 173.508 31.7036 173.572C27.9224 173.765 26.3492 172.555 25.7006 171.511C24.9876 170.365 25.0382 168.889 25.834 167.454C26.3748 166.501 27.1512 165.703 28.0888 165.137C29.0263 164.571 30.0937 164.255 31.1884 164.22C33.5298 164.22 36.0092 165.637 37.9918 168.107C38.5766 168.834 39.0896 169.617 39.5236 170.444C41.3636 169.459 41.8236 168.443 41.8236 168.424C41.8756 168.299 41.9627 168.191 42.0745 168.113C42.1862 168.036 42.3179 167.992 42.4538 167.987L73.0576 167.527C73.1876 167.524 73.3157 167.558 73.4266 167.626C73.5376 167.694 73.6267 167.792 73.6832 167.909C74.5576 169.431 75.805 170.705 77.308 171.612C78.688 168.852 83.288 166.833 86.6184 165.361L86.9082 165.232C90.1282 163.806 93.2332 163.741 94.8478 165.062C95.5654 165.646 96.3244 166.777 95.8644 168.834C94.8018 173.636 87.6902 175.508 81.4342 174.547C80.3595 174.386 79.3088 174.092 78.3062 173.673C78.3295 173.816 78.368 173.956 78.4212 174.091C78.8812 175.366 83.9642 176.189 90.7492 175.389C96.7292 174.685 99.5858 173.199 99.687 172.366C100.147 168.659 101.067 156.515 101.095 156.395C101.103 156.302 101.129 156.211 101.172 156.128C101.216 156.045 101.275 155.972 101.348 155.912C101.42 155.853 101.504 155.809 101.594 155.783C101.684 155.756 101.779 155.749 101.872 155.76C101.9 155.76 105.244 156.138 106.858 153.709C107.249 153.129 107.705 152.278 108.238 151.294C110.341 147.416 113.216 142.094 117.319 142.094C122.379 142.094 124.881 146.496 124.987 146.694C125.076 146.854 125.098 147.043 125.047 147.22C124.997 147.396 124.878 147.545 124.718 147.634C124.557 147.724 124.368 147.745 124.192 147.695C124.015 147.644 123.866 147.526 123.777 147.365C123.777 147.329 121.551 143.483 117.337 143.483C114.057 143.483 111.297 148.58 109.471 151.952C108.924 152.964 108.45 153.842 108.027 154.477C106.44 156.855 103.73 157.168 102.438 157.168C102.235 159.781 101.481 169.307 101.058 172.537C100.708 175.297 93.845 176.414 90.9102 176.759C86.3102 177.302 78.205 177.454 77.1102 174.579C76.9093 174.069 76.8305 173.519 76.8802 172.974C75.1593 171.985 73.7064 170.591 72.6482 168.912L42.8586 169.372C42.1451 170.377 41.183 171.181 40.0664 171.704C40.8162 173.544 41.0922 175.384 40.7656 176.838C40.1676 179.69 34.827 180.32 30.2776 180.32ZM78.55 172.233C79.5432 172.679 80.5923 172.989 81.6688 173.153C88.7436 174.239 93.8588 171.584 94.5488 168.502C94.7926 167.403 94.6086 166.593 94.0014 166.097C92.8238 165.131 90.1466 165.282 87.497 166.46L87.2072 166.589C84.0654 167.983 79.6494 169.942 78.55 172.233ZM31.1884 165.6C30.3372 165.634 29.509 165.887 28.7839 166.334C28.0588 166.781 27.4611 167.407 27.0484 168.153C26.501 169.137 26.4366 170.108 26.8782 170.812C27.5176 171.847 29.215 172.343 31.6392 172.224C33.9016 172.168 36.1413 171.758 38.277 171.009C37.8889 170.292 37.4378 169.61 36.9292 168.972C35.195 166.805 33.1204 165.6 31.1884 165.6Z" fill="#0019FF"/>
<path d="M55.2003 196.651C46.3545 196.651 43.8291 190.358 43.7279 190.087C43.662 189.916 43.6667 189.726 43.7409 189.559C43.8151 189.392 43.9527 189.261 44.1235 189.195C44.2943 189.129 44.4843 189.133 44.6516 189.208C44.819 189.282 44.95 189.419 45.0159 189.59C45.1079 189.834 47.3159 195.271 55.2003 195.271C60.9503 195.271 66.7509 192.281 66.7509 185.611C66.7509 180.501 66.7233 180.496 65.3709 180.16C63.5309 179.7 54.3309 179.263 52.1413 180.133C51.2213 180.496 51.9343 184.806 53.5995 189.181C53.6562 189.35 53.6454 189.534 53.5694 189.695C53.4934 189.856 53.3581 189.982 53.1917 190.045C53.0253 190.109 52.8408 190.105 52.6768 190.036C52.5127 189.967 52.3818 189.837 52.3115 189.673C51.4513 187.414 48.8615 179.958 51.6307 178.854C54.2435 177.805 63.9311 178.394 65.7067 178.822C68.1125 179.424 68.1125 180.367 68.1125 185.611C68.1309 191.104 64.1335 196.651 55.2003 196.651Z" fill="#0019FF"/>
<path d="M53.8214 177.144C49.8562 177.144 46.4614 176.914 45.7484 176.201C44.3408 174.793 42.2478 169.908 41.8706 169.007C41.245 168.211 38.8714 165.078 39.1106 163.404C39.1348 163.208 39.2007 163.02 39.3038 162.851C39.407 162.683 39.545 162.539 39.7086 162.429C40.9 161.637 54.4286 161.099 57.1196 161.003C60.9422 160.86 73.5876 160.464 75.8324 161.233C75.9877 161.274 76.1314 161.35 76.2519 161.457C76.3725 161.563 76.4667 161.696 76.527 161.844C76.987 163.224 74.25 168.859 72.6768 171.569C70.064 176.072 68.868 176.311 68.477 176.39C67.5524 176.583 60.0084 177.144 53.8214 177.144ZM40.4814 163.588C40.256 164.048 41.4658 166.311 42.9976 168.22C43.0368 168.271 43.0693 168.327 43.0942 168.386C43.7336 169.922 45.6334 174.145 46.7098 175.226C46.7972 175.286 47.984 175.948 57.1242 175.727C62.1152 175.603 67.0924 175.267 68.2148 175.037C69.8938 174.701 74.9998 164.719 75.216 162.484C73.8958 162.162 68.155 161.996 57.8786 162.355C48.26 162.695 41.4382 163.252 40.5136 163.588H40.4814Z" fill="#0019FF"/>
<path d="M22.246 125.582C21.556 125.582 20.9028 125.085 20.2496 124.064C18.1842 120.844 15.8198 111.184 18.3222 105.77C19.164 103.953 20.2772 102.968 21.6434 102.844C24.4356 102.596 27.0301 106.271 27.1635 106.427C27.2562 106.581 27.2859 106.764 27.2462 106.938C27.2065 107.113 27.1006 107.265 26.9508 107.363C26.801 107.461 26.619 107.496 26.4433 107.463C26.2675 107.429 26.1117 107.328 26.0089 107.182C25.3925 106.299 23.4283 104.035 21.763 104.187C20.9304 104.265 20.1944 104.978 19.5734 106.317C17.5172 110.774 19.1456 119.386 21.2478 123.015C21.7768 123.935 22.1678 124.16 22.246 124.17C22.3242 124.179 22.4346 124.064 22.5956 123.774C23.2212 122.661 23.488 120.402 23.5156 118.332C22.8295 118.208 22.2037 117.86 21.7354 117.343C20.498 116.106 20.705 114.767 21.3076 113.93C21.9792 113.01 23.1477 112.55 23.9481 112.941C24.5323 113.235 24.8083 114.615 24.8681 116.29C24.9836 116.163 25.1422 116.084 25.3129 116.068C25.4836 116.052 25.6542 116.1 25.7915 116.203C25.9287 116.305 26.0228 116.456 26.0553 116.624C26.0878 116.792 26.0565 116.967 25.9675 117.113C25.6907 117.522 25.3179 117.857 24.8819 118.088C24.8577 119.634 24.6929 121.173 24.3897 122.688C24.2609 123.42 23.7549 125.582 22.246 125.582ZM23.2488 114.211C23.0686 114.257 22.8993 114.338 22.7508 114.45C22.6024 114.563 22.4777 114.703 22.384 114.864C22.0896 115.356 22.2046 115.871 22.7336 116.4C22.9567 116.643 23.232 116.832 23.5386 116.952C23.5516 116.024 23.4543 115.098 23.2488 114.192V114.211Z" fill="#0019FF"/>
<path d="M48.2636 126.991C48.1481 126.99 48.0346 126.962 47.9324 126.908C47.7775 126.819 47.6629 126.674 47.6124 126.503C47.5618 126.331 47.5792 126.147 47.661 125.988C47.6978 125.924 51.341 119.309 55.0762 112.841C62.9468 99.2806 63.6322 99.5014 64.3636 99.7544C64.8834 99.9246 65.0904 100.44 64.98 101.272C64.7454 103.025 63.14 106.848 61.8474 109.585C58.9172 115.776 58.1214 115.822 57.7396 115.845C57.5496 115.853 57.3627 115.795 57.2097 115.682C57.0567 115.569 56.9467 115.408 56.8978 115.224C56.355 115.376 54.9658 116.535 53.8296 117.814C53.812 117.836 53.7919 117.856 53.7698 117.874C52.1414 120.735 50.4716 123.73 48.8708 126.651C48.8085 126.756 48.7195 126.843 48.6129 126.902C48.5063 126.962 48.3858 126.993 48.2636 126.991ZM63.4068 102.018C61.9256 103.991 59.0966 108.623 55.8812 114.18C56.3031 113.894 56.8165 113.776 57.321 113.849C57.5093 113.894 57.6834 113.986 57.827 114.116C59.2484 112.239 62.5144 105.077 63.4068 102.018Z" fill="#0019FF"/>
<path d="M58.1479 126.523C58.0318 126.523 57.9177 126.493 57.8167 126.436C57.661 126.348 57.5456 126.203 57.495 126.031C57.4444 125.859 57.4624 125.675 57.5453 125.516C57.5821 125.447 61.2253 118.837 64.9651 112.365C72.8311 98.8084 73.5165 99.0246 74.2479 99.2776C74.7677 99.4524 74.9747 99.963 74.8643 100.8C74.6297 102.553 73.0243 106.371 71.7363 109.112C68.8015 115.304 68.0057 115.35 67.6239 115.368C67.4351 115.376 67.2494 115.319 67.0973 115.207C66.9451 115.095 66.8356 114.935 66.7867 114.752C66.2393 114.904 64.8547 116.063 63.7185 117.342L63.6541 117.402C62.0257 120.263 60.3559 123.257 58.7551 126.178C58.6937 126.285 58.6051 126.373 58.4984 126.433C58.3916 126.494 58.2707 126.525 58.1479 126.523ZM73.2957 101.545C71.8145 103.5 68.9993 108.156 65.7793 113.708C66.2025 113.425 66.7148 113.307 67.2191 113.377C67.4064 113.425 67.5797 113.516 67.7251 113.643C69.1327 111.78 72.4033 104.609 73.2957 101.545Z" fill="#0019FF"/>
<path d="M99.0055 132.205C98.1884 132.213 97.3909 131.954 96.7331 131.469C95.3255 130.416 94.8932 128.47 95.4866 126.124C95.485 126.113 95.485 126.103 95.4866 126.092C96.3054 123.028 99.9531 122.269 103.486 121.533C105.952 121.018 108.5 120.489 109.783 119.206C111.927 117.062 113.841 100.861 111.909 90.6168C111.127 86.4768 109.811 83.8778 108.114 83.1326C107.03 82.6172 105.828 82.4001 104.632 82.5036C103.436 82.6071 102.29 83.0275 101.31 83.7214C97.4646 86.3434 95.1554 92.696 95.436 99.9042C95.896 112.163 92.216 120.572 92.078 120.926C92.0011 121.089 91.8633 121.216 91.6941 121.279C91.525 121.342 91.3379 121.336 91.173 121.263C91.0081 121.189 90.8786 121.054 90.8121 120.886C90.7457 120.719 90.7476 120.531 90.8176 120.365C90.8544 120.282 94.4975 111.878 94.0375 99.9548C93.7385 92.167 96.2179 85.5062 100.514 82.5806C101.687 81.7503 103.059 81.2475 104.49 81.1238C105.921 81.0001 107.359 81.26 108.656 81.8768C110.823 82.8244 112.369 85.6856 113.256 90.3684C115.225 100.801 113.39 117.55 110.749 120.19C109.176 121.763 106.421 122.338 103.757 122.89C100.965 123.475 98.3017 124.027 97.2161 125.581C99.5805 125.756 101.637 127.302 102.18 128.875C102.378 129.369 102.388 129.92 102.208 130.421C102.027 130.922 101.668 131.34 101.2 131.594C100.537 131.991 99.7787 132.203 99.0055 132.205ZM96.7055 126.934C96.3927 128.512 96.7055 129.721 97.5473 130.37C97.9824 130.664 98.4941 130.823 99.0191 130.829C99.5441 130.835 100.059 130.686 100.501 130.402C100.598 130.357 100.685 130.293 100.757 130.213C100.829 130.134 100.885 130.041 100.921 129.94C100.957 129.839 100.972 129.732 100.966 129.625C100.961 129.518 100.934 129.413 100.887 129.317C100.519 128.226 98.8031 126.883 96.7148 126.934H96.7055Z" fill="#0019FF"/>
<path d="M105.207 120.092C103.591 120.061 101.982 119.867 100.405 119.512C100.226 119.472 100.071 119.362 99.9727 119.207C99.8748 119.052 99.8424 118.865 99.8827 118.686C99.9229 118.508 100.033 118.352 100.187 118.254C100.342 118.156 100.53 118.124 100.708 118.164C102.783 118.624 106.546 119.084 107.82 118.219C107.916 118.164 107.999 118.089 108.062 117.998C108.126 117.908 108.169 117.804 108.188 117.695C108.887 113.509 109.159 100.27 105.828 99.1616C103.579 98.4118 101.362 98.4486 99.8896 99.2536C99.615 99.379 99.3689 99.5592 99.1664 99.783C98.9639 100.007 98.8093 100.27 98.712 100.555C98.3808 101.871 98.5418 111.595 98.712 117.787C98.7174 117.97 98.65 118.148 98.5245 118.281C98.399 118.414 98.2257 118.492 98.0427 118.498C97.8597 118.503 97.682 118.436 97.5487 118.31C97.4154 118.185 97.3374 118.011 97.332 117.828C97.286 116.228 96.872 102.142 97.355 100.22C97.4958 99.75 97.7319 99.3145 98.0484 98.9402C98.365 98.5658 98.7553 98.2607 99.195 98.0438C101.035 97.041 103.588 96.972 106.228 97.8506C111.647 99.6584 109.55 117.741 109.517 117.92C109.467 118.216 109.355 118.497 109.19 118.747C109.024 118.996 108.808 119.208 108.556 119.369C107.769 119.917 106.504 120.092 105.207 120.092Z" fill="#0019FF"/>
<path d="M105.105 196.313C101.977 196.313 100.183 195.627 99.268 192.881C97.819 188.529 98.2836 185.608 98.302 185.489C98.3168 185.398 98.3493 185.311 98.3977 185.233C98.446 185.155 98.5093 185.088 98.5838 185.034C98.6584 184.98 98.7427 184.942 98.8321 184.921C98.9215 184.9 99.0141 184.897 99.1047 184.912C99.1953 184.926 99.2822 184.959 99.3602 185.007C99.4383 185.056 99.506 185.119 99.5596 185.193C99.6132 185.268 99.6516 185.352 99.6726 185.442C99.6936 185.531 99.6968 185.624 99.682 185.714C99.682 185.742 99.2634 188.447 100.602 192.444C101.522 195.181 103.362 195.163 109.613 194.68C111.173 194.56 112.939 194.427 114.977 194.33C123.795 193.907 123.758 180.889 123.717 174.633V157.926C123.717 152.102 124.177 146.062 124.177 146.002C124.184 145.912 124.209 145.823 124.25 145.742C124.291 145.661 124.348 145.589 124.417 145.53C124.486 145.471 124.565 145.426 124.652 145.398C124.738 145.369 124.829 145.358 124.92 145.365C125.011 145.372 125.099 145.397 125.18 145.438C125.261 145.479 125.333 145.536 125.392 145.605C125.452 145.674 125.497 145.754 125.525 145.84C125.553 145.926 125.564 146.018 125.557 146.108C125.557 146.168 125.097 152.157 125.097 157.926V174.633C125.097 181.317 125.157 195.222 115.023 195.705C113.004 195.802 111.246 195.935 109.696 196.055C107.916 196.193 106.398 196.313 105.105 196.313Z" fill="#0019FF"/>
<path d="M117.595 184.393C116.983 184.368 116.384 184.208 115.842 183.924C115.299 183.64 114.826 183.24 114.457 182.751C113.027 181.031 112.548 175.543 112.709 170.869C112.792 168.569 113.257 160.938 115.929 158.283C116.278 157.888 116.723 157.59 117.221 157.416C117.719 157.243 118.253 157.201 118.772 157.295C122.048 157.916 124.752 163.932 125.051 164.613C125.088 164.696 125.107 164.786 125.109 164.876C125.11 164.967 125.094 165.057 125.061 165.141C125.028 165.226 124.979 165.303 124.916 165.368C124.853 165.433 124.778 165.485 124.695 165.522C124.612 165.558 124.522 165.577 124.432 165.579C124.341 165.581 124.251 165.565 124.167 165.532C124.082 165.498 124.005 165.449 123.94 165.386C123.875 165.323 123.823 165.248 123.786 165.165C123.055 163.491 120.691 159.061 118.515 158.647C118.216 158.6 117.911 158.632 117.628 158.739C117.346 158.846 117.097 159.025 116.905 159.259C113.367 162.791 113.445 179.361 115.525 181.868C116.32 182.825 117.291 183.206 118.188 182.921C118.846 182.671 119.395 182.199 119.743 181.587C119.282 181.469 118.856 181.246 118.496 180.934C118.137 180.623 117.855 180.232 117.673 179.793C116.293 177.033 115.713 172.686 117.714 169.673C118.611 168.325 119.522 168.394 119.987 168.555C121.896 169.213 122.581 173.615 122.287 177.64C122.02 181.113 120.649 183.574 118.607 184.223C118.28 184.331 117.939 184.389 117.595 184.393ZM119.494 169.866C119.37 169.866 119.131 170.041 118.86 170.451C117.241 172.884 117.655 176.679 118.901 179.191C119.472 180.336 120.175 180.299 120.369 180.267C120.658 179.391 120.834 178.482 120.893 177.562C121.247 172.962 120.194 170.115 119.513 169.885L119.494 169.866Z" fill="#0019FF"/>
<path d="M131.467 154.747H124.876C124.693 154.747 124.517 154.674 124.388 154.545C124.258 154.416 124.186 154.24 124.186 154.057C124.186 153.874 124.258 153.699 124.388 153.569C124.517 153.44 124.693 153.367 124.876 153.367H131.467C131.65 153.367 131.826 153.44 131.955 153.569C132.085 153.699 132.157 153.874 132.157 154.057C132.157 154.24 132.085 154.416 131.955 154.545C131.826 154.674 131.65 154.747 131.467 154.747Z" fill="#0019FF"/>
<path d="M168.889 179.399C166.334 179.447 163.79 179.063 161.363 178.263C160.365 177.9 159.422 176.745 158.842 175.172C158.263 173.599 157.278 169.39 160.526 163.621C163.132 158.983 166.748 154.99 171.106 151.937C171.26 151.838 171.447 151.805 171.626 151.844C171.805 151.883 171.961 151.992 172.06 152.147C172.159 152.301 172.193 152.488 172.153 152.667C172.114 152.846 172.005 153.002 171.851 153.101C167.698 156.046 164.243 159.869 161.731 164.297C158.769 169.564 159.633 173.318 160.139 174.689C160.645 176.06 161.345 176.786 161.837 176.961C166.782 178.764 174.059 177.913 176.41 176.961C177.109 176.681 178.627 173.134 179.846 170.282C182.146 164.891 185.021 158.179 188.526 155.843C188.927 155.541 189.393 155.338 189.887 155.251C190.381 155.164 190.889 155.195 191.369 155.341C194.037 156.215 195.697 160.746 197.303 165.13C198.223 167.632 199.258 170.475 200.063 170.866C200.146 170.908 200.164 170.894 200.192 170.866C200.652 170.664 201.066 169.514 201.457 168.157C201.302 167.978 201.164 167.785 201.043 167.582C199.911 165.696 199.322 159.481 200.78 155.953C201.374 154.522 202.239 153.653 203.352 153.377C206.521 152.586 206.365 149.927 206.356 149.817C206.349 149.726 206.36 149.635 206.389 149.549C206.417 149.463 206.463 149.383 206.522 149.314C206.581 149.245 206.654 149.189 206.735 149.148C206.816 149.107 206.904 149.083 206.995 149.076C207.086 149.069 207.177 149.081 207.263 149.109C207.349 149.138 207.429 149.183 207.498 149.242C207.566 149.302 207.623 149.374 207.664 149.455C207.705 149.536 207.729 149.625 207.736 149.715C207.832 151.072 207.115 153.855 203.692 154.716C203.025 154.881 202.478 155.475 202.059 156.482C200.932 159.201 201.185 164.123 201.958 166.262C202.064 165.802 202.16 165.397 202.252 165.006C203.099 161.39 203.77 158.534 205.408 158.534C206.609 158.534 207.473 158.874 208.044 159.569C208.922 160.636 209.042 162.462 208.439 165.48C207.979 167.807 206.747 169.311 205.072 169.62C204.223 169.759 203.353 169.596 202.611 169.16C202.105 170.765 201.562 171.782 200.771 172.15C200.562 172.248 200.333 172.296 200.102 172.29C199.871 172.284 199.645 172.223 199.442 172.113C198.227 171.506 197.349 169.252 196.019 165.618C194.69 161.984 192.983 157.338 190.959 156.666C190.678 156.588 190.381 156.578 190.095 156.637C189.808 156.696 189.54 156.823 189.313 157.006C186.152 159.113 183.369 165.618 181.138 170.839C179.193 175.393 178.121 177.789 176.943 178.258C175.434 178.833 172.302 179.399 168.889 179.399ZM202.979 167.761C203.234 167.968 203.53 168.12 203.846 168.207C204.163 168.294 204.494 168.315 204.819 168.267C205.914 168.079 206.714 167.002 207.064 165.236C207.561 162.766 207.524 161.16 206.958 160.47C206.774 160.245 206.406 159.941 205.39 159.941C204.792 160.18 204.01 163.543 203.582 165.346C203.366 166.216 203.168 167.025 202.979 167.747V167.761Z" fill="#0019FF"/>
<path d="M181.957 188.195C181.603 188.195 181.24 188.195 180.876 188.195C166.86 187.735 166.184 184.846 165.696 182.744L165.636 182.491C165.334 181.26 165.137 180.006 165.048 178.742C165.039 178.559 165.103 178.38 165.225 178.244C165.347 178.108 165.518 178.025 165.701 178.015C165.792 178.009 165.883 178.022 165.969 178.052C166.054 178.082 166.133 178.128 166.201 178.189C166.269 178.25 166.324 178.324 166.363 178.406C166.401 178.488 166.424 178.577 166.428 178.668C166.513 179.845 166.697 181.013 166.98 182.159L167.044 182.426C167.412 184.004 167.964 186.382 180.927 186.815C186.447 186.999 190.66 185.729 193.443 183.043C196.663 179.91 197.16 175.646 197.16 173.383C197.16 169.96 195.159 167.209 193.305 166.625C192.068 166.234 190.904 166.754 189.943 168.129C189.438 168.834 189.04 169.609 188.761 170.429C190.168 169.68 191.76 169.969 193.08 171.234C194.649 172.752 195.454 175.466 194.152 177.095C193.154 178.341 192.137 179.004 191.13 179.059C190.708 179.071 190.29 178.99 189.903 178.824C189.516 178.657 189.17 178.407 188.889 178.093C188.292 177.411 187.831 176.621 187.532 175.765C187.416 177.604 187.43 179.449 187.574 181.285C187.721 183.838 187.762 184.988 187.243 185.54C187.154 185.635 187.047 185.71 186.929 185.762C186.81 185.813 186.682 185.84 186.553 185.839C184.308 185.839 183.507 182.454 183.507 172.909C183.507 162.747 191.999 157.568 192.362 157.352C192.52 157.258 192.708 157.23 192.886 157.275C193.064 157.32 193.216 157.433 193.31 157.591C193.404 157.748 193.432 157.936 193.387 158.114C193.342 158.292 193.228 158.444 193.071 158.538C192.988 158.584 184.887 163.548 184.887 172.909C184.887 181.52 185.656 183.852 186.267 184.344C186.306 183.35 186.285 182.355 186.203 181.364C186.037 178.443 185.821 174.629 186.999 172.283C187.127 170.495 187.757 168.78 188.816 167.334C190.122 165.471 191.912 164.735 193.729 165.305C196.429 166.156 198.545 169.703 198.545 173.378C198.545 175.862 198.007 180.549 194.405 184.032C191.525 186.787 187.344 188.195 181.957 188.195ZM188.374 172.605C188.313 174.236 188.84 175.834 189.86 177.109C190.004 177.285 190.185 177.427 190.39 177.526C190.595 177.624 190.819 177.677 191.047 177.679C191.64 177.647 192.339 177.145 193.071 176.225C193.867 175.232 193.223 173.291 192.114 172.223C191.502 171.63 190.274 170.811 188.894 172.003C188.691 172.176 188.516 172.379 188.374 172.605Z" fill="#0019FF"/>
<path d="M129.344 177.132C127.182 177.132 126.386 176.898 126.091 176.355C126 176.189 125.961 175.999 125.982 175.81C126.003 175.621 126.081 175.444 126.206 175.302C126.74 174.593 127.784 173.922 128.994 173.112C131.165 171.686 133.87 169.892 133.594 167.799C133.542 167.229 133.358 166.679 133.056 166.193C132.754 165.706 132.343 165.297 131.855 164.998C131.569 164.821 131.246 164.714 130.911 164.685C130.576 164.657 130.24 164.707 129.928 164.832C129.403 165.098 128.998 165.551 128.792 166.102C128.332 167.21 128.212 168.052 128.493 168.48C128.628 168.628 128.795 168.744 128.981 168.818C129.168 168.892 129.369 168.923 129.569 168.908C129.728 168.882 129.879 168.818 130.008 168.72C130.136 168.622 130.238 168.493 130.305 168.346C130.535 167.886 130.415 167.325 129.96 166.713C129.85 166.567 129.803 166.383 129.829 166.202C129.855 166.021 129.952 165.857 130.098 165.747C130.244 165.638 130.428 165.59 130.61 165.616C130.791 165.642 130.954 165.739 131.064 165.885C132.117 167.288 131.814 168.415 131.524 168.963C131.342 169.339 131.064 169.66 130.717 169.893C130.37 170.126 129.968 170.262 129.551 170.288C129.121 170.313 128.693 170.23 128.304 170.047C127.915 169.864 127.578 169.586 127.324 169.239C126.763 168.388 126.823 167.15 127.504 165.559C127.843 164.688 128.501 163.979 129.344 163.576C129.851 163.36 130.403 163.266 130.954 163.304C131.505 163.342 132.039 163.509 132.513 163.792C133.189 164.198 133.762 164.756 134.184 165.422C134.607 166.088 134.868 166.844 134.946 167.629C135.314 170.591 132.209 172.629 129.716 174.267C129.016 174.704 128.342 175.182 127.697 175.697C129.311 175.895 133.746 175.596 138.047 175.306C143.042 174.97 149.257 174.556 154.975 174.556C159.382 174.556 161.875 172.9 162.238 169.772C162.698 165.632 159.276 160.379 157.178 159.91C153.038 158.99 141.833 159.45 132.918 160.398C126.413 161.078 125.24 162.077 125.066 162.284C125.053 162.444 124.985 162.594 124.873 162.71C124.761 162.825 124.612 162.898 124.453 162.915C124.293 162.933 124.132 162.894 123.998 162.805C123.864 162.717 123.765 162.584 123.718 162.431C123.678 162.281 123.673 162.123 123.703 161.971C123.733 161.819 123.798 161.675 123.893 161.552C124.647 160.416 127.637 159.565 132.775 159.022C141.8 158.075 153.185 157.61 157.477 158.562C160.453 159.22 164.129 165.209 163.614 169.92C163.365 172.164 161.916 175.932 154.975 175.932C149.303 175.932 143.116 176.346 138.143 176.682C133.93 176.967 131.156 177.132 129.344 177.132Z" fill="#0019FF"/>
<path d="M124.403 184.389C124.22 184.398 124.041 184.333 123.905 184.21C123.77 184.087 123.689 183.914 123.68 183.731C123.672 183.548 123.736 183.37 123.86 183.234C123.983 183.099 124.155 183.018 124.338 183.009C124.531 183.009 129.104 182.549 130.994 182.549C136.271 182.549 139.302 178.869 139.859 178.115C141.28 176.224 142.186 175.254 142.223 175.212C142.349 175.081 142.521 175.005 142.702 175C142.884 174.995 143.06 175.062 143.192 175.186C143.325 175.31 143.403 175.482 143.41 175.663C143.417 175.844 143.353 176.021 143.23 176.155C143.23 176.155 142.333 177.121 140.963 178.943C139.789 180.477 138.282 181.723 136.554 182.587C134.827 183.451 132.926 183.91 130.994 183.929C129.154 183.929 124.518 184.389 124.472 184.389H124.403Z" fill="#0019FF"/>
<path d="M105.207 68.4015H105.083C104.558 68.3049 99.9217 67.4125 98.6429 65.5173C98.4872 65.3028 98.3775 65.0586 98.3205 64.7998C98.2635 64.5409 98.2605 64.2732 98.3117 64.0131C98.7165 61.9845 106.182 56.2299 111.192 53.5895C110.906 53.1174 110.686 52.6082 110.538 52.0761L110.078 50.1901C110.053 50.1009 110.045 50.0074 110.056 49.9152C110.068 49.8231 110.097 49.7341 110.144 49.6537C110.19 49.5732 110.252 49.503 110.327 49.4472C110.401 49.3914 110.485 49.3511 110.576 49.3288C110.666 49.3065 110.759 49.3026 110.851 49.3174C110.943 49.3322 111.031 49.3653 111.109 49.4148C111.188 49.4643 111.255 49.5292 111.308 49.6055C111.361 49.6818 111.398 49.768 111.417 49.8589L111.877 51.7403C112.001 52.1772 112.187 52.5939 112.429 52.9777C114.476 52.0577 115.842 51.8047 116.698 52.2325C118.584 53.1525 118.855 54.6567 118.538 55.6411C118.297 56.263 117.835 56.7746 117.242 57.079C116.648 57.3834 115.964 57.4594 115.318 57.2925C114.32 57.0947 113.018 56.0091 111.987 54.7303C106.633 57.4903 99.8987 63.0103 99.6503 64.2845C99.6356 64.3653 99.6388 64.4483 99.6594 64.5277C99.6801 64.6071 99.7178 64.6811 99.7699 64.7445C100.497 65.8117 103.56 66.7225 105.317 67.0445C105.5 67.0604 105.67 67.1483 105.788 67.2889C105.906 67.4295 105.964 67.6113 105.948 67.7943C105.932 67.9773 105.844 68.1465 105.703 68.2647C105.563 68.3829 105.381 68.4404 105.198 68.4245L105.207 68.4015ZM113.28 54.1047C114.094 55.0569 115.051 55.8205 115.58 55.9447C115.896 56.0357 116.235 56.0106 116.534 55.8739C116.834 55.7373 117.074 55.4981 117.213 55.1995C117.425 54.5877 116.988 53.9253 116.081 53.4699C115.98 53.4009 115.355 53.1985 113.28 54.1047Z" fill="#0019FF"/>
<path d="M38.9537 77.1297C38.8868 77.1296 38.8203 77.1203 38.7559 77.1021C38.5819 77.0489 38.436 76.9292 38.3498 76.7689C38.2637 76.6087 38.2443 76.4209 38.2959 76.2465C38.3235 76.1453 39.0779 73.6705 42.3991 68.9233C45.7203 64.1761 53.5817 59.5025 53.8991 59.3093C53.9772 59.2566 54.0652 59.2206 54.1577 59.2032C54.2502 59.1859 54.3454 59.1876 54.4372 59.2084C54.529 59.2292 54.6156 59.2686 54.6916 59.3241C54.7677 59.3796 54.8315 59.45 54.8793 59.5312C54.9271 59.6123 54.9578 59.7023 54.9695 59.7957C54.9812 59.8891 54.9736 59.9839 54.9473 60.0743C54.921 60.1647 54.8764 60.2488 54.8164 60.3213C54.7564 60.3938 54.6822 60.4533 54.5983 60.4961C54.5201 60.5467 46.6863 65.1881 43.5169 69.6961C40.3475 74.2041 39.6115 76.5961 39.6069 76.5961C39.5717 76.7444 39.4886 76.8769 39.3706 76.9734C39.2525 77.0698 39.1061 77.1247 38.9537 77.1297Z" fill="#0019FF"/>
<path d="M26.4821 159.46C26.3396 159.46 26.2005 159.416 26.0843 159.334C25.968 159.251 25.8804 159.135 25.8335 159C25.7599 158.788 23.9199 153.609 23.9199 144.643C23.9937 138.741 24.6299 132.858 25.8197 127.076C25.8394 126.987 25.8762 126.904 25.9282 126.829C25.9802 126.755 26.0464 126.692 26.1228 126.643C26.1993 126.595 26.2846 126.561 26.3738 126.546C26.4631 126.53 26.5546 126.532 26.6431 126.552C26.7316 126.571 26.8154 126.608 26.8896 126.66C26.9639 126.712 27.0272 126.778 27.0759 126.855C27.1245 126.931 27.1577 127.016 27.1734 127.106C27.1892 127.195 27.1872 127.286 27.1675 127.375C25.9977 133.059 25.3723 138.841 25.2999 144.643C25.2999 153.342 27.1399 158.485 27.1399 158.535C27.2008 158.707 27.1915 158.897 27.114 159.062C27.0366 159.227 26.8971 159.355 26.7259 159.419C26.6478 159.447 26.5652 159.461 26.4821 159.46Z" fill="#0019FF"/>
</svg>
