<svg width="21" height="22" viewBox="0 0 21 22" fill="none" xmlns="http://www.w3.org/2000/svg">
<path d="M19.8377 4.19598L10.3346 0.0494532C10.2597 0.0168358 10.1788 0 10.097 0C10.0153 0 9.93437 0.0168358 9.85944 0.0494532L0.356366 4.19598C0.250494 4.24207 0.160393 4.31794 0.0970981 4.41431C0.0338028 4.51069 5.95132e-05 4.62338 0 4.73859V16.5858C1.84402e-07 16.6951 0.0302906 16.8022 0.0875221 16.8953C0.144754 16.9885 0.226696 17.064 0.324292 17.1136L9.82737 21.9354C9.91088 21.9779 10.0033 22 10.097 22C10.1896 21.9998 10.2808 21.9784 10.3637 21.9372L19.8668 17.1746C19.9652 17.1253 20.0479 17.0497 20.1057 16.9561C20.1635 16.8626 20.1941 16.7549 20.194 16.6451V4.73859C20.194 4.62338 20.1602 4.51069 20.0969 4.41431C20.0336 4.31794 19.9435 4.24207 19.8377 4.19598ZM10.097 1.23832L18.1182 4.73859L10.097 8.23885L8.01228 7.32898L11.1845 5.94464C11.2903 5.89845 11.3802 5.82253 11.4434 5.72616C11.5065 5.6298 11.5402 5.51716 11.5402 5.40203C11.5402 5.2869 11.5065 5.17427 11.4434 5.0779C11.3802 4.98154 11.2903 4.90562 11.1845 4.85943L8.63592 3.75112C8.56098 3.7185 8.4801 3.70167 8.39834 3.70167C8.31658 3.70167 8.2357 3.7185 8.16076 3.75112L3.98476 5.57145L2.0788 4.73859L10.097 1.23832ZM4.75154 7.19926L5.93942 7.71757V10.2961L4.75154 9.70376V7.19926ZM5.46427 6.21831L8.39597 4.94058L9.45912 5.40322L6.53336 6.68213L5.46427 6.21831ZM1.18788 5.64431L3.56365 6.68094V10.0698C3.5636 10.1799 3.59431 10.2878 3.65232 10.3815C3.71034 10.4751 3.79337 10.5508 3.8921 10.6L6.26787 11.7847C6.35844 11.8299 6.45909 11.8512 6.56024 11.8466C6.66138 11.842 6.75968 11.8117 6.8458 11.7586C6.93191 11.7055 7.00297 11.6313 7.05224 11.5431C7.10151 11.4549 7.12735 11.3555 7.12731 11.2546V8.23352L9.50307 9.27015V20.4415L1.18788 16.2227V5.64431ZM10.691 20.4468V9.27252L19.0061 5.64431V16.2796L10.691 20.4468Z" fill="#0019FF"/>
</svg>
