<svg width="18" height="18" viewBox="0 0 18 18" fill="none" xmlns="http://www.w3.org/2000/svg">
<path d="M16.418 0H4.11328C3.24097 0 2.53125 0.709717 2.53125 1.58203V4.25391H1.26741C0.568542 4.25391 0 4.82245 0 5.52132V12.4787C0 13.1776 0.568542 13.7461 1.26741 13.7461H2.53125V16.418C2.53125 17.2903 3.24097 18 4.11328 18H16.418C17.2903 18 18 17.2903 18 16.418V1.58203C18 0.709717 17.2903 0 16.418 0ZM1.05469 12.4787V5.52132C1.05469 5.40404 1.15013 5.30859 1.26741 5.30859H14.6232C14.7405 5.30859 14.8359 5.40404 14.8359 5.52132V12.4787C14.8359 12.596 14.7405 12.6914 14.6232 12.6914H1.26741C1.15013 12.6914 1.05469 12.596 1.05469 12.4787ZM16.9453 16.418C16.9453 16.7087 16.7087 16.9453 16.418 16.9453H4.11328C3.82256 16.9453 3.58594 16.7087 3.58594 16.418V13.7461H14.6232C15.3221 13.7461 15.8906 13.1776 15.8906 12.4787V5.52132C15.8906 4.82245 15.3221 4.25391 14.6232 4.25391H3.58594V1.58203C3.58594 1.29131 3.82256 1.05469 4.11328 1.05469H16.418C16.7087 1.05469 16.9453 1.29131 16.9453 1.58203V16.418Z" fill="#0019FF"/>
<path d="M3.16406 9.87891H3.69141C4.66068 9.87891 5.44922 9.09036 5.44922 8.12109C5.44922 7.15182 4.66068 6.36328 3.69141 6.36328H2.63672C2.34544 6.36328 2.10938 6.59935 2.10938 6.89062V11.1094C2.10938 11.4007 2.34544 11.6367 2.63672 11.6367C2.92799 11.6367 3.16406 11.4007 3.16406 11.1094V9.87891ZM3.16406 7.41797H3.69141C4.07909 7.41797 4.39453 7.73341 4.39453 8.12109C4.39453 8.50877 4.07909 8.82422 3.69141 8.82422H3.16406V7.41797Z" fill="#0019FF"/>
<path d="M7.03125 11.6367H7.91016C8.97638 11.6367 9.84375 10.7693 9.84375 9.70312V8.29688C9.84375 7.23065 8.97638 6.36328 7.91016 6.36328H7.03125C6.73997 6.36328 6.50391 6.59935 6.50391 6.89062V11.1094C6.50391 11.4007 6.73997 11.6367 7.03125 11.6367ZM7.55859 7.41797H7.91016C8.39479 7.41797 8.78906 7.81224 8.78906 8.29688V9.70312C8.78906 10.1878 8.39479 10.582 7.91016 10.582H7.55859V7.41797Z" fill="#0019FF"/>
<path d="M11.4258 11.6367C11.7171 11.6367 11.9531 11.4007 11.9531 11.1094V9.52734H13.0078C13.2991 9.52734 13.5352 9.29128 13.5352 9C13.5352 8.70872 13.2991 8.47266 13.0078 8.47266H11.9531V7.41797H13.2539C13.5452 7.41797 13.7812 7.1819 13.7812 6.89062C13.7812 6.59935 13.5452 6.36328 13.2539 6.36328H11.4258C11.1345 6.36328 10.8984 6.59935 10.8984 6.89062V11.1094C10.8984 11.4007 11.1345 11.6367 11.4258 11.6367Z" fill="#0019FF"/>
</svg>
