<svg xmlns="http://www.w3.org/2000/svg">

    <symbol id="gift" viewBox="0 0 20 20">
        <path d="M18.75 5.61219H14.795C15.0788 5.41844 15.3225 5.22594 15.4925 5.05344C16.5 4.03969 16.5 2.38969 15.4925 1.37594C14.5138 0.390938 12.8063 0.389688 11.8263 1.37594C11.285 1.91969 9.84625 4.13344 10.045 5.61219H9.955C10.1525 4.13344 8.715 1.91969 8.17375 1.37594C7.19375 0.389688 5.48625 0.390938 4.5075 1.37594C3.5 2.38969 3.5 4.03969 4.50625 5.05344C4.6775 5.22594 4.92125 5.41844 5.205 5.61219H1.25C0.56125 5.61219 0 6.17344 0 6.86219V9.98719C0 10.3322 0.28 10.6122 0.625 10.6122H1.25V18.1122C1.25 18.8009 1.81125 19.3622 2.5 19.3622H17.5C18.1887 19.3622 18.75 18.8009 18.75 18.1122V10.6122H19.375C19.72 10.6122 20 10.3322 20 9.98719V6.86219C20 6.17344 19.4387 5.61219 18.75 5.61219ZM5.39375 2.25719C5.6475 2.00219 5.98375 1.86219 6.34125 1.86219C6.6975 1.86219 7.03375 2.00219 7.2875 2.25719C8.13 3.10469 8.9675 5.26969 8.67625 5.57094C8.67625 5.57094 8.62375 5.61219 8.445 5.61219C7.58125 5.61219 5.9325 4.71469 5.39375 4.17219C4.87 3.64469 4.87 2.78469 5.39375 2.25719ZM9.375 18.1122H2.5V10.6122H9.375V18.1122ZM9.375 9.36219H1.25V6.86219H8.445H9.375V9.36219ZM12.7125 2.25719C13.22 1.74844 14.1 1.74969 14.6063 2.25719C15.13 2.78469 15.13 3.64469 14.6063 4.17219C14.0675 4.71469 12.4188 5.61219 11.555 5.61219C11.3763 5.61219 11.3237 5.57219 11.3225 5.57094C11.0325 5.26969 11.87 3.10469 12.7125 2.25719ZM17.5 18.1122H10.625V10.6122H17.5V18.1122ZM18.75 9.36219H10.625V6.86219H11.555H18.75V9.36219Z"/>
    </symbol>

    <symbol id="binoculars" viewBox="0 0 20 20">
        <path d="M4.58328 18.3464C2.05673 18.3464 0 16.2906 0 13.763C0 13.2089 0.0982666 12.6663 0.292511 12.1497C0.960846 10.3731 2.68585 9.17969 4.58328 9.17969C7.10999 9.17969 9.16672 11.2355 9.16672 13.763C9.16672 16.2906 7.10999 18.3464 4.58328 18.3464ZM4.58328 10.4297C3.20328 10.4297 1.94839 11.2981 1.46255 12.5897C1.32172 12.9646 1.25 13.3597 1.25 13.763C1.25 15.6013 2.74506 17.0964 4.58328 17.0964C6.42166 17.0964 7.91672 15.6013 7.91672 13.763C7.91672 11.9247 6.42166 10.4297 4.58328 10.4297Z" />
        <path d="M8.54102 14.3873C8.19601 14.3873 7.91602 14.1073 7.91602 13.7623V4.5957C7.91602 4.2507 8.19601 3.9707 8.54102 3.9707C8.88602 3.9707 9.16602 4.2507 9.16602 4.5957V13.7623C9.16602 14.1073 8.88602 14.3873 8.54102 14.3873Z" />
        <path d="M0.877219 12.994C0.803824 12.994 0.729667 12.9815 0.657187 12.9541C0.333854 12.8323 0.170585 12.4716 0.292197 12.149L3.51882 3.56899C3.64059 3.24565 4.0013 3.08315 4.32296 3.204C4.64629 3.32576 4.80971 3.68648 4.68795 4.00905L1.46224 12.5891C1.36809 12.8399 1.12975 12.994 0.877219 12.994Z" />
        <path d="M8.54196 5.22141C8.19696 5.22141 7.91696 4.94141 7.91696 4.59641C7.91696 3.67722 7.16944 2.92969 6.25025 2.92969C5.56101 2.92969 4.93601 3.36304 4.69354 4.00726C4.67111 4.06128 4.65601 4.09805 4.64685 4.13559C4.56018 4.47052 4.21945 4.67224 3.88529 4.58466C3.55188 4.4989 3.3494 4.15802 3.43607 3.82385C3.46109 3.72803 3.49603 3.6322 3.53113 3.54721C3.94769 2.43881 5.04358 1.67969 6.25025 1.67969C7.85852 1.67969 9.16696 2.98798 9.16696 4.59641C9.16696 4.94141 8.88696 5.22141 8.54196 5.22141Z" />
        <path d="M11.459 5.22141C11.114 5.22141 10.834 4.94141 10.834 4.59641C10.834 2.98798 12.1424 1.67969 13.7507 1.67969C14.9574 1.67969 16.0533 2.43881 16.4773 3.56796L16.549 3.7738C16.6631 4.09973 16.4907 4.45633 16.1648 4.5697C15.8366 4.68216 15.4824 4.5105 15.3691 4.18472L15.3024 3.99307C15.0649 3.36304 14.4399 2.92969 13.7507 2.92969C12.8315 2.92969 12.084 3.67722 12.084 4.59641C12.084 4.94141 11.804 5.22141 11.459 5.22141Z" />
        <path d="M11.459 14.3873C11.114 14.3873 10.834 14.1073 10.834 13.7623V4.5957C10.834 4.2507 11.114 3.9707 11.459 3.9707C11.804 3.9707 12.084 4.2507 12.084 4.5957V13.7623C12.084 14.1073 11.804 14.3873 11.459 14.3873Z" />
        <path d="M19.1233 12.9943C18.87 12.9943 18.6324 12.8402 18.5382 12.5894L15.3116 4.00936C15.19 3.68603 15.3542 3.32607 15.6766 3.20431C15.9992 3.08269 16.3591 3.24596 16.4817 3.5693L19.7083 12.1493C19.8299 12.4726 19.6659 12.8326 19.3433 12.9544C19.2708 12.9818 19.1967 12.9943 19.1233 12.9943Z" />
        <path d="M15.4174 18.3464C12.8907 18.3464 10.834 16.2906 10.834 13.763C10.834 11.2355 12.8907 9.17969 15.4174 9.17969C17.3148 9.17969 19.0399 10.3731 19.7082 12.1497C19.9024 12.6663 20.0007 13.2089 20.0007 13.763C20.0007 16.2906 17.944 18.3464 15.4174 18.3464ZM15.4174 10.4297C13.579 10.4297 12.084 11.9247 12.084 13.763C12.084 15.6013 13.579 17.0964 15.4174 17.0964C17.2556 17.0964 18.7507 15.6013 18.7507 13.763C18.7507 13.3597 18.679 12.9646 18.5381 12.5897C18.0515 11.2981 16.7974 10.4297 15.4174 10.4297Z" />
        <path d="M11.4576 13.3457H8.54102C8.19601 13.3457 7.91602 13.0657 7.91602 12.7207C7.91602 12.3757 8.19601 12.0957 8.54102 12.0957H11.4576C11.8026 12.0957 12.0826 12.3757 12.0826 12.7207C12.0826 13.0657 11.8026 13.3457 11.4576 13.3457Z" />
        <path d="M11.4576 9.5957H8.54102C8.19601 9.5957 7.91602 9.3157 7.91602 8.9707C7.91602 8.6257 8.19601 8.3457 8.54102 8.3457H11.4576C11.8026 8.3457 12.0826 8.6257 12.0826 8.9707C12.0826 9.3157 11.8026 9.5957 11.4576 9.5957Z" />
    </symbol>

    <symbol id="heart" viewBox="0 0 22 22">
        <path d="M11.0956 19.3135C10.9668 19.3139 10.8403 19.28 10.7289 19.2152C9.11207 18.237 7.59209 17.107 6.18961 15.8404C3.09494 13.0361 1.49627 10.2744 1.43907 7.62708C1.40681 6.13254 1.87174 4.84041 2.78694 3.91348C3.72854 2.95134 5.09547 2.42188 6.63547 2.42188C8.01252 2.42382 9.3326 2.97181 10.3062 3.94567C11.2798 4.91953 11.8274 6.23976 11.8289 7.61681C11.8289 7.8113 11.7517 7.99783 11.6142 8.13536C11.4766 8.27288 11.2901 8.35014 11.0956 8.35014C10.9011 8.35014 10.7146 8.27288 10.5771 8.13536C10.4395 7.99783 10.3623 7.8113 10.3623 7.61681C10.3615 6.62825 9.96845 5.6804 9.26943 4.98138C8.57041 4.28237 7.62256 3.88932 6.63401 3.88854C5.49147 3.88854 4.49707 4.26108 3.83414 4.93868C3.20347 5.58401 2.88227 6.50508 2.90574 7.60068C3.02307 12.9833 11.3801 17.8967 11.4637 17.9465C11.6029 18.0277 11.7115 18.1523 11.7728 18.3013C11.834 18.4503 11.8445 18.6153 11.8026 18.7709C11.7607 18.9264 11.6688 19.0638 11.541 19.1619C11.4132 19.26 11.2567 19.3132 11.0956 19.3135Z" />
        <path d="M11.0966 19.3135C10.9355 19.3132 10.779 19.26 10.6512 19.1619C10.5234 19.0638 10.4315 18.9264 10.3896 18.7708C10.3477 18.6153 10.3582 18.4503 10.4195 18.3013C10.4807 18.1523 10.5893 18.0276 10.7285 17.9465C10.8121 17.8967 19.1691 12.9833 19.2865 7.60068C19.3099 6.50507 18.9931 5.58401 18.3581 4.93867C17.6951 4.26107 16.7007 3.88854 15.5582 3.88854C14.5697 3.88932 13.6218 4.28237 12.9228 4.98138C12.2238 5.6804 11.8307 6.62825 11.8299 7.61681C11.8299 7.8113 11.7527 7.99783 11.6152 8.13535C11.4776 8.27288 11.2911 8.35014 11.0966 8.35014C10.9021 8.35014 10.7156 8.27288 10.5781 8.13535C10.4405 7.99783 10.3633 7.8113 10.3633 7.61681C10.3648 6.2395 10.9127 4.91905 11.8866 3.94515C12.8605 2.97125 14.1809 2.42343 15.5582 2.42188C17.0982 2.42188 18.4651 2.95134 19.4067 3.91348C20.3205 4.84628 20.7854 6.13254 20.7531 7.63294C20.6959 10.2729 19.0973 13.0361 16.0026 15.8463C14.6001 17.1123 13.0801 18.2419 11.4633 19.2196C11.3515 19.2828 11.225 19.3152 11.0966 19.3135Z" />
    </symbol>

    <symbol id="heart-painted" viewBox="-1 -1 22 22">
        <path d="M18.3984 1.89844C17.4984 0.898438 16.0984 0.398438 14.5984 0.398438C13.1984 0.398438 11.8984 0.898438 10.8984 1.89844C10.5984 2.19844 10.2984 2.59844 10.0984 2.99844C9.89844 2.59844 9.59844 2.29844 9.29844 1.89844C8.29844 0.998438 6.99844 0.398438 5.59844 0.398438C4.09844 0.398438 2.69844 0.998438 1.79844 1.89844C0.898438 2.79844 0.398438 4.09844 0.398438 5.59844C0.498438 8.19844 2.09844 10.9984 5.19844 13.7984C6.59844 15.0984 8.09844 16.1984 9.69844 17.1984C9.79844 17.2984 9.89844 17.2984 9.99844 17.2984C10.0984 17.2984 10.1984 17.2984 10.2984 17.1984C10.2984 17.1984 10.2984 17.1984 10.3984 17.1984C11.9984 16.1984 13.4984 15.0984 14.8984 13.7984C17.9984 10.9984 19.5984 8.19844 19.6984 5.59844C19.7984 4.09844 19.2984 2.79844 18.3984 1.89844Z"/>
    </symbol>

    <symbol id="copy" viewBox="0 0 20 20">
        <path d="M13.5286 19.9993H3.11203C1.84784 19.9993 0.820312 18.9718 0.820312 17.7076V6.45758C0.820312 5.19339 1.84784 4.16602 3.11203 4.16602H3.52859C3.8736 4.16602 4.15359 4.44601 4.15359 4.79102C4.15359 5.13602 3.8736 5.41602 3.52859 5.41602H3.11203C2.53784 5.41602 2.07031 5.88339 2.07031 6.45758V17.7076C2.07031 18.2818 2.53784 18.7493 3.11203 18.7493H13.5286C14.1028 18.7493 14.5703 18.2818 14.5703 17.7076V17.291C14.5703 16.946 14.8503 16.666 15.1953 16.666C15.5403 16.666 15.8203 16.946 15.8203 17.291V17.7076C15.8203 18.9718 14.7928 19.9993 13.5286 19.9993Z" />
        <path d="M16.862 15H8.11203C6.84784 15 5.82031 13.9725 5.82031 12.7083V2.29172C5.82031 1.02753 6.84784 0 8.11203 0H16.862C18.1262 0 19.1536 1.02753 19.1536 2.29172V12.7083C19.1536 13.9725 18.1262 15 16.862 15ZM8.11203 1.25C7.53784 1.25 7.07031 1.71753 7.07031 2.29172V12.7083C7.07031 13.2825 7.53784 13.75 8.11203 13.75H16.862C17.4362 13.75 17.9036 13.2825 17.9036 12.7083V2.29172C17.9036 1.71753 17.4362 1.25 16.862 1.25H8.11203Z" />
    </symbol>

    <symbol id="copy2" viewBox="0 0 22 22">
        <path d="M16.5905 17.1725H8.77458C8.11331 17.1725 7.47912 16.9098 7.01153 16.4422C6.54394 15.9747 6.28125 15.3405 6.28125 14.6792V4.21599C6.28125 3.55472 6.54394 2.92053 7.01153 2.45294C7.47912 1.98535 8.11331 1.72266 8.77458 1.72266H16.5905C16.9179 1.72266 17.2421 1.78715 17.5446 1.91245C17.8471 2.03775 18.122 2.22141 18.3535 2.45294C18.585 2.68446 18.7687 2.95933 18.894 3.26183C19.0193 3.56434 19.0838 3.88856 19.0838 4.21599V14.6792C19.0838 15.0066 19.0193 15.3308 18.894 15.6333C18.7687 15.9359 18.585 16.2107 18.3535 16.4422C18.122 16.6738 17.8471 16.8574 17.5446 16.9827C17.2421 17.108 16.9179 17.1725 16.5905 17.1725ZM8.77458 3.18932C8.5023 3.18932 8.24116 3.29749 8.04862 3.49003C7.85608 3.68256 7.74792 3.9437 7.74792 4.21599V14.6792C7.74792 14.9515 7.85608 15.2126 8.04862 15.4052C8.24116 15.5977 8.5023 15.7059 8.77458 15.7059H16.5905C16.8627 15.7059 17.1239 15.5977 17.3164 15.4052C17.509 15.2126 17.6171 14.9515 17.6171 14.6792V4.21599C17.6171 3.9437 17.509 3.68256 17.3164 3.49003C17.1239 3.29749 16.8627 3.18932 16.5905 3.18932H8.77458Z"/>
        <path d="M12.7351 20.8424H3.94243C2.83657 20.8424 1.9375 19.98 1.9375 18.9196V7.31536C1.9375 7.12087 2.01476 6.93435 2.15229 6.79682C2.28982 6.65929 2.47634 6.58203 2.67083 6.58203C2.86533 6.58203 3.05185 6.65929 3.18938 6.79682C3.32691 6.93435 3.40417 7.12087 3.40417 7.31536V18.9196C3.40417 19.166 3.65057 19.3758 3.94243 19.3758H12.7351C12.9296 19.3758 13.1161 19.453 13.2536 19.5906C13.3912 19.7281 13.4684 19.9146 13.4684 20.1091C13.4684 20.3036 13.3912 20.4901 13.2536 20.6276C13.1161 20.7652 12.9296 20.8424 12.7351 20.8424Z"/>
        <path d="M15.1645 6.56432H10.4286C10.2342 6.56432 10.0476 6.48706 9.9101 6.34954C9.77257 6.21201 9.69531 6.02548 9.69531 5.83099C9.69531 5.6365 9.77257 5.44997 9.9101 5.31244C10.0476 5.17492 10.2342 5.09766 10.4286 5.09766H15.1645C15.359 5.09766 15.5455 5.17492 15.6831 5.31244C15.8206 5.44997 15.8979 5.6365 15.8979 5.83099C15.8979 6.02548 15.8206 6.21201 15.6831 6.34954C15.5455 6.48706 15.359 6.56432 15.1645 6.56432Z"/>
        <path d="M15.1645 9.24011H10.4286C10.2342 9.24011 10.0476 9.16285 9.9101 9.02532C9.77257 8.88779 9.69531 8.70126 9.69531 8.50677C9.69531 8.31228 9.77257 8.12575 9.9101 7.98823C10.0476 7.8507 10.2342 7.77344 10.4286 7.77344H15.1645C15.359 7.77344 15.5455 7.8507 15.6831 7.98823C15.8206 8.12575 15.8979 8.31228 15.8979 8.50677C15.8979 8.70126 15.8206 8.88779 15.6831 9.02532C15.5455 9.16285 15.359 9.24011 15.1645 9.24011Z"/>
    </symbol>

    <symbol id="shopping-basket" viewBox="0 0 20 20">
        <path d="M19.375 5.6252H16.0112L13.6837 0.970203C13.5275 0.661453 13.1538 0.537703 12.845 0.690203C12.5363 0.845203 12.4113 1.2202 12.565 1.52895L14.6138 5.6252H5.38625L7.43375 1.5302C7.58875 1.22145 7.4625 0.846453 7.15375 0.691453C6.84625 0.538953 6.47 0.662703 6.31625 0.970203L3.98875 5.6252H0.625C0.28 5.6252 0 5.9052 0 6.2502V8.7502C0 9.0952 0.28 9.3752 0.625 9.3752H1.3875L3.76875 18.9015C3.83875 19.1802 4.08875 19.3752 4.375 19.3752H15.625C15.9113 19.3752 16.1612 19.1802 16.2312 18.9015L18.6125 9.3752H19.375C19.72 9.3752 20 9.0952 20 8.7502V6.2502C20 5.9052 19.72 5.6252 19.375 5.6252ZM15.1363 18.1252H4.86375L2.675 9.3752H17.325L15.1363 18.1252ZM18.75 8.1252H1.25V6.8752H18.75V8.1252Z" />
        <path d="M10 11.875C9.655 11.875 9.375 12.155 9.375 12.5V16.25C9.375 16.595 9.655 16.875 10 16.875C10.345 16.875 10.625 16.595 10.625 16.25V12.5C10.625 12.155 10.345 11.875 10 11.875Z" />
        <path d="M6.875 11.875C6.53 11.875 6.25 12.155 6.25 12.5V16.25C6.25 16.595 6.53 16.875 6.875 16.875C7.22 16.875 7.5 16.595 7.5 16.25V12.5C7.5 12.155 7.22 11.875 6.875 11.875Z" />
        <path d="M13.125 11.875C12.78 11.875 12.5 12.155 12.5 12.5V16.25C12.5 16.595 12.78 16.875 13.125 16.875C13.47 16.875 13.75 16.595 13.75 16.25V12.5C13.75 12.155 13.47 11.875 13.125 11.875Z" />
    </symbol>

    <symbol id="enter" viewBox="0 0 20 20">
        <path d="M8.54172 9.375H0.625C0.279999 9.375 0 9.095 0 8.75C0 8.405 0.279999 8.125 0.625 8.125H8.54172C8.88672 8.125 9.16672 8.405 9.16672 8.75C9.16672 9.095 8.88672 9.375 8.54172 9.375Z" />
        <path d="M5.41586 12.5006C5.2558 12.5006 5.09589 12.4397 4.97412 12.3174C4.72998 12.0731 4.72998 11.6772 4.97412 11.4331L7.65753 8.74985L4.97412 6.06735C4.72998 5.82306 4.72998 5.42725 4.97412 5.18311C5.21826 4.93896 5.61407 4.93896 5.85837 5.18311L8.98337 8.30811C9.22751 8.55225 9.22751 8.94806 8.98337 9.19235L5.85837 12.3174C5.73584 12.4397 5.57578 12.5006 5.41586 12.5006Z" />
        <path d="M13.3326 20.0007C12.4134 20.0007 11.666 19.2531 11.666 18.334V3.33395C11.666 2.62152 12.1194 1.98568 12.7943 1.75146L17.801 0.0823036C18.921 -0.261019 19.9993 0.569822 19.9993 1.66739V16.6674C19.9993 17.3791 19.546 18.014 18.8718 18.249L13.8634 19.919C13.6809 19.9756 13.5119 20.0007 13.3326 20.0007ZM18.3326 1.25067C18.2784 1.25067 18.2326 1.25738 18.1835 1.27234L13.1977 2.93478C13.0343 2.99154 12.916 3.15649 12.916 3.33395V18.334C12.916 18.6182 13.2242 18.8099 13.4818 18.729L18.4676 17.0666C18.6301 17.0098 18.7493 16.8448 18.7493 16.6674V1.66739C18.7493 1.4382 18.5627 1.25067 18.3326 1.25067Z" />
        <path d="M7.29102 4.16672C6.94601 4.16672 6.66602 3.88672 6.66602 3.54172V2.29172C6.66602 1.02753 7.69339 0 8.95758 0H18.3326C18.6776 0 18.9576 0.279999 18.9576 0.625C18.9576 0.970001 18.6776 1.25 18.3326 1.25H8.95758C8.38339 1.25 7.91602 1.71753 7.91602 2.29172V3.54172C7.91602 3.88672 7.63602 4.16672 7.29102 4.16672Z" />
        <path d="M12.291 17.5007H8.95758C7.69339 17.5007 6.66602 16.4732 6.66602 15.209V13.959C6.66602 13.614 6.94601 13.334 7.29102 13.334C7.63602 13.334 7.91602 13.614 7.91602 13.959V15.209C7.91602 15.7832 8.38339 16.2507 8.95758 16.2507H12.291C12.636 16.2507 12.916 16.5307 12.916 16.8757C12.916 17.2207 12.636 17.5007 12.291 17.5007Z" />
    </symbol>

    <symbol id="dots"  viewBox="0 0 18 18">
        <circle cx="2" cy="2" r="2" />
        <circle cx="9" cy="2" r="2" />
        <circle cx="16" cy="2" r="2" />
        <circle cx="2" cy="9" r="2" />
        <circle cx="9" cy="9" r="2" />
        <circle cx="16" cy="9" r="2" />
        <circle cx="2" cy="16" r="2" />
        <circle cx="9" cy="16" r="2" />
        <circle cx="16" cy="16" r="2" />
    </symbol>

    <symbol id="search" viewBox="0 0 22 22">
        <path d="M9.58608 15.4612C8.24324 15.4612 6.93056 15.063 5.81405 14.3169C4.69754 13.5709 3.82735 12.5104 3.31353 11.2698C2.79972 10.0291 2.66536 8.66398 2.92744 7.34697C3.18952 6.02995 3.83627 4.82023 4.78591 3.87081C5.73554 2.92138 6.9454 2.27489 8.26247 2.01309C9.57954 1.75129 10.9447 1.88595 12.1852 2.40003C13.4257 2.91412 14.486 3.78453 15.2318 4.9012C15.9776 6.01787 16.3756 7.33064 16.3753 8.67348C16.3729 10.4732 15.6569 12.1986 14.3841 13.4711C13.1113 14.7436 11.3858 15.4593 9.58608 15.4612ZM9.58608 3.35095C8.53338 3.35095 7.50432 3.66311 6.62904 4.24796C5.75375 4.8328 5.07155 5.66407 4.6687 6.63663C4.26585 7.6092 4.16044 8.67938 4.36582 9.71185C4.57119 10.7443 5.07811 11.6927 5.82248 12.4371C6.56685 13.1814 7.51523 13.6884 8.5477 13.8937C9.58017 14.0991 10.6504 13.9937 11.6229 13.5909C12.5955 13.188 13.4268 12.5058 14.0116 11.6305C14.5964 10.7552 14.9086 9.72618 14.9086 8.67348C14.9071 7.26233 14.3458 5.90943 13.348 4.9116C12.3501 3.91376 10.9972 3.3525 9.58608 3.35095Z"/>
        <path d="M19.8516 20.5654C19.6575 20.5654 19.4713 20.4884 19.3339 20.3513L12.9598 13.9772C12.8262 13.8389 12.7523 13.6536 12.7539 13.4613C12.7556 13.2691 12.8327 13.0851 12.9687 12.9492C13.1047 12.8132 13.2886 12.7361 13.4809 12.7344C13.6731 12.7327 13.8584 12.8066 13.9967 12.9402L20.3708 19.3144C20.4731 19.417 20.5428 19.5477 20.5709 19.6898C20.599 19.832 20.5843 19.9793 20.5288 20.1132C20.4732 20.247 20.3793 20.3614 20.2587 20.4419C20.1382 20.5224 19.9966 20.5654 19.8516 20.5654Z"/>
    </symbol>

    <symbol id="arrow" viewBox="0 0 12 8">
        <path d="M2.91409e-07 4.66667L9.44667 4.66667L7.06 7.06L8 8L12 4L8 -3.49691e-07L7.06 0.939999L9.44667 3.33333L4.07973e-07 3.33333L2.91409e-07 4.66667Z"/>
    </symbol>

    <symbol id="info" viewBox="0 0 20 20">
        <circle cx="10" cy="10" r="9.5" stroke-width="1" fill="none"/>
        <path d="M10.816 15.0004L9.55136 15.0002L9.61231 7.60393L10.877 7.60415L10.816 15.0004ZM9.52593 5.64207C9.52762 5.437 9.59057 5.26383 9.71478 5.12258C9.84355 4.98134 10.031 4.91073 10.2771 4.91077C10.5232 4.91082 10.7094 4.98148 10.8359 5.12278C10.9623 5.26407 11.0247 5.43725 11.023 5.64232C11.0213 5.8474 10.9561 6.01828 10.8274 6.15497C10.6986 6.29166 10.5112 6.35999 10.2651 6.35994C10.019 6.3599 9.83276 6.29151 9.70628 6.15478C9.58436 6.01804 9.52424 5.84714 9.52593 5.64207Z" stroke="none" />
    </symbol>

    <symbol id="graph" viewBox="0 0 22 21">
        <path d="M4.62765 19.9598H3.81365C3.48622 19.9598 3.16199 19.8983 2.85949 19.7787C2.55698 19.6591 2.28212 19.4838 2.05059 19.2628C1.81907 19.0417 1.63541 18.7794 1.51011 18.4906C1.3848 18.2019 1.32031 17.8924 1.32031 17.5798V10.962C1.32031 10.3308 1.583 9.72545 2.05059 9.27912C2.51818 8.83278 3.15237 8.58203 3.81365 8.58203H4.62765C5.28892 8.58203 5.92311 8.83278 6.3907 9.27912C6.85829 9.72545 7.12098 10.3308 7.12098 10.962V17.5798C7.12098 17.8924 7.05649 18.2019 6.93119 18.4906C6.80588 18.7794 6.62223 19.0417 6.3907 19.2628C6.15917 19.4838 5.88431 19.6591 5.5818 19.7787C5.2793 19.8983 4.95508 19.9598 4.62765 19.9598ZM3.81365 9.98203C3.54136 9.98203 3.28022 10.0853 3.08768 10.2691C2.89515 10.4529 2.78698 10.7021 2.78698 10.962V17.5798C2.78698 17.8397 2.89515 18.089 3.08768 18.2728C3.28022 18.4566 3.54136 18.5598 3.81365 18.5598H4.62765C4.89993 18.5598 5.16107 18.4566 5.35361 18.2728C5.54615 18.089 5.65431 17.8397 5.65431 17.5798V10.962C5.65431 10.7021 5.54615 10.4529 5.35361 10.2691C5.16107 10.0853 4.89993 9.98203 4.62765 9.98203H3.81365Z" />
        <path d="M18.5236 19.9583H17.7082C17.3807 19.9583 17.0565 19.8968 16.754 19.7772C16.4515 19.6576 16.1767 19.4823 15.9451 19.2613C15.7136 19.0403 15.5299 18.7779 15.4046 18.4891C15.2793 18.2004 15.2148 17.8909 15.2148 17.5783V8.28234C15.2148 7.65113 15.4775 7.04577 15.9451 6.59943C16.4127 6.15309 17.0469 5.90234 17.7082 5.90234H18.5236C18.8511 5.90234 19.1753 5.9639 19.4778 6.08351C19.7803 6.20312 20.0552 6.37843 20.2867 6.59943C20.5182 6.82043 20.7019 7.0828 20.8272 7.37156C20.9525 7.66031 21.017 7.9698 21.017 8.28234V17.5783C21.017 17.8909 20.9525 18.2004 20.8272 18.4891C20.7019 18.7779 20.5182 19.0403 20.2867 19.2613C20.0552 19.4823 19.7803 19.6576 19.4778 19.7772C19.1753 19.8968 18.8511 19.9583 18.5236 19.9583ZM17.7082 7.30234C17.4359 7.30234 17.1748 7.40559 16.9822 7.58938C16.7897 7.77316 16.6815 8.02243 16.6815 8.28234V17.5783C16.6815 17.8383 16.7897 18.0875 16.9822 18.2713C17.1748 18.4551 17.4359 18.5583 17.7082 18.5583H18.5236C18.6585 18.5583 18.792 18.533 18.9165 18.4837C19.0411 18.4345 19.1543 18.3623 19.2496 18.2713C19.3449 18.1803 19.4206 18.0723 19.4722 17.9534C19.5238 17.8345 19.5503 17.707 19.5503 17.5783V8.28234C19.5503 8.02243 19.4421 7.77316 19.2496 7.58938C19.0571 7.40559 18.7959 7.30234 18.5236 7.30234H17.7082Z" />
        <path d="M11.6394 19.9597H10.8254C10.4979 19.9597 10.1737 19.8981 9.87121 19.7785C9.5687 19.6589 9.29384 19.4836 9.06231 19.2626C8.83078 19.0416 8.64713 18.7792 8.52183 18.4905C8.39652 18.2017 8.33203 17.8922 8.33203 17.5797V3.05188C8.33203 2.42066 8.59472 1.8153 9.06231 1.36896C9.5299 0.922624 10.1641 0.671875 10.8254 0.671875H11.6394C12.3006 0.671875 12.9348 0.922624 13.4024 1.36896C13.87 1.8153 14.1327 2.42066 14.1327 3.05188V17.5797C14.1327 17.8922 14.0682 18.2017 13.9429 18.4905C13.8176 18.7792 13.634 19.0416 13.4024 19.2626C13.1709 19.4836 12.896 19.6589 12.5935 19.7785C12.291 19.8981 11.9668 19.9597 11.6394 19.9597ZM10.8254 2.07187C10.5531 2.07187 10.2919 2.17512 10.0994 2.35891C9.90687 2.5427 9.7987 2.79196 9.7987 3.05188V17.5797C9.7987 17.8396 9.90687 18.0889 10.0994 18.2726C10.2919 18.4564 10.5531 18.5597 10.8254 18.5597H11.6394C11.9117 18.5597 12.1728 18.4564 12.3653 18.2726C12.5579 18.0889 12.666 17.8396 12.666 17.5797V3.05188C12.666 2.79196 12.5579 2.5427 12.3653 2.35891C12.1728 2.17512 11.9117 2.07187 11.6394 2.07187H10.8254Z" />
    </symbol>

    <symbol id="graph-painted" viewBox="0 0 22 21">
        <path d="M4.56574 20H3.93426C3.68025 20 3.42873 19.9405 3.19405 19.8248C2.95938 19.7092 2.74614 19.5397 2.56653 19.3261C2.38692 19.1124 2.24444 18.8587 2.14724 18.5796C2.05003 18.3004 2 18.0012 2 17.699V11.301C2 10.6907 2.20379 10.1055 2.56653 9.67394C2.92928 9.24242 3.42126 9 3.93426 9H4.56574C5.07874 9 5.57072 9.24242 5.93347 9.67394C6.29621 10.1055 6.5 10.6907 6.5 11.301V17.699C6.5 18.0012 6.44997 18.3004 6.35276 18.5796C6.25556 18.8587 6.11308 19.1124 5.93347 19.3261C5.75386 19.5397 5.54062 19.7092 5.30595 19.8248C5.07127 19.9405 4.81975 20 4.56574 20Z"/>
        <path d="M18.5662 20H17.9338C17.6798 20 17.4284 19.9387 17.1937 19.8196C16.9591 19.7004 16.746 19.5258 16.5664 19.3057C16.3868 19.0856 16.2444 18.8242 16.1472 18.5366C16.05 18.249 16 17.9408 16 17.6295V8.37052C16 7.74182 16.2037 7.13887 16.5664 6.69431C16.929 6.24975 17.4209 6 17.9338 6H18.5662C18.8202 6 19.0716 6.06132 19.3063 6.18044C19.5409 6.29957 19.754 6.47419 19.9336 6.69431C20.1132 6.91443 20.2556 7.17576 20.3528 7.46336C20.45 7.75096 20.5 8.05922 20.5 8.37052V17.6295C20.5 17.9408 20.45 18.249 20.3528 18.5366C20.2556 18.8242 20.1132 19.0856 19.9336 19.3057C19.754 19.5258 19.5409 19.7004 19.3063 19.8196C19.0716 19.9387 18.8202 20 18.5662 20Z"/>
        <path d="M11.5657 20H10.9343C10.6802 20 10.4287 19.9394 10.1941 19.8215C9.95938 19.7037 9.74614 19.531 9.56653 19.3133C9.38692 19.0956 9.24444 18.8372 9.14724 18.5527C9.05003 18.2683 9 17.9634 9 17.6555V3.34449C9 2.72269 9.20379 2.12636 9.56653 1.68668C9.92928 1.24701 10.4213 1 10.9343 1H11.5657C12.0787 1 12.5707 1.24701 12.9335 1.68668C13.2962 2.12636 13.5 2.72269 13.5 3.34449V17.6555C13.5 17.9634 13.45 18.2683 13.3528 18.5527C13.2556 18.8372 13.1131 19.0956 12.9335 19.3133C12.7539 19.531 12.5406 19.7037 12.3059 19.8215C12.0713 19.9394 11.8198 20 11.5657 20Z"/>
    </symbol>

    <symbol id="shopping-cart" viewBox="0 0 30 30">
        <path d="M9.0061 19.7527H25.5361C27.4105 19.7527 28.9396 18.2236 28.9396 16.3493V9.39448C28.9396 9.38831 28.9396 9.37598 28.9396 9.36982C28.9396 9.35132 28.9396 9.33899 28.9396 9.32049C28.9396 9.30816 28.9396 9.29583 28.9334 9.2835C28.9334 9.27117 28.9272 9.25267 28.9272 9.24034C28.9272 9.22801 28.9211 9.21568 28.9211 9.20335C28.9149 9.19101 28.9149 9.17868 28.9087 9.16019C28.9026 9.14785 28.9026 9.13552 28.8964 9.12319C28.8902 9.11086 28.8902 9.09853 28.8841 9.0862C28.8779 9.07387 28.8717 9.06154 28.8656 9.04304C28.8594 9.03071 28.8532 9.01838 28.8471 9.01221C28.8409 8.99988 28.8347 8.98755 28.8286 8.97522C28.8224 8.96289 28.8162 8.95672 28.8101 8.94439C28.8039 8.93206 28.7916 8.91973 28.7854 8.9074C28.7792 8.89506 28.7731 8.8889 28.7608 8.87657C28.7546 8.86424 28.7423 8.85807 28.7361 8.84574C28.7299 8.83341 28.7176 8.82724 28.7114 8.81491C28.7053 8.80258 28.6929 8.79641 28.6868 8.79025C28.6744 8.77792 28.6683 8.77175 28.6559 8.75942C28.6436 8.75325 28.6374 8.74092 28.6251 8.73476C28.6128 8.72859 28.6004 8.71626 28.5881 8.7101C28.5758 8.70393 28.5696 8.69776 28.5573 8.6916C28.545 8.68543 28.5326 8.67927 28.5203 8.66694C28.508 8.66077 28.4956 8.6546 28.4833 8.64844C28.471 8.64227 28.4586 8.63611 28.4463 8.62994C28.434 8.62378 28.4216 8.61761 28.4093 8.61145C28.397 8.60528 28.3847 8.60528 28.3723 8.59911C28.36 8.59295 28.3415 8.58678 28.3292 8.58678C28.3168 8.58678 28.3045 8.58062 28.2983 8.58062C28.2798 8.57445 28.2675 8.57445 28.249 8.57445C28.2428 8.57445 28.2367 8.56829 28.2243 8.56829L7.27357 5.67661V2.75411C7.27357 2.72328 7.27357 2.69245 7.2674 2.66779C7.2674 2.66162 7.2674 2.65546 7.26123 2.64312C7.26123 2.62463 7.25507 2.60613 7.25507 2.58763C7.2489 2.56914 7.2489 2.55681 7.24274 2.53831C7.24274 2.52598 7.23657 2.51981 7.23657 2.50748C7.23041 2.48898 7.22424 2.47049 7.21808 2.45199C7.21808 2.44582 7.21191 2.43349 7.21191 2.42733C7.20574 2.40883 7.19958 2.3965 7.18725 2.378C7.18108 2.37184 7.18108 2.35951 7.17492 2.35334C7.16875 2.34101 7.16258 2.32868 7.15025 2.31635C7.14409 2.30402 7.13792 2.29785 7.13176 2.28552C7.12559 2.27319 7.11943 2.26702 7.11326 2.25469C7.10709 2.24236 7.09476 2.23003 7.0886 2.2177C7.08243 2.21153 7.07627 2.20537 7.0701 2.1992C7.05777 2.18687 7.04544 2.17454 7.03311 2.16221C7.02694 2.15604 7.02078 2.14987 7.01461 2.14371C7.00228 2.13138 6.98995 2.11905 6.97145 2.10672C6.96528 2.10055 6.95295 2.09438 6.94679 2.08822C6.93446 2.07589 6.92213 2.06972 6.90979 2.05739C6.8913 2.04506 6.8728 2.03273 6.86047 2.02656C6.8543 2.0204 6.84814 2.0204 6.84197 2.01423C6.81731 2.0019 6.78648 1.98957 6.76182 1.97724L2.21776 0.0658951C1.79233 -0.112908 1.30524 0.0843919 1.12644 0.50982C0.947639 0.935248 1.14494 1.42233 1.57037 1.60113L5.60268 3.30285V7.07621V7.67427V12.2615V16.3616V21.5408C5.60268 23.2671 6.89746 24.6975 8.56835 24.9133C8.26623 25.4189 8.08743 26.0108 8.08743 26.6397C8.08743 28.4956 9.598 30 11.4477 30C13.2974 30 14.808 28.4894 14.808 26.6397C14.808 26.0232 14.6415 25.4374 14.3455 24.9442H21.8306C21.5346 25.4436 21.3682 26.0232 21.3682 26.6397C21.3682 28.4956 22.8788 30 24.7284 30C26.5781 30 28.0887 28.4894 28.0887 26.6397C28.0887 24.79 26.5781 23.2795 24.7284 23.2795H9.0061C8.04427 23.2795 7.2674 22.4964 7.2674 21.5408V19.2841C7.77298 19.5801 8.37105 19.7527 9.0061 19.7527ZM13.1494 26.6336C13.1494 27.5707 12.3849 28.3291 11.4539 28.3291C10.5228 28.3291 9.75831 27.5646 9.75831 26.6336C9.75831 25.7025 10.5228 24.938 11.4539 24.938C12.3849 24.938 13.1494 25.6964 13.1494 26.6336ZM26.4301 26.6336C26.4301 27.5707 25.6656 28.3291 24.7346 28.3291C23.8036 28.3291 23.0391 27.5646 23.0391 26.6336C23.0391 25.7025 23.8036 24.938 24.7346 24.938C25.6656 24.938 26.4301 25.6964 26.4301 26.6336ZM25.5361 18.088H9.0061C8.04427 18.088 7.2674 17.305 7.2674 16.3493V12.2492V7.66194V7.35366L27.2748 10.1097V16.3431C27.2748 17.3111 26.4918 18.088 25.5361 18.088Z"/>
    </symbol>

    <symbol id="buy" viewBox="0 0 21 22">
    <path d="M19.8377 4.19598L10.3346 0.0494532C10.2597 0.0168358 10.1788 0 10.097 0C10.0153 0 9.93437 0.0168358 9.85944 0.0494532L0.356366 4.19598C0.250494 4.24207 0.160393 4.31794 0.0970981 4.41431C0.0338028 4.51069 5.95132e-05 4.62338 0 4.73859V16.5858C1.84402e-07 16.6951 0.0302906 16.8022 0.0875221 16.8953C0.144754 16.9885 0.226696 17.064 0.324292 17.1136L9.82737 21.9354C9.91088 21.9779 10.0033 22 10.097 22C10.1896 21.9998 10.2808 21.9784 10.3637 21.9372L19.8668 17.1746C19.9652 17.1253 20.0479 17.0497 20.1057 16.9561C20.1635 16.8626 20.1941 16.7549 20.194 16.6451V4.73859C20.194 4.62338 20.1602 4.51069 20.0969 4.41431C20.0336 4.31794 19.9435 4.24207 19.8377 4.19598ZM10.097 1.23832L18.1182 4.73859L10.097 8.23885L8.01228 7.32898L11.1845 5.94464C11.2903 5.89845 11.3802 5.82253 11.4434 5.72616C11.5065 5.6298 11.5402 5.51716 11.5402 5.40203C11.5402 5.2869 11.5065 5.17427 11.4434 5.0779C11.3802 4.98154 11.2903 4.90562 11.1845 4.85943L8.63592 3.75112C8.56098 3.7185 8.4801 3.70167 8.39834 3.70167C8.31658 3.70167 8.2357 3.7185 8.16076 3.75112L3.98476 5.57145L2.0788 4.73859L10.097 1.23832ZM4.75154 7.19926L5.93942 7.71757V10.2961L4.75154 9.70376V7.19926ZM5.46427 6.21831L8.39597 4.94058L9.45912 5.40322L6.53336 6.68213L5.46427 6.21831ZM1.18788 5.64431L3.56365 6.68094V10.0698C3.5636 10.1799 3.59431 10.2878 3.65232 10.3815C3.71034 10.4751 3.79337 10.5508 3.8921 10.6L6.26787 11.7847C6.35844 11.8299 6.45909 11.8512 6.56024 11.8466C6.66138 11.842 6.75968 11.8117 6.8458 11.7586C6.93191 11.7055 7.00297 11.6313 7.05224 11.5431C7.10151 11.4549 7.12735 11.3555 7.12731 11.2546V8.23352L9.50307 9.27015V20.4415L1.18788 16.2227V5.64431ZM10.691 20.4468V9.27252L19.0061 5.64431V16.2796L10.691 20.4468Z" fill="#0019FF"/>
    </symbol>

    <symbol id="microphone" viewBox="0 0 22 22">
        <g clip-path="url(#clip0)">
            <path d="M18.1743 11.7731C18.1743 11.4109 17.8806 11.1172 17.5182 11.1172C17.1558 11.1172 16.8621 11.4109 16.8621 11.7731C16.8621 14.9824 14.2514 17.5931 11.0421 17.5931C7.83308 17.5931 5.22238 14.9824 5.22238 11.7731C5.22238 11.4109 4.92865 11.1172 4.56627 11.1172C4.20389 11.1172 3.91016 11.4109 3.91016 11.7731C3.91016 15.4847 6.75986 18.5424 10.386 18.8747V20.641H7.95124C7.58886 20.641 7.29513 20.9347 7.29513 21.2971C7.29513 21.6595 7.58886 21.9532 7.95124 21.9532H14.1332C14.4954 21.9532 14.7892 21.6595 14.7892 21.2971C14.7892 20.9347 14.4954 20.641 14.1332 20.641H11.6983V18.8747C15.3246 18.5426 18.1743 15.4847 18.1743 11.7731Z" fill="#0019FF"/>
            <path d="M11.0446 15.978C13.3611 15.978 15.2457 14.0934 15.2457 11.777V4.15791C15.2457 1.84162 13.3611 -0.0429688 11.0446 -0.0429688C8.72834 -0.0429688 6.84375 1.84162 6.84375 4.15791V11.777C6.84375 14.0934 8.72834 15.978 11.0446 15.978ZM8.15581 4.15791C8.15581 2.56504 9.45176 1.26926 11.0446 1.26926C12.6375 1.26926 13.9334 2.56504 13.9334 4.15791V11.777C13.9334 13.3699 12.6375 14.6658 11.0446 14.6658C9.45176 14.6658 8.15581 13.3699 8.15581 11.777V4.15791Z" fill="#0019FF"/>
        </g>
        <defs>
            <clipPath id="clip0">
                <rect width="22" height="22" fill="white"/>
            </clipPath>
        </defs>
    </symbol>

    <symbol id="verified" viewBox="0 0 10 10">
        <path d="M8.53553 1.46445C7.59115 0.520098 6.33555 0 5 0C3.66443 0 2.40881 0.520098 1.46445 1.46445C0.520078 2.40883 0 3.66445 0 5C0 6.33555 0.520078 7.59115 1.46445 8.53553C2.40883 9.4799 3.66443 10 5 10C6.33555 10 7.59115 9.4799 8.53553 8.53553C9.4799 7.59115 10 6.33555 10 5C10 3.66445 9.4799 2.40885 8.53553 1.46445ZM5 9.41406C2.56607 9.41406 0.585938 7.43393 0.585938 5C0.585938 2.56607 2.56607 0.585938 5 0.585938C7.43393 0.585938 9.41406 2.56607 9.41406 5C9.41406 7.43393 7.43393 9.41406 5 9.41406Z"/>
        <path d="M4.50391 6.39844C4.50911 6.08854 4.54427 5.84375 4.60938 5.66406C4.67448 5.48438 4.80729 5.28516 5.00781 5.06641L5.51953 4.53906C5.73828 4.29167 5.84766 4.02604 5.84766 3.74219C5.84766 3.46875 5.77604 3.25521 5.63281 3.10156C5.48958 2.94531 5.28125 2.86719 5.00781 2.86719C4.74219 2.86719 4.52865 2.9375 4.36719 3.07812C4.20573 3.21875 4.125 3.40755 4.125 3.64453H3.40234C3.40755 3.22266 3.55729 2.88281 3.85156 2.625C4.14844 2.36458 4.53385 2.23438 5.00781 2.23438C5.5 2.23438 5.88281 2.36719 6.15625 2.63281C6.43229 2.89583 6.57031 3.25781 6.57031 3.71875C6.57031 4.17448 6.35938 4.6237 5.9375 5.06641L5.51172 5.48828C5.32161 5.69922 5.22656 6.0026 5.22656 6.39844H4.50391ZM4.47266 7.63672C4.47266 7.51953 4.50781 7.42188 4.57812 7.34375C4.65104 7.26302 4.75781 7.22266 4.89844 7.22266C5.03906 7.22266 5.14583 7.26302 5.21875 7.34375C5.29167 7.42188 5.32812 7.51953 5.32812 7.63672C5.32812 7.75391 5.29167 7.85156 5.21875 7.92969C5.14583 8.00521 5.03906 8.04297 4.89844 8.04297C4.75781 8.04297 4.65104 8.00521 4.57812 7.92969C4.50781 7.85156 4.47266 7.75391 4.47266 7.63672Z"/>
    </symbol>

    <symbol id="okay" viewBox="0 0 20 20">
        <path d="M17.0711 2.92891C15.1823 1.0402 12.6711 0 10 0C7.32887 0 4.81762 1.0402 2.92891 2.92891C1.04016 4.81766 0 7.32891 0 10C0 12.6711 1.04016 15.1823 2.92891 17.0711C4.81766 18.9598 7.32887 20 10 20C12.6711 20 15.1823 18.9598 17.0711 17.0711C18.9598 15.1823 20 12.6711 20 10C20 7.32891 18.9598 4.8177 17.0711 2.92891ZM10 18.8281C5.13215 18.8281 1.17188 14.8679 1.17188 10C1.17188 5.13215 5.13215 1.17188 10 1.17188C14.8679 1.17188 18.8281 5.13215 18.8281 10C18.8281 14.8679 14.8679 18.8281 10 18.8281Z" />
        <path d="M14.7775 6.79265C14.5487 6.5639 14.1777 6.5639 13.9489 6.79269L8.77474 11.9669L6.05103 9.24316C5.82225 9.01437 5.45123 9.01437 5.2224 9.24316C4.99357 9.47195 4.99357 9.84296 5.2224 10.0718L8.36041 13.2098C8.47482 13.3242 8.62478 13.3814 8.77471 13.3814C8.92463 13.3814 9.07463 13.3242 9.189 13.2098L14.7775 7.62128C15.0063 7.39249 15.0063 7.02148 14.7775 6.79265Z" />
    </symbol>

    <symbol id="hourglass" viewBox="0 0 14 14">
        <path d="M9.88647 5.58283C10.8324 4.76723 11.375 3.59827 11.375 2.37593V0.875004H12.25V0H1.75V0.875004H2.625V2.37593C2.625 3.59827 3.16761 4.76723 4.11352 5.58283L4.94279 6.29718C5.14744 6.47363 5.26451 6.72998 5.26451 7C5.26451 7.27002 5.14744 7.52637 4.94279 7.70238L4.11352 8.41717C3.16761 9.23277 2.625 10.4017 2.625 11.6241V13.125H1.75V14H12.25V13.125H11.375V11.6241C11.375 10.4017 10.8324 9.23277 9.8865 8.41717L9.09355 7.73358C8.87993 7.54943 8.7573 7.28199 8.7573 7C8.7573 6.71801 8.87993 6.45057 9.09355 6.26642L9.88647 5.58283ZM8.52185 8.39667L9.31481 9.08026C10.068 9.72923 10.5 10.6564 10.5 11.6241V13.125H9.84352H6.99999C6.73844 13.125 6.87719 13.125 6.63158 13.125H4.15647H3.50001V11.6241C3.50001 10.6563 3.93195 9.72923 4.68518 9.08026L5.51445 8.36506C5.91178 8.0224 6.13952 7.52467 6.13952 7C6.13952 6.47533 5.91178 5.9776 5.51445 5.63453L4.68518 4.91974C3.93195 4.27077 3.50001 3.34362 3.50001 2.37593V0.875004H10.5V2.3759C10.5 3.34362 10.0681 4.27074 9.31484 4.91971L8.52189 5.6033C8.11559 5.95408 7.88229 6.46292 7.88229 6.99997C7.88226 7.53705 8.11555 8.04589 8.52185 8.39667Z"/>
    </symbol>

    <symbol id="padlock" viewBox="0 0 16 16">
        <path d="M7.99992 8.64648C7.12442 8.64648 6.41211 9.35877 6.41211 10.2343C6.41211 10.6685 6.59258 11.0884 6.90764 11.3871V12.8207C6.90764 13.423 7.39764 13.913 7.99992 13.913C8.6022 13.913 9.0922 13.423 9.0922 12.8207V11.3871C9.40714 11.0885 9.58773 10.6686 9.58773 10.2343C9.58773 9.35877 8.87545 8.64648 7.99992 8.64648ZM8.5618 10.8304C8.4102 10.9732 8.32326 11.1729 8.32326 11.3782V12.8207C8.32326 12.999 8.17827 13.144 7.99998 13.144C7.8217 13.144 7.6767 12.999 7.6767 12.8207V11.3782C7.6767 11.1729 7.58976 10.9732 7.43826 10.8305C7.27251 10.6741 7.1812 10.4624 7.1812 10.2343C7.1812 9.78283 7.54855 9.41548 8.00001 9.41548C8.45148 9.41548 8.81883 9.78283 8.81883 10.2343C8.81873 10.4624 8.72742 10.6741 8.5618 10.8304Z"/>
        <path d="M12.656 6.55862H5.26728V3.50225C5.26728 1.99516 6.49334 0.769 8.00047 0.769C9.50759 0.769 10.7337 1.99516 10.7337 3.50225V4.88562C10.7337 5.09797 10.9059 5.27012 11.1182 5.27012C11.3305 5.27012 11.5027 5.098 11.5027 4.88562V3.50225C11.5027 1.57109 9.93159 0 8.00047 0C6.06934 0 4.49825 1.57109 4.49825 3.50225V6.55862H3.34488C2.70884 6.55862 2.19141 7.07609 2.19141 7.71209V14.8465C2.19141 15.4825 2.70884 16 3.34488 16H12.656C13.2921 16 13.8095 15.4825 13.8095 14.8465V7.71212C13.8095 7.07609 13.2921 6.55862 12.656 6.55862ZM13.0405 14.8465C13.0405 15.0585 12.8681 15.231 12.656 15.231H3.34491C3.13291 15.231 2.96041 15.0586 2.96041 14.8465V7.71212C2.96041 7.50012 3.13291 7.32762 3.34491 7.32762H12.6561C12.8681 7.32762 13.0406 7.50009 13.0406 7.71212V14.8465H13.0405Z"/>
    </symbol>

    <symbol id="magnifier" viewBox="0 0 22 22">
        <path d="M9.58608 15.4612C8.24324 15.4612 6.93056 15.063 5.81405 14.3169C4.69754 13.5709 3.82735 12.5104 3.31353 11.2698C2.79972 10.0291 2.66536 8.66398 2.92744 7.34697C3.18952 6.02995 3.83627 4.82023 4.78591 3.87081C5.73554 2.92138 6.9454 2.27489 8.26247 2.01309C9.57954 1.75129 10.9447 1.88595 12.1852 2.40003C13.4257 2.91412 14.486 3.78453 15.2318 4.9012C15.9776 6.01787 16.3756 7.33064 16.3753 8.67348C16.3729 10.4732 15.6569 12.1986 14.3841 13.4711C13.1113 14.7436 11.3858 15.4593 9.58608 15.4612ZM9.58608 3.35095C8.53338 3.35095 7.50432 3.66311 6.62904 4.24796C5.75375 4.8328 5.07155 5.66407 4.6687 6.63663C4.26585 7.6092 4.16044 8.67938 4.36582 9.71185C4.57119 10.7443 5.07811 11.6927 5.82248 12.4371C6.56685 13.1814 7.51523 13.6884 8.5477 13.8937C9.58017 14.0991 10.6504 13.9937 11.6229 13.5909C12.5955 13.188 13.4268 12.5058 14.0116 11.6305C14.5964 10.7552 14.9086 9.72618 14.9086 8.67348C14.9071 7.26233 14.3458 5.90943 13.348 4.9116C12.3501 3.91376 10.9972 3.3525 9.58608 3.35095Z" />
        <path d="M19.8516 20.5654C19.6575 20.5654 19.4713 20.4884 19.3339 20.3513L12.9598 13.9772C12.8262 13.8389 12.7523 13.6536 12.7539 13.4613C12.7556 13.2691 12.8327 13.0851 12.9687 12.9492C13.1047 12.8132 13.2886 12.7361 13.4809 12.7344C13.6731 12.7327 13.8584 12.8066 13.9967 12.9402L20.3708 19.3144C20.4731 19.417 20.5428 19.5477 20.5709 19.6898C20.599 19.832 20.5843 19.9793 20.5288 20.1132C20.4732 20.247 20.3793 20.3614 20.2587 20.4419C20.1382 20.5224 19.9966 20.5654 19.8516 20.5654Z"/>
    </symbol>

    <symbol id="arrow-long" viewBox="0 0 12 8">
        <path d="M12 3.33333L2.55333 3.33333L4.94 0.94L4 0L0 4L4 8L4.94 7.06L2.55333 4.66667L12 4.66667L12 3.33333Z"/>
    </symbol>

    <symbol id="arrow-small" viewBox="0 0 8 5">
        <path d="M1.3225 0.0107423L4 2.68241L6.6775 0.0107433L7.5 0.833243L4 4.33324L0.5 0.833242L1.3225 0.0107423Z"/>
    </symbol>

    <symbol id="phone" viewBox="0 0 14 14">
        <path d="M13.0075 9.535C12.085 9.535 11.1925 9.385 10.36 9.115C10.0975 9.025 9.805 9.0925 9.6025 9.295L8.425 10.7725C6.3025 9.76 4.315 7.8475 3.2575 5.65L4.72 4.405C4.9225 4.195 4.9825 3.9025 4.9 3.64C4.6225 2.8075 4.48 1.915 4.48 0.9925C4.48 0.5875 4.1425 0.25 3.7375 0.25H1.1425C0.7375 0.25 0.25 0.43 0.25 0.9925C0.25 7.96 6.0475 13.75 13.0075 13.75C13.54 13.75 13.75 13.2775 13.75 12.865V10.2775C13.75 9.8725 13.4125 9.535 13.0075 9.535Z" />
    </symbol>

    <symbol id="filter-type-1" viewBox="0 0 22 21">
        <rect width="22" height="9"/>
        <rect y="12" width="22" height="9"/>
    </symbol>

    <symbol id="filter-type-2" viewBox="0 0 22 21">
        <rect x="12" width="10" height="9"/>
        <rect x="12" y="12" width="10" height="9"/>
        <rect width="10" height="9"/>
        <rect y="12" width="10" height="9"/>
    </symbol>

    <symbol id="cross" viewBox="0 0 16 16">
        <rect x="1.0625" y="0.140625" width="20" height="1.5" rx="0.75" transform="rotate(45 1.0625 0.140625)"/>
        <rect x="0.0625" y="14.1406" width="20" height="1.5" rx="0.75" transform="rotate(-45 0.0625 14.1406)"/>
    </symbol>

    <symbol id="filter-module__type-1" viewBox="0 0 51 109">
        <path d="M51 0H0V109H51V0Z"/>
        <path d="M46.364 29.8125H4.63672V52.1715H46.364V29.8125Z" fill="white"/>
        <path d="M51 28.8809H0V29.8125H51V28.8809Z" fill="white"/>
        <path d="M46.364 54.0332H4.63672V76.3922H46.364V54.0332Z" fill="white"/>
        <path d="M46.364 78.2559H4.63672V99.6832H46.364V78.2559Z" fill="white"/>
        <path d="M25.4998 7.45304C26.7801 7.45304 27.818 6.41029 27.818 5.12398C27.818 3.83768 26.7801 2.79492 25.4998 2.79492C24.2195 2.79492 23.1816 3.83768 23.1816 5.12398C23.1816 6.41029 24.2195 7.45304 25.4998 7.45304Z" fill="white"/>
    </symbol>

    <symbol id="filter-module__type-2" viewBox="0 0 52 116">
        <path d="M52 0H0V116H52V0Z"/>
        <path d="M47.272 29.6973H4.72656V51.9693H47.272V29.6973Z" fill="white"/>
        <path d="M52 28.7676H0V29.6956H52V28.7676Z" fill="white"/>
        <path d="M52 57.5371H0V58.4651H52V57.5371Z" fill="white"/>
        <path d="M52 86.3027H0V87.2307H52V86.3027Z" fill="white"/>
        <path d="M47.272 58.4629H4.72656V80.7349H47.272V58.4629Z" fill="white"/>
        <path d="M47.272 87.2324H4.72656V109.504H47.272V87.2324Z" fill="white"/>
        <path d="M26.9457 7.4232C28.2511 7.4232 29.3093 6.3845 29.3093 5.1032C29.3093 3.8219 28.2511 2.7832 26.9457 2.7832C25.6403 2.7832 24.582 3.8219 24.582 5.1032C24.582 6.3845 25.6403 7.4232 26.9457 7.4232Z" fill="white"/>
    </symbol>

    <symbol id="filter-module__type-3" viewBox="0 0 50 141">
        <path d="M50 0H0V141H50V0Z"/>
        <path d="M45.454 29.4902H4.54492V51.6079H45.454V29.4902Z" fill="white"/>
        <path d="M50 28.5684H0V29.4899H50V28.5684Z" fill="white"/>
        <path d="M50 57.1367H0V58.0583H50V57.1367Z" fill="white"/>
        <path d="M50 85.7051H0V86.6266H50V85.7051Z" fill="white"/>
        <path d="M45.454 58.0586H4.54492V80.1762H45.454V58.0586Z" fill="white"/>
        <path d="M45.454 86.627H4.54492V108.745H45.454V86.627Z" fill="white"/>
        <path d="M50 115.195H0V116.117H50V115.195Z" fill="white"/>
        <path d="M45.454 115.195H4.54492V136.391H45.454V115.195Z" fill="white"/>
        <path d="M25.9094 7.37152C27.1646 7.37152 28.1822 6.34001 28.1822 5.06759C28.1822 3.79517 27.1646 2.76367 25.9094 2.76367C24.6543 2.76367 23.6367 3.79517 23.6367 5.06759C23.6367 6.34001 24.6543 7.37152 25.9094 7.37152Z" fill="white"/>
    </symbol>

    <symbol id="filter-module__type-4" viewBox="0 0 51 57">
        <path d="M51 0H0V57H51V0Z"/>
        <path d="M46.364 29.4199H4.63672V51.4844H46.364V29.4199Z" fill="white"/>
        <path d="M51 28.5H0V29.4194H51V28.5Z" fill="white"/>
        <path d="M26.4276 7.35459C27.7079 7.35459 28.7457 6.32556 28.7457 5.0562C28.7457 3.78684 27.7079 2.75781 26.4276 2.75781C25.1473 2.75781 24.1094 3.78684 24.1094 5.0562C24.1094 6.32556 25.1473 7.35459 26.4276 7.35459Z" fill="white"/>
    </symbol>

    <symbol id="phone-icon" viewBox="0 0 24 24">
        <path d="M20.01 15.38C18.78 15.38 17.59 15.18 16.48 14.82C16.13 14.7 15.74 14.79 15.47 15.06L13.9 17.03C11.07 15.68 8.42 13.13 7.01 10.2L8.96 8.54C9.23 8.26 9.31 7.87 9.2 7.52C8.83 6.41 8.64 5.22 8.64 3.99C8.64 3.45 8.19 3 7.65 3H4.19C3.65 3 3 3.24 3 3.99C3 13.28 10.73 21 20.01 21C20.72 21 21 20.37 21 19.82V16.37C21 15.83 20.55 15.38 20.01 15.38Z"/>
    </symbol>

    <symbol id="arrow-optional" viewBox="0 0 10 7">
        <path d="M1.175 0.15625L5 3.97292L8.825 0.15625L10 1.33125L5 6.33125L0 1.33125L1.175 0.15625Z"/>
    </symbol>

    <symbol id="default-box" viewBox="0 0 408 408">
        <path d="M258.263 355.776C258.174 355.788 258.083 355.788 257.994 355.776C216.378 346.401 112.827 323.251 93.3413 319.57L90.3303 319.081C90.1434 319.107 89.9529 319.089 89.7742 319.028C89.5956 318.968 89.4338 318.865 89.3021 318.73C89.0851 318.52 88.9534 318.237 88.9323 317.936C88.9112 317.635 89.0023 317.336 89.1879 317.098L85.8341 244.654L56.8988 240.247C56.6619 240.211 56.4409 240.106 56.2632 239.945C56.0854 239.785 55.9587 239.575 55.8988 239.343C55.8388 239.111 55.8483 238.867 55.9259 238.64C56.0036 238.414 56.1461 238.215 56.3357 238.068L83.6065 217.203L28.3959 160.181C28.177 159.955 28.0547 159.652 28.0547 159.337C28.0547 159.022 28.177 158.719 28.3959 158.492L89.5959 92.6898C89.7109 92.5699 89.849 92.4744 90.0018 92.4092C90.1547 92.344 90.3192 92.3104 90.4853 92.3104C90.6515 92.3104 90.816 92.344 90.9688 92.4092C91.1217 92.4744 91.2598 92.5699 91.3748 92.6898L146.651 149.745L164.382 73.8076C164.444 73.5228 164.605 73.2694 164.837 73.0929C165.069 72.9164 165.356 72.8284 165.647 72.8447L319.528 91.3924C319.69 91.4144 319.845 91.4683 319.985 91.5509C320.125 91.6336 320.247 91.7434 320.344 91.8738C320.445 92.0046 320.517 92.1548 320.556 92.315C320.596 92.4751 320.601 92.6416 320.573 92.8041L308.039 170.879L369.729 135.114C369.959 134.983 370.225 134.93 370.487 134.963C370.749 134.997 370.994 135.114 371.184 135.298C371.374 135.481 371.5 135.722 371.542 135.983C371.584 136.244 371.541 136.511 371.418 136.746L330.618 209.965C330.49 210.194 330.293 210.377 330.055 210.488L307.427 220.794C307.538 220.985 307.597 221.201 307.598 221.422V267.763C307.601 267.972 307.548 268.177 307.443 268.358L259.299 355.14C259.197 355.327 259.048 355.484 258.866 355.596C258.684 355.708 258.476 355.77 258.263 355.776ZM143.044 327.633C152.452 329.697 163.069 332.039 174.827 334.65C212.902 343.096 251.335 351.737 257.635 353.157L305.183 267.477V223.503L262.751 246.881L256.647 344.744C256.637 344.914 256.591 345.08 256.513 345.232C256.434 345.383 256.325 345.517 256.192 345.623C256.059 345.73 255.906 345.808 255.741 345.852C255.576 345.896 255.404 345.905 255.236 345.878L143.044 327.633ZM93.6759 317.106L254.289 343.275L260.173 248.954L228.202 266.09C227.968 266.209 227.703 266.255 227.443 266.22L88.2985 245.004L91.6196 316.747C92.1581 316.845 92.8273 316.959 93.6759 317.106ZM88.1842 242.532L227.402 263.748L258.059 247.33L88.3801 225.216C88.1641 225.188 87.9595 225.103 87.7874 224.97C87.6152 224.837 87.4818 224.66 87.4009 224.458C87.3744 224.395 87.3552 224.329 87.3437 224.262L88.1842 242.532ZM90.8689 223.062L260.752 245.192L293.294 227.24L260.401 242.23C260.157 242.336 259.886 242.36 259.627 242.299C259.368 242.238 259.136 242.095 258.965 241.891C258.795 241.688 258.694 241.434 258.68 241.169C258.665 240.903 258.736 240.64 258.883 240.418L304.367 174.192L148.593 153.408L153.766 227.877C153.78 228.059 153.752 228.242 153.684 228.411C153.616 228.581 153.51 228.733 153.374 228.856C153.24 228.98 153.079 229.073 152.904 229.127C152.729 229.18 152.544 229.194 152.363 229.166L93.3821 220.002L90.8689 223.062ZM60.1057 238.272L85.7199 242.165L84.6673 219.504L60.1057 238.272ZM307.452 174.053V174.102L263.404 238.183L328.684 208.431L367.101 139.447L307.452 174.053ZM95.161 217.766L151.22 226.473L146.243 154.779L95.161 217.766ZM87.0989 218.99L87.3193 223.837C87.3527 223.614 87.4426 223.404 87.5804 223.225L90.5751 219.504L87.0989 218.99ZM86.2095 216.371L92.3621 217.326L145.402 151.964L90.4935 95.301L30.9581 159.308L86.2095 216.371ZM148.838 150.96L305.412 171.899L317.97 93.6935L166.463 75.4069L148.838 150.96Z" fill="#0019FF"/>
        <path d="M153.815 297.024H153.586L92.3865 285.6C92.1021 285.548 91.8457 285.396 91.6632 285.172C91.4808 284.947 91.3842 284.665 91.391 284.376V262.344C91.3913 262.165 91.4309 261.988 91.507 261.826C91.5832 261.664 91.694 261.52 91.8316 261.406C91.9703 261.292 92.1315 261.21 92.3045 261.163C92.4775 261.117 92.6584 261.108 92.8353 261.137L156.483 272.561C156.74 272.61 156.975 272.741 157.152 272.933C157.33 273.125 157.442 273.369 157.472 273.629C157.502 273.889 157.449 274.152 157.319 274.379C157.19 274.607 156.991 274.787 156.753 274.894L139.788 282.238L154.606 294.837C154.813 295.012 154.956 295.25 155.012 295.514C155.068 295.779 155.035 296.055 154.917 296.298C154.821 296.512 154.667 296.693 154.472 296.822C154.277 296.951 154.049 297.021 153.815 297.024ZM93.839 283.356L149.515 293.76L136.703 282.867C136.544 282.733 136.422 282.561 136.349 282.367C136.276 282.172 136.255 281.962 136.287 281.757C136.317 281.551 136.399 281.357 136.525 281.191C136.65 281.026 136.816 280.895 137.005 280.81L152.069 274.282L93.839 263.805V283.356Z" fill="#0019FF"/>
    </symbol>

    <symbol id="voxweb-logo" viewBox="0 0 24 11">
        <path d="M20.7956 0L17.8906 8.51781V10.221H19.5153L23.0011 0H20.7956Z"/>
        <path d="M14.4641 0L11.0742 8.51781V10.221H12.97L17.0364 0H14.4641Z"/>
        <path d="M8.01106 0L5.10547 8.51781V10.221H6.72944L10.2159 0H8.01106Z"/>
        <path d="M2.07365 0.000488281H0L1.88036 5.96271H3.40698V4.23056L2.07365 0.000488281Z"/>
    </symbol>

    <symbol id="facebook" viewBox="0 0 26 26">
        <path d="M13.0001 0.0541992C5.82041 0.0541992 0 5.87461 0 13.0543C0 19.4936 4.68678 24.8264 10.8319 25.8591V15.7664H7.69593V12.1345H10.8319V9.45646C10.8319 6.34915 12.7298 4.65584 15.5021 4.65584C16.8299 4.65584 17.971 4.75478 18.3022 4.79836V8.04633L16.3794 8.04726C14.872 8.04726 14.5814 8.76341 14.5814 9.81469V12.1326H18.1782L17.709 15.7646H14.5814V25.946C21.0135 25.1631 26 19.6944 26 13.0506C26 5.87461 20.1796 0.0541992 13.0001 0.0541992Z"/>
    </symbol>

    <symbol id="vk" viewBox="0 0 26 26">
        <path d="M13 0C5.82054 0 0 5.82028 0 13C0 20.1797 5.82054 26 13 26C20.1795 26 26 20.1797 26 13C26 5.82028 20.1795 0 13 0ZM19.5943 14.406C20.2002 14.9978 20.8412 15.5548 21.3852 16.2078C21.6261 16.4966 21.8533 16.7953 22.0262 17.1313C22.273 17.6103 22.0501 18.1356 21.6214 18.1641L18.9581 18.1636C18.2702 18.2205 17.7228 17.9431 17.2613 17.4728C16.893 17.098 16.5512 16.6977 16.1963 16.3102C16.0514 16.1511 15.8987 16.0014 15.7168 15.8835C15.3537 15.6473 15.0382 15.7197 14.8302 16.099C14.6183 16.4849 14.5698 16.9126 14.5496 17.3422C14.5206 17.9702 14.3313 18.1343 13.7011 18.1638C12.3547 18.2269 11.0772 18.0226 9.88984 17.3438C8.84239 16.7451 8.03167 15.9 7.32522 14.9433C5.94954 13.0782 4.89598 11.0312 3.94934 8.92538C3.73629 8.45113 3.89215 8.19738 4.41535 8.18754C5.28458 8.17078 6.15382 8.17291 7.02306 8.18674C7.37682 8.19233 7.61089 8.39474 7.7468 8.72855C8.21653 9.88426 8.79239 10.9838 9.51401 12.0036C9.70631 12.2752 9.90261 12.546 10.1822 12.7377C10.4907 12.9495 10.7258 12.8795 10.8713 12.5351C10.9644 12.3162 11.0046 12.0821 11.0248 11.8475C11.094 11.0439 11.1022 10.2407 10.9825 9.44033C10.908 8.93948 10.6264 8.61604 10.1271 8.52135C9.87282 8.47321 9.91006 8.37905 10.0337 8.23382C10.2484 7.98273 10.4495 7.8274 10.8514 7.8274L13.8605 7.82686C14.3347 7.91996 14.4411 8.13275 14.5055 8.61046L14.5081 11.9544C14.5025 12.1393 14.601 12.6872 14.9329 12.8082C15.1989 12.896 15.3744 12.6827 15.5335 12.5143C16.2551 11.7485 16.7693 10.8447 17.2297 9.90926C17.4329 9.49672 17.6082 9.06981 17.7784 8.64211C17.905 8.32585 18.1019 8.17025 18.4588 8.17557L21.3564 8.17903C21.4418 8.17903 21.5285 8.17983 21.6131 8.19446C22.1015 8.27797 22.2353 8.4881 22.0842 8.96448C21.8464 9.71296 21.3844 10.3364 20.9327 10.9615C20.4486 11.6307 19.9324 12.2765 19.4531 12.9487C19.0126 13.5631 19.0474 13.8724 19.5943 14.406Z"/>
    </symbol>

    <symbol id="burger" viewBox="0 0 20 16">
        <rect width="20" height="1.5" rx="0.75" />
        <rect y="7" width="20" height="1.5" rx="0.75" />
        <rect y="14" width="20" height="1.5" rx="0.75" />
    </symbol>
    <symbol id="pdf-ico" viewBox="0 0 18 18">
        <path class="cls-1" d="M16.42,0H4.11A1.58,1.58,0,0,0,2.53,1.58V4.25H1.27A1.27,1.27,0,0,0,0,5.52v7a1.27,1.27,0,0,0,1.27,1.27H2.53v2.67A1.58,1.58,0,0,0,4.11,18H16.42A1.58,1.58,0,0,0,18,16.42V1.58A1.58,1.58,0,0,0,16.42,0ZM1.05,12.48v-7a.21.21,0,0,1,.22-.21H14.62a.21.21,0,0,1,.22.21v7a.21.21,0,0,1-.22.21H1.27A.21.21,0,0,1,1.05,12.48ZM17,16.42a.53.53,0,0,1-.53.53H4.11a.52.52,0,0,1-.52-.53V13.75h11a1.27,1.27,0,0,0,1.27-1.27v-7a1.27,1.27,0,0,0-1.27-1.27h-11V1.58a.52.52,0,0,1,.52-.53H16.42a.53.53,0,0,1,.53.53Z"/>
        <path class="cls-1" d="M5.54,7.5A1.14,1.14,0,0,1,6,7.9,1.2,1.2,0,0,1,6,9.13a1.14,1.14,0,0,1-.49.4,1.72,1.72,0,0,1-.74.14H4.25v.82H3.37V7.36H4.8A1.72,1.72,0,0,1,5.54,7.5ZM5.16,8.85a.41.41,0,0,0,.14-.33.43.43,0,0,0-.14-.34.56.56,0,0,0-.41-.13h-.5V9h.5A.61.61,0,0,0,5.16,8.85Z"/>
        np<path class="cls-1" d="M6.63,7.36H8.11A2,2,0,0,1,9,7.55a1.43,1.43,0,0,1,.62.54,1.54,1.54,0,0,1,.22.83,1.49,1.49,0,0,1-.22.83A1.39,1.39,0,0,1,9,10.3a2,2,0,0,1-.91.19H6.63ZM8.07,9.78a.92.92,0,0,0,.65-.22A.87.87,0,0,0,9,8.92a.84.84,0,0,0-.25-.63.92.92,0,0,0-.65-.23H7.51V9.78Z"/>
        <path class="cls-1" d="M11.22,8v.69H12.6v.69H11.22v1.07h-.89V7.36h2.46V8Z"/>
    </symbol>
    <symbol id="doc-ico" viewBox="0 0 18 18">
        <path class="cls-1" d="M16.42,0H4.11A1.58,1.58,0,0,0,2.53,1.58V4.25H1.27A1.27,1.27,0,0,0,0,5.52v7a1.27,1.27,0,0,0,1.27,1.27H2.53v2.67A1.58,1.58,0,0,0,4.11,18H16.42A1.58,1.58,0,0,0,18,16.42V1.58A1.58,1.58,0,0,0,16.42,0ZM1.05,12.48v-7a.21.21,0,0,1,.22-.21H14.62a.21.21,0,0,1,.22.21v7a.21.21,0,0,1-.22.21H1.27A.21.21,0,0,1,1.05,12.48ZM17,16.42a.53.53,0,0,1-.53.53H4.11a.52.52,0,0,1-.52-.53V13.75h11a1.27,1.27,0,0,0,1.27-1.27v-7a1.27,1.27,0,0,0-1.27-1.27h-11V1.58a.52.52,0,0,1,.52-.53H16.42a.53.53,0,0,1,.53.53Z"/>
        <path class="cls-1" d="M2.81,7.3H4.3a2.06,2.06,0,0,1,.91.19A1.44,1.44,0,0,1,5.83,8a1.49,1.49,0,0,1,.22.83,1.54,1.54,0,0,1-.22.83,1.49,1.49,0,0,1-.62.54,2.06,2.06,0,0,1-.91.2H2.81ZM4.26,9.73a.92.92,0,0,0,.65-.23.82.82,0,0,0,.24-.63.86.86,0,0,0-.24-.64A.92.92,0,0,0,4.26,8H3.7V9.73Z"/>
        <path class="cls-1" d="M7.2,10.29a1.65,1.65,0,0,1-.62-.58A1.65,1.65,0,0,1,6.58,8a1.57,1.57,0,0,1,.62-.58,1.93,1.93,0,0,1,.9-.21A1.86,1.86,0,0,1,9,7.45a1.64,1.64,0,0,1,.63,2.26,1.68,1.68,0,0,1-.63.58,1.86,1.86,0,0,1-.89.21A1.93,1.93,0,0,1,7.2,10.29Zm1.33-.64a.75.75,0,0,0,.3-.31.93.93,0,0,0,.11-.47.88.88,0,0,0-.11-.47.77.77,0,0,0-.3-.32.9.9,0,0,0-.86,0,.87.87,0,0,0-.31.32,1,1,0,0,0-.11.47,1,1,0,0,0,.11.47.84.84,0,0,0,.31.31.9.9,0,0,0,.86,0Z"/>
        <path class="cls-1" d="M11,10.29a1.57,1.57,0,0,1-.62-.58,1.73,1.73,0,0,1,0-1.69A1.65,1.65,0,0,1,11,7.44a1.81,1.81,0,0,1,.88-.2,1.94,1.94,0,0,1,.78.15,1.46,1.46,0,0,1,.57.44l-.56.51A.93.93,0,0,0,11.92,8a1,1,0,0,0-.46.11.87.87,0,0,0-.31.32,1,1,0,0,0-.11.47,1,1,0,0,0,.11.47.84.84,0,0,0,.31.31.9.9,0,0,0,.46.11,1,1,0,0,0,.74-.36l.56.51a1.56,1.56,0,0,1-.57.44,1.94,1.94,0,0,1-.78.15A1.82,1.82,0,0,1,11,10.29Z"/>
    </symbol>
    <symbol id="file-ico" viewBox="0 0 18 18">
        <path class="cls-1" d="M16.41,0H4.1A1.58,1.58,0,0,0,2.52,1.58V4.25H1.26A1.27,1.27,0,0,0,0,5.52v7a1.27,1.27,0,0,0,1.27,1.27H2.52v2.67A1.59,1.59,0,0,0,4.1,18H16.41A1.59,1.59,0,0,0,18,16.41V1.58A1.58,1.58,0,0,0,16.41,0ZM1,12.47v-7a.22.22,0,0,1,.22-.22H14.61a.21.21,0,0,1,.21.22v7a.21.21,0,0,1-.21.22H1.26A.22.22,0,0,1,1,12.47Zm15.89,3.94a.52.52,0,0,1-.52.53H4.1a.53.53,0,0,1-.53-.53V13.74h11a1.27,1.27,0,0,0,1.27-1.27v-7a1.27,1.27,0,0,0-1.27-1.27h-11V1.58a.53.53,0,0,1,.53-.53H16.41a.52.52,0,0,1,.52.53Z"/>
    </symbol>
    <symbol id="zip-ico" viewBox="0 0 18 18">
        <path class="cls-1" d="M16.41,0H4.1A1.58,1.58,0,0,0,2.52,1.58V4.25H1.26A1.27,1.27,0,0,0,0,5.52v7a1.27,1.27,0,0,0,1.27,1.27H2.52v2.67A1.59,1.59,0,0,0,4.1,18H16.41A1.59,1.59,0,0,0,18,16.41V1.58A1.58,1.58,0,0,0,16.41,0ZM1,12.47v-7a.22.22,0,0,1,.22-.22H14.61a.21.21,0,0,1,.21.22v7a.21.21,0,0,1-.21.22H1.26A.22.22,0,0,1,1,12.47Zm15.89,3.94a.52.52,0,0,1-.52.53H4.1a.53.53,0,0,1-.53-.53V13.74h11a1.27,1.27,0,0,0,1.27-1.27v-7a1.27,1.27,0,0,0-1.27-1.27h-11V1.58a.53.53,0,0,1,.53-.53H16.41a.52.52,0,0,1,.52.53Z"/>
        <path class="cls-1" d="M7,9.81v.7H4.2V10L5.79,8.08H4.25v-.7H7v.55L5.37,9.81Z"/>
        <path class="cls-1" d="M7.4,7.38h.89v3.13H7.4Z"/>
        <path class="cls-1" d="M11.1,7.52a1.06,1.06,0,0,1,.48.4,1.07,1.07,0,0,1,.17.62,1,1,0,0,1-.17.61,1.06,1.06,0,0,1-.48.4,1.72,1.72,0,0,1-.74.14H9.81v.82H8.93V7.38h1.43A1.72,1.72,0,0,1,11.1,7.52Zm-.38,1.36a.44.44,0,0,0,.14-.34.43.43,0,0,0-.14-.34.61.61,0,0,0-.41-.12h-.5V9h.5A.67.67,0,0,0,10.72,8.88Z"/>
    </symbol>

    <symbol id="review-star" viewBox="0 0 34 31">
        <path d="M17 0L20.8167 11.7467L33.168 11.7467L23.1756 19.0066L26.9923 30.7533L17 23.4934L7.00765 30.7533L10.8244 19.0066L0.832039 11.7467L13.1833 11.7467L17 0Z"/>
    </symbol>
    <symbol id="basket-ico" viewBox="0 0 20 20">
        <path d="M12.7587 7.24603C12.5 7.24603 12.2903 7.45571 12.2903 7.71442V16.5669C12.2903 16.8254 12.5 17.0353 12.7587 17.0353C13.0174 17.0353 13.2271 16.8254 13.2271 16.5669V7.71442C13.2271 7.45571 13.0174 7.24603 12.7587 7.24603Z"/>
        <path d="M7.23181 7.24603C6.9731 7.24603 6.76343 7.45571 6.76343 7.71442V16.5669C6.76343 16.8254 6.9731 17.0353 7.23181 17.0353C7.49052 17.0353 7.7002 16.8254 7.7002 16.5669V7.71442C7.7002 7.45571 7.49052 7.24603 7.23181 7.24603Z"/>
        <path d="M3.20382 5.95415V17.4941C3.20382 18.1762 3.45393 18.8167 3.89084 19.2763C4.32574 19.7372 4.93098 19.9989 5.56439 20H14.4263C15.0599 19.9989 15.6652 19.7372 16.0999 19.2763C16.5368 18.8167 16.7869 18.1762 16.7869 17.4941V5.95415C17.6554 5.72362 18.2182 4.88455 18.102 3.99334C17.9857 3.10232 17.2266 2.43579 16.3279 2.43561H13.9298V1.85013C13.9325 1.35778 13.7379 0.885003 13.3893 0.537192C13.0408 0.189564 12.5673 -0.0040094 12.0749 1.57653e-05H7.91582C7.42347 -0.0040094 6.94996 0.189564 6.60142 0.537192C6.25288 0.885003 6.05821 1.35778 6.06095 1.85013V2.43561H3.66287C2.76416 2.43579 2.00505 3.10232 1.88869 3.99334C1.77251 4.88455 2.3353 5.72362 3.20382 5.95415ZM14.4263 19.0632H5.56439C4.76357 19.0632 4.14058 18.3753 4.14058 17.4941V5.99531H15.8501V17.4941C15.8501 18.3753 15.2272 19.0632 14.4263 19.0632ZM6.99772 1.85013C6.99461 1.60624 7.09048 1.3715 7.26356 1.19933C7.43646 1.02716 7.67175 0.932573 7.91582 0.936781H12.0749C12.319 0.932573 12.5543 1.02716 12.7272 1.19933C12.9003 1.37132 12.9961 1.60624 12.993 1.85013V2.43561H6.99772V1.85013ZM3.66287 3.37237H16.3279C16.7935 3.37237 17.171 3.74982 17.171 4.21546C17.171 4.6811 16.7935 5.05855 16.3279 5.05855H3.66287C3.19723 5.05855 2.81978 4.6811 2.81978 4.21546C2.81978 3.74982 3.19723 3.37237 3.66287 3.37237Z"/>
        <path d="M9.99523 7.24603C9.73653 7.24603 9.52686 7.45571 9.52686 7.71442V16.5669C9.52686 16.8254 9.73653 17.0353 9.99523 17.0353C10.2539 17.0353 10.4636 16.8254 10.4636 16.5669V7.71442C10.4636 7.45571 10.2539 7.24603 9.99523 7.24603Z"/>
    </symbol>

    <symbol id="plus" viewBox="0 0 17 17">
        <rect x="16" y="7" width="2" height="16" transform="rotate(90 16 7)"/>
        <rect x="9" y="16" width="2" height="16" transform="rotate(-180 9 16)"/>
    </symbol>

    <symbol id="password-eye" viewBox="0 0 16 16">
        <path d="M8 3C4.66667 3 1.82001 5.07333 0.666672 8C1.82001 10.9267 4.66667 13 8 13C11.3333 13 14.18 10.9267 15.3333 8C14.18 5.07333 11.3333 3 8 3ZM8 11.3333C6.16 11.3333 4.66667 9.84 4.66667 8C4.66667 6.16 6.16 4.66667 8 4.66667C9.84 4.66667 11.3333 6.16 11.3333 8C11.3333 9.84 9.84 11.3333 8 11.3333ZM8 6C6.89334 6 6 6.89333 6 8C6 9.10667 6.89334 10 8 10C9.10667 10 10 9.10667 10 8C10 6.89333 9.10667 6 8 6Z" />
    </symbol>

    <symbol id="play-ico" viewBox="0 0 32 32">
        <path d="M16 0C7.17706 0 0 7.17775 0 16C0 24.8223 7.17706 32 16 32C24.8229 32 32 24.8223 32 16C32 7.17775 24.8229 0 16 0ZM22.3607 16.5606L13.0274 22.5606C12.918 22.6315 12.7917 22.6667 12.6667 22.6667C12.5573 22.6667 12.4466 22.6393 12.3477 22.5853C12.1328 22.4681 12 22.2441 12 22V10C12 9.75587 12.1328 9.53187 12.3477 9.41469C12.5586 9.29881 12.8229 9.30594 13.0274 9.43944L22.3607 15.4394C22.5508 15.5618 22.6667 15.7734 22.6667 16C22.6667 16.2266 22.5508 16.4381 22.3607 16.5606Z" fill="#0019FF"/>
    </symbol>

    <symbol id="loader" viewBox="0 0 54 62" fill="none" xmlns="http://www.w3.org/2000/svg">
        <path d="M26.7901 4.21094C41.5582 4.21094 53.5675 16.2329 53.5675 31.001V31.0896L58.8699 23.1045C59.3887 22.3199 60.4517 22.1047 61.2363 22.6236C62.0209 23.1424 62.236 24.2054 61.7172 24.99L54.0231 36.5691C53.7447 36.9867 53.3018 37.2525 52.8083 37.3157C52.7323 37.3284 52.6691 37.3284 52.5931 37.3284C52.1755 37.3284 51.7706 37.1765 51.4542 36.8855L40.7609 27.2552C40.0649 26.6225 40.0017 25.5468 40.6344 24.8382C41.2671 24.1422 42.3428 24.0789 43.0514 24.7116L50.1508 31.1276V31.001C50.1508 18.1058 39.6726 7.62772 26.7901 7.62772C13.9076 7.62772 3.41681 18.1058 3.41681 31.001C3.41681 43.8962 13.8949 54.3743 26.7775 54.3743C33.0162 54.3743 38.888 51.9446 43.2919 47.5281C43.9626 46.8574 45.0382 46.8574 45.7089 47.5281C46.3796 48.1988 46.3796 49.2745 45.7089 49.9452C40.647 55.0071 33.9274 57.7911 26.7775 57.7911C12.022 57.7911 2.67029e-05 45.7818 2.67029e-05 31.001C2.67029e-05 16.2203 12.022 4.21094 26.7901 4.21094Z" fill="#0019FF"/>
    </symbol>

    <symbol id="user1" viewBox="0 0 20 20">
        <path d="M9.85626 9.63408C11.1798 9.63408 12.3257 9.15938 13.2623 8.22279C14.1986 7.28636 14.6735 6.14058 14.6735 4.81689C14.6735 3.49365 14.1988 2.34771 13.2622 1.41098C12.3256 0.4747 11.1797 0 9.85626 0C8.53256 0 7.38678 0.4747 6.45035 1.41113C5.51392 2.34756 5.03906 3.49349 5.03906 4.81689C5.03906 6.14058 5.51392 7.28652 6.45035 8.22295C7.38708 9.15922 8.53302 9.63408 9.85626 9.63408ZM7.27921 2.23983C7.99774 1.5213 8.84064 1.17203 9.85626 1.17203C10.8717 1.17203 11.7148 1.5213 12.4335 2.23983C13.152 2.95852 13.5014 3.80157 13.5014 4.81689C13.5014 5.83251 13.152 6.6754 12.4335 7.39409C11.7148 8.11278 10.8717 8.46205 9.85626 8.46205C8.84094 8.46205 7.99805 8.11263 7.27921 7.39409C6.56052 6.67555 6.21109 5.83251 6.21109 4.81689C6.21109 3.80157 6.56052 2.95852 7.27921 2.23983Z" fill="#0019FF"/>
        <path d="M18.2863 15.3784C18.2593 14.9887 18.2047 14.5636 18.1242 14.1146C18.0431 13.6624 17.9385 13.2348 17.8134 12.844C17.684 12.4401 17.5084 12.0413 17.291 11.6591C17.0656 11.2623 16.8007 10.9169 16.5034 10.6326C16.1926 10.3352 15.8121 10.0961 15.372 9.92169C14.9335 9.7482 14.4475 9.66031 13.9276 9.66031C13.7234 9.66031 13.526 9.74408 13.1447 9.99234C12.91 10.1454 12.6355 10.3224 12.3291 10.5182C12.0671 10.6851 11.7122 10.8415 11.2738 10.9831C10.8461 11.1215 10.4118 11.1917 9.98306 11.1917C9.5546 11.1917 9.12033 11.1215 8.69232 10.9831C8.25439 10.8416 7.89932 10.6852 7.63779 10.5183C7.33429 10.3244 7.05963 10.1474 6.82144 9.99219C6.44043 9.74393 6.24298 9.66016 6.03882 9.66016C5.5188 9.66016 5.03296 9.7482 4.59457 9.92184C4.15482 10.0959 3.77411 10.3351 3.46298 10.6327C3.16574 10.9172 2.90085 11.2625 2.67563 11.6591C2.4585 12.0413 2.28271 12.44 2.15332 12.8442C2.02835 13.235 1.92383 13.6624 1.84265 14.1146C1.76208 14.5629 1.70761 14.9882 1.6806 15.3788C1.65405 15.7608 1.64062 16.1582 1.64062 16.5599C1.64062 17.6039 1.9725 18.449 2.62695 19.0724C3.27332 19.6874 4.12842 19.9993 5.16861 19.9993H14.7987C15.8386 19.9993 16.6937 19.6874 17.3402 19.0724C17.9948 18.4495 18.3267 17.604 18.3267 16.5597C18.3266 16.1567 18.313 15.7592 18.2863 15.3784ZM16.5321 18.2232C16.105 18.6297 15.538 18.8273 14.7986 18.8273H5.16861C4.42902 18.8273 3.862 18.6297 3.43506 18.2234C3.0162 17.8247 2.81265 17.2804 2.81265 16.5599C2.81265 16.1851 2.82501 15.8151 2.84973 15.4599C2.87384 15.1113 2.92313 14.7285 2.99622 14.3217C3.06839 13.9199 3.16025 13.5429 3.2695 13.2016C3.37433 12.8743 3.5173 12.5502 3.69461 12.238C3.86383 11.9404 4.05853 11.6851 4.27338 11.4795C4.47433 11.287 4.72763 11.1296 5.02609 11.0115C5.30212 10.9022 5.61234 10.8424 5.9491 10.8334C5.99014 10.8552 6.06323 10.8969 6.18164 10.9741C6.42258 11.1311 6.70029 11.3102 7.00729 11.5063C7.35336 11.727 7.79922 11.9262 8.33191 12.0982C8.8765 12.2743 9.43192 12.3637 9.98322 12.3637C10.5345 12.3637 11.0901 12.2743 11.6344 12.0984C12.1675 11.9261 12.6132 11.727 12.9597 11.506C13.2739 11.3052 13.5439 11.1313 13.7848 10.9741C13.9032 10.897 13.9763 10.8552 14.0173 10.8334C14.3542 10.8424 14.6645 10.9022 14.9406 11.0115C15.239 11.1296 15.4922 11.2872 15.6932 11.4795C15.9081 11.685 16.1028 11.9403 16.272 12.2381C16.4494 12.5502 16.5926 12.8744 16.6972 13.2014C16.8066 13.5432 16.8987 13.9201 16.9707 14.3216C17.0436 14.7291 17.093 15.1121 17.1172 15.46V15.4603C17.142 15.8142 17.1545 16.184 17.1547 16.5599C17.1545 17.2805 16.951 17.8247 16.5321 18.2232Z" fill="#0019FF"/>
    </symbol>

</svg>
