<svg width="29" height="29" viewBox="0 0 29 29" fill="none" xmlns="http://www.w3.org/2000/svg">
<g clip-path="url(#clip0)">
<path d="M25.8483 2.52087H18.2828C17.9348 2.52087 17.6523 2.80334 17.6523 3.15135C17.6523 3.49936 17.9348 3.78182 18.2828 3.78182H25.8483C26.1963 3.78182 26.4788 3.49936 26.4788 3.15135C26.4788 2.80334 26.1963 2.52087 25.8483 2.52087Z" fill="#0019FF"/>
<path d="M26.2948 2.70625L23.7729 0.184408C23.5271 -0.0614694 23.1273 -0.0614694 22.8814 0.184408C22.6356 0.430285 22.6356 0.830014 22.8814 1.07589L24.9569 3.15137L22.8802 5.22809C22.6343 5.47396 22.6343 5.87369 22.8802 6.11957C23.0038 6.24186 23.1652 6.30368 23.3266 6.30368C23.488 6.30368 23.6493 6.24192 23.7729 6.11957L26.2948 3.59773C26.5407 3.35179 26.5407 2.95212 26.2948 2.70625Z" fill="#0019FF"/>
<path d="M9.45668 2.52087H1.89122C1.54321 2.52087 1.26074 2.80334 1.26074 3.15135C1.26074 3.49936 1.54321 3.78182 1.89122 3.78182H9.45668C9.80469 3.78182 10.0872 3.49936 10.0872 3.15135C10.0872 2.80334 9.80469 2.52087 9.45668 2.52087Z" fill="#0019FF"/>
<path d="M2.78245 3.15125L4.85793 1.07577C5.1038 0.829891 5.1038 0.430163 4.85793 0.184286C4.61205 -0.0615914 4.21232 -0.0615914 3.96644 0.184286L1.44466 2.70618C1.19878 2.95206 1.19878 3.35179 1.44466 3.59767L3.9665 6.11951C4.09009 6.24179 4.25145 6.30362 4.41286 6.30362C4.57428 6.30362 4.73564 6.24185 4.85798 6.11826C5.10386 5.87239 5.10386 5.47266 4.85798 5.22678L2.78245 3.15125Z" fill="#0019FF"/>
<path d="M25.2178 12.6081C24.6996 12.6081 24.2166 12.7657 23.8157 13.0343C23.4702 12.0533 22.5333 11.3472 21.4351 11.3472C20.9168 11.3472 20.4339 11.5048 20.0329 11.7734C19.6875 10.7924 18.7506 10.0863 17.6523 10.0863C17.1934 10.0863 16.7622 10.2099 16.3915 10.4255V6.30358C16.3915 4.91277 15.2604 3.78174 13.8696 3.78174C12.4788 3.78174 11.3478 4.91277 11.3478 6.30358V17.0213L9.15633 15.3783C7.85762 14.4036 6.0091 14.5336 4.85791 15.6835C4.12028 16.4211 4.12028 17.6203 4.85791 18.3579L13.8369 27.3381C14.9086 28.4098 16.3347 29 17.8503 29H20.8047C24.6278 29 27.7396 25.8893 27.7396 22.065V15.1299C27.7396 13.7391 26.6086 12.6081 25.2178 12.6081ZM26.4788 22.0649C26.4788 25.1932 23.933 27.739 20.8047 27.739H17.8503C16.6701 27.739 15.5618 27.2801 14.7284 26.4466L5.74939 17.4664C5.50352 17.2205 5.50352 16.8208 5.74939 16.5749C6.14026 16.1853 6.66227 15.9848 7.18683 15.9848C7.61304 15.9848 8.04173 16.1172 8.40109 16.387L11.6 18.7865C11.7917 18.9303 12.0489 18.9517 12.2608 18.8458C12.4738 18.7386 12.6088 18.5205 12.6088 18.2822V6.30358C12.6088 5.6088 13.1737 5.04269 13.8697 5.04269C14.5657 5.04269 15.1306 5.60886 15.1306 6.30358V15.7604C15.1306 16.1084 15.413 16.3909 15.761 16.3909C16.109 16.3909 16.3915 16.1084 16.3915 15.7604V12.6081C16.3915 11.9134 16.9564 11.3473 17.6524 11.3473C18.3484 11.3473 18.9133 11.9134 18.9133 12.6081V15.7604C18.9133 16.1084 19.1958 16.3909 19.5438 16.3909C19.8918 16.3909 20.1742 16.1084 20.1742 15.7604V13.869C20.1742 13.1743 20.7391 12.6081 21.4351 12.6081C22.1312 12.6081 22.696 13.1743 22.696 13.869V15.7604C22.696 16.1084 22.9785 16.3909 23.3265 16.3909C23.6745 16.3909 23.957 16.1084 23.957 15.7604V15.1299C23.957 14.4351 24.5218 13.869 25.2179 13.869C25.9139 13.869 26.4788 14.4352 26.4788 15.1299V22.0649Z" fill="#0019FF"/>
</g>
<defs>
<clipPath id="clip0">
<rect width="29" height="29" fill="white"/>
</clipPath>
</defs>
</svg>
