<svg width="380" height="380" viewBox="0 0 408 408" fill="none" xmlns="http://www.w3.org/2000/svg">
<path d="M258.264 355.776C258.174 355.788 258.084 355.788 257.995 355.776C216.379 346.4 112.828 323.25 93.3421 319.57L90.331 319.08C90.1441 319.107 89.9536 319.089 89.7749 319.028C89.5963 318.967 89.4346 318.865 89.3029 318.73C89.0859 318.52 88.9541 318.237 88.933 317.936C88.9119 317.634 89.003 317.336 89.1886 317.098L85.8349 244.653L56.8995 240.247C56.6627 240.211 56.4417 240.106 56.2639 239.945C56.0861 239.784 55.9594 239.575 55.8995 239.343C55.8395 239.111 55.849 238.867 55.9267 238.64C56.0043 238.413 56.1468 238.214 56.3365 238.068L83.6072 217.203L28.3966 160.181C28.1777 159.954 28.0554 159.651 28.0554 159.336C28.0554 159.021 28.1777 158.718 28.3966 158.492L89.5966 92.6894C89.7116 92.5695 89.8497 92.474 90.0026 92.4088C90.1554 92.3436 90.3199 92.31 90.4861 92.31C90.6523 92.31 90.8167 92.3436 90.9696 92.4088C91.1224 92.474 91.2605 92.5695 91.3755 92.6894L146.651 149.744L164.383 73.8072C164.445 73.5224 164.606 73.269 164.838 73.0925C165.07 72.916 165.357 72.828 165.648 72.8443L319.529 91.392C319.69 91.414 319.845 91.4679 319.986 91.5506C320.126 91.6332 320.248 91.743 320.345 91.8734C320.445 92.0043 320.518 92.1545 320.557 92.3146C320.596 92.4747 320.602 92.6413 320.574 92.8037L308.04 170.879L369.729 135.113C369.959 134.983 370.225 134.93 370.488 134.963C370.75 134.996 370.995 135.113 371.185 135.297C371.375 135.481 371.5 135.721 371.543 135.982C371.585 136.243 371.541 136.511 371.419 136.745L330.619 209.965C330.49 210.194 330.293 210.377 330.056 210.487L307.428 220.793C307.538 220.984 307.598 221.201 307.599 221.422V267.762C307.602 267.971 307.549 268.177 307.444 268.358L259.3 355.14C259.198 355.327 259.048 355.484 258.867 355.596C258.685 355.707 258.477 355.769 258.264 355.776ZM143.045 327.632C152.453 329.697 163.069 332.039 174.828 334.65C212.902 343.095 251.336 351.737 257.636 353.157L305.184 267.477V223.502L262.752 246.881L256.648 344.744C256.638 344.914 256.592 345.08 256.513 345.231C256.435 345.383 256.326 345.516 256.193 345.623C256.06 345.73 255.906 345.808 255.742 345.851C255.577 345.895 255.405 345.904 255.236 345.878L143.045 327.632ZM93.6766 317.106L254.29 343.275L260.173 248.953L228.202 266.089C227.968 266.209 227.704 266.254 227.444 266.22L88.2992 245.004L91.6203 316.747C92.1589 316.845 92.828 316.959 93.6766 317.106ZM88.1849 242.532L227.403 263.748L258.06 247.33L88.3808 225.216C88.1648 225.188 87.9602 225.103 87.7881 224.97C87.616 224.836 87.4825 224.659 87.4016 224.457C87.3751 224.394 87.3559 224.329 87.3445 224.261L88.1849 242.532ZM90.8696 223.062L260.753 245.192L293.295 227.24L260.402 242.23C260.158 242.336 259.886 242.36 259.628 242.299C259.369 242.238 259.137 242.095 258.966 241.891C258.795 241.687 258.695 241.434 258.68 241.168C258.665 240.903 258.737 240.64 258.884 240.418L304.368 174.192L148.593 153.408L153.767 227.876C153.781 228.058 153.752 228.241 153.684 228.411C153.617 228.581 153.511 228.733 153.375 228.855C153.241 228.98 153.08 229.073 152.905 229.126C152.73 229.18 152.544 229.193 152.363 229.165L93.3829 220.002L90.8696 223.062ZM60.1064 238.272L85.7206 242.164L84.668 219.504L60.1064 238.272ZM307.452 174.053V174.102L263.405 238.182L328.685 208.431L367.102 139.446L307.452 174.053ZM95.1618 217.766L151.221 226.473L146.243 154.779L95.1618 217.766ZM87.0997 218.99L87.32 223.837C87.3534 223.614 87.4433 223.403 87.5811 223.225L90.5758 219.504L87.0997 218.99ZM86.2102 216.371L92.3629 217.325L145.403 151.964L90.4942 95.3007L30.9589 159.308L86.2102 216.371ZM148.838 150.96L305.412 171.899L317.971 93.6931L166.464 75.4066L148.838 150.96Z" fill="#0019FF"/>
<path d="M153.816 297.024H153.587L92.3875 285.6C92.1031 285.548 91.8466 285.396 91.6642 285.171C91.4817 284.947 91.3852 284.665 91.3919 284.376V262.344C91.3922 262.165 91.4319 261.988 91.508 261.826C91.5841 261.664 91.6949 261.52 91.8326 261.406C91.9713 261.292 92.1324 261.21 92.3055 261.163C92.4785 261.117 92.6594 261.108 92.8362 261.136L156.484 272.56C156.741 272.61 156.976 272.741 157.153 272.933C157.331 273.125 157.443 273.369 157.473 273.629C157.503 273.889 157.45 274.151 157.32 274.379C157.191 274.607 156.992 274.787 156.754 274.894L139.789 282.238L154.607 294.837C154.814 295.011 154.957 295.25 155.013 295.514C155.069 295.779 155.036 296.054 154.918 296.298C154.822 296.511 154.668 296.693 154.473 296.822C154.278 296.951 154.05 297.021 153.816 297.024ZM93.8399 283.356L149.516 293.76L136.704 282.866C136.545 282.733 136.423 282.561 136.35 282.366C136.277 282.172 136.256 281.962 136.288 281.757C136.318 281.551 136.4 281.357 136.526 281.191C136.651 281.026 136.817 280.895 137.006 280.81L152.07 274.282L93.8399 263.805V283.356Z" fill="#0019FF"/>
</svg>
