<svg width="255" height="258" viewBox="0 0 255 258" fill="none" xmlns="http://www.w3.org/2000/svg">
<path d="M174.176 62.001C163.099 61.9446 152.129 64.1771 141.949 68.5596C131.768 72.9422 122.595 79.3809 115 87.4753C119.238 86.8501 123.516 86.5341 127.799 86.5297C147.249 86.3604 166.198 92.7185 181.637 104.595C197.076 116.471 208.12 133.184 213.015 152.08C217.911 170.977 216.377 190.974 208.658 208.895C200.939 226.817 187.476 241.636 170.409 251C189.892 244.283 207.479 232.958 221.684 217.982C235.89 203.006 246.296 184.818 252.025 164.955C252.205 164.37 252.353 163.776 252.469 163.175C255.529 151.198 255.819 138.676 253.315 126.569C250.811 114.462 245.581 103.091 238.025 93.3259C230.468 83.5609 220.786 75.6612 209.719 70.2317C198.652 64.8021 186.494 61.9867 174.176 62.001Z" fill="url(#paint0_radial)"/>
<path d="M199 186.158C199.02 167.662 191.891 149.878 179.108 136.533C173.466 146.648 165.859 155.529 156.736 162.653C147.614 169.776 137.16 174.998 125.991 178.01C114.822 181.022 103.164 181.763 91.7046 180.189C80.2453 178.616 69.2163 174.76 59.268 168.849C49.3198 162.938 40.6536 155.091 33.7804 145.771C26.9073 136.452 21.9663 125.848 19.2488 114.585C16.5313 103.322 16.0923 91.6277 17.9577 80.192C19.8231 68.7563 23.9551 57.8105 30.1101 48C14.4362 66.5705 4.38569 89.2413 1.14219 113.342C-2.10131 137.444 1.59728 161.971 11.8024 184.037C22.0075 206.103 38.2941 224.788 58.7441 237.892C79.1942 250.995 102.956 257.972 127.232 258H130.965C149.34 257.055 166.649 249.07 179.312 235.698C191.976 222.327 199.024 204.59 199 186.158Z" fill="url(#paint1_radial)"/>
<path d="M86.584 158C86.0244 153.785 85.7458 149.537 85.7499 145.284C85.7045 126.45 91.1144 108.011 101.317 92.2279C111.519 76.4448 126.07 64.0031 143.187 56.4277C160.304 48.8522 179.243 46.4721 197.683 49.5791C216.122 52.6861 233.262 61.1453 247 73.9197C239.231 57.4271 228.085 42.7773 214.296 30.9329C200.507 19.0884 184.386 10.3174 166.993 5.19608C149.6 0.07478 131.327 -1.28088 113.377 1.21818C95.4265 3.71723 78.2041 10.0144 62.8413 19.696C50.3085 27.7738 40.4216 39.3991 34.4202 53.1144C28.4188 66.8297 26.5699 82.0246 29.1054 96.7941C31.6409 111.564 38.4479 125.25 48.673 136.139C58.8981 147.027 72.0862 154.632 86.584 158Z" fill="url(#paint2_radial)"/>
<defs>
<radialGradient id="paint0_radial" cx="0" cy="0" r="1" gradientUnits="userSpaceOnUse" gradientTransform="translate(119.377 151.193) rotate(180) scale(102.202 102.593)">
<stop stop-color="#CEE5F5"/>
<stop offset="1" stop-color="#44A1D0"/>
</radialGradient>
<radialGradient id="paint1_radial" cx="0" cy="0" r="1" gradientUnits="userSpaceOnUse" gradientTransform="translate(99.4268 152.888) scale(102.248 102.432)">
<stop stop-color="#F8DD83"/>
<stop offset="1" stop-color="#DE9222"/>
</radialGradient>
<radialGradient id="paint2_radial" cx="0" cy="0" r="1" gradientUnits="userSpaceOnUse" gradientTransform="translate(162.533 117.17) rotate(180) scale(115.556 116.414)">
<stop stop-color="#DAEA73"/>
<stop offset="1" stop-color="#68B336"/>
</radialGradient>
</defs>
</svg>
